<svg width="1062" height="127" viewBox="0 0 1062 127" fill="none" xmlns="http://www.w3.org/2000/svg">
<g filter="url(#filter0_d_147_1663)">
<rect x="15" y="8" width="328" height="97" rx="16" fill="white"/>
<rect x="15.5" y="8.5" width="327" height="96" rx="15.5" stroke="#6681A9" stroke-opacity="0.1"/>
<path d="M127.013 35.476C127.62 36.1387 128.082 36.666 128.399 37.058C128.716 37.4407 128.968 37.828 129.155 38.22C129.342 38.612 129.435 39.0133 129.435 39.424C129.435 39.9187 129.304 40.3713 129.043 40.782C128.782 41.1927 128.432 41.5193 127.993 41.762C127.554 41.9953 127.078 42.112 126.565 42.112C126.052 42.112 125.571 41.9953 125.123 41.762C124.684 41.5193 124.334 41.1927 124.073 40.782C123.812 40.3713 123.681 39.9187 123.681 39.424C123.681 38.9947 123.765 38.5887 123.933 38.206C124.11 37.814 124.325 37.4547 124.577 37.128C124.838 36.8013 125.184 36.414 125.613 35.966L125.221 35.532L126.187 34.566L127.013 35.476ZM124.997 39.368C124.997 39.7227 125.137 40.0213 125.417 40.264C125.697 40.4973 126.08 40.614 126.565 40.614C127.041 40.614 127.419 40.4973 127.699 40.264C127.979 40.0213 128.119 39.7227 128.119 39.368C128.119 39.088 128.002 38.7847 127.769 38.458C127.545 38.1313 127.139 37.6413 126.551 36.988C125.972 37.604 125.566 38.0707 125.333 38.388C125.109 38.7053 124.997 39.032 124.997 39.368ZM136.011 38.136L136.137 38.416C136.492 39.1907 136.8 39.732 137.061 40.04C137.332 40.3387 137.663 40.488 138.055 40.488H138.293L138.363 41.286L138.293 42H138.055C137.645 42 137.276 41.9113 136.949 41.734C136.623 41.5567 136.319 41.2953 136.039 40.95C135.517 41.65 134.733 42 133.687 42H132.973C132.077 42 131.27 41.7293 130.551 41.188L131.209 39.942C131.228 39.9513 131.321 40.0073 131.489 40.11C131.667 40.2127 131.886 40.3013 132.147 40.376C132.418 40.4507 132.693 40.488 132.973 40.488H133.687C134.014 40.488 134.28 40.4553 134.485 40.39C134.7 40.3247 134.868 40.208 134.989 40.04C135.064 39.9373 135.101 39.8207 135.101 39.69C135.101 39.4847 135.003 39.1813 134.807 38.78L133.323 35.56L134.527 34.916L136.011 38.136ZM144.028 41.132C143.851 41.4027 143.608 41.6173 143.3 41.776C142.992 41.9253 142.656 42 142.292 42C141.956 42 141.62 41.9253 141.284 41.776C140.948 41.6173 140.692 41.4027 140.514 41.132C140.309 41.412 140.052 41.6267 139.744 41.776C139.446 41.9253 139.114 42 138.75 42H137.868V40.488H138.778C139.189 40.488 139.478 40.404 139.646 40.236C139.824 40.068 139.912 39.7833 139.912 39.382V37.562H141.242V39.368C141.242 39.7787 141.326 40.068 141.494 40.236C141.662 40.404 141.933 40.488 142.306 40.488C142.68 40.488 142.95 40.404 143.118 40.236C143.296 40.0587 143.384 39.7693 143.384 39.368V37.562H144.7V39.368C144.7 40.1147 145.074 40.488 145.82 40.488C146.184 40.488 146.45 40.404 146.618 40.236C146.786 40.0587 146.87 39.7693 146.87 39.368V37.562H148.186V39.382C148.186 39.7833 148.275 40.068 148.452 40.236C148.63 40.404 148.924 40.488 149.334 40.488H150.244L150.314 41.244L150.244 42H149.348C148.994 42 148.662 41.9253 148.354 41.776C148.046 41.6267 147.79 41.412 147.584 41.132C147.416 41.4027 147.16 41.6173 146.814 41.776C146.478 41.9253 146.147 42 145.82 42C145.475 42 145.148 41.9253 144.84 41.776C144.532 41.6267 144.262 41.412 144.028 41.132ZM142.04 34.328H143.538V35.812H142.04V34.328ZM143.384 32.452H144.798V33.866H143.384V32.452ZM144.644 34.328H146.142V35.812H144.644V34.328ZM149.825 40.488H151.295C151.687 40.488 151.976 40.4087 152.163 40.25C152.349 40.082 152.443 39.8533 152.443 39.564C152.443 39.312 152.401 38.9433 152.317 38.458C152.233 37.9727 152.135 37.4967 152.023 37.03L153.297 36.708C153.409 37.1747 153.511 37.6927 153.605 38.262C153.707 38.8313 153.759 39.2793 153.759 39.606C153.759 40.0167 153.665 40.404 153.479 40.768C153.292 41.132 153.017 41.4307 152.653 41.664C152.289 41.888 151.855 42 151.351 42H149.825V40.488ZM151.239 33.544H152.793V35.084H151.239V33.544ZM160.825 42C159.882 42 159.215 41.7387 158.823 41.216C158.44 40.6933 158.249 39.9467 158.249 38.976L158.235 32.83H159.551L159.565 38.976C159.565 39.424 159.593 39.7507 159.649 39.956C159.705 40.152 159.817 40.292 159.985 40.376C160.153 40.4507 160.433 40.488 160.825 40.488H161.133L161.217 41.258L161.133 42H160.825ZM164.313 39.62C164.313 40.0027 164.486 40.264 164.831 40.404C164.971 40.18 165.256 39.746 165.685 39.102L166.329 38.108C166.805 37.38 167.272 36.8573 167.729 36.54C168.196 36.2133 168.742 36.05 169.367 36.05C169.918 36.05 170.389 36.19 170.781 36.47C171.183 36.75 171.486 37.128 171.691 37.604C171.897 38.0707 171.999 38.5747 171.999 39.116C171.999 39.4987 171.943 39.844 171.831 40.152C172.055 40.376 172.415 40.488 172.909 40.488H173.315L173.427 41.258L173.315 42H172.895C172.55 42 172.214 41.93 171.887 41.79C171.57 41.65 171.309 41.468 171.103 41.244C170.833 41.4867 170.52 41.6733 170.165 41.804C169.811 41.9347 169.433 42 169.031 42H165.419C165.139 42 164.831 41.9393 164.495 41.818C164.159 41.6873 163.865 41.4913 163.613 41.23C163.352 41.4727 163.049 41.664 162.703 41.804C162.358 41.9347 162.017 42 161.681 42H160.673V40.488H161.695C162.097 40.488 162.414 40.418 162.647 40.278C162.881 40.138 162.997 39.9187 162.997 39.62V37.562H164.313V39.62ZM169.031 40.488C169.563 40.488 169.969 40.376 170.249 40.152C170.539 39.9187 170.683 39.5733 170.683 39.116C170.683 38.6307 170.576 38.2527 170.361 37.982C170.147 37.702 169.811 37.562 169.353 37.562C168.971 37.562 168.653 37.6553 168.401 37.842C168.149 38.0287 167.827 38.3833 167.435 38.906C167.239 39.1487 166.936 39.564 166.525 40.152L166.273 40.488H169.031ZM168.527 33.25H170.081V34.79H168.527V33.25ZM172.918 40.488H173.296C173.706 40.488 173.958 40.292 174.052 39.9L174.472 38.388C174.677 37.632 175.004 37.044 175.452 36.624C175.9 36.204 176.441 35.994 177.076 35.994C177.58 35.994 178.028 36.1387 178.42 36.428C178.812 36.708 179.115 37.0953 179.33 37.59C179.544 38.0847 179.652 38.626 179.652 39.214C179.652 39.9327 179.544 40.5253 179.33 40.992C179.115 41.4493 178.84 41.7807 178.504 41.986C178.177 42.1913 177.827 42.294 177.454 42.294C177.108 42.294 176.754 42.224 176.39 42.084C176.035 41.9533 175.498 41.706 174.78 41.342C174.584 41.5473 174.355 41.7107 174.094 41.832C173.832 41.944 173.571 42 173.31 42H172.918V40.488ZM175.41 40.04C175.998 40.3387 176.432 40.5393 176.712 40.642C176.992 40.7447 177.248 40.796 177.482 40.796C177.771 40.796 177.99 40.684 178.14 40.46C178.298 40.2267 178.378 39.8113 178.378 39.214C178.378 38.6633 178.261 38.2387 178.028 37.94C177.804 37.632 177.486 37.478 177.076 37.478C176.768 37.478 176.497 37.59 176.264 37.814C176.03 38.0287 175.858 38.3553 175.746 38.794L175.41 40.04ZM181.335 32.83H182.651L182.665 42H181.349L181.335 32.83ZM189.112 38.402C188.571 39.5873 188.3 40.5673 188.3 41.342C188.3 42.1633 188.496 42.812 188.888 43.288C189.29 43.7733 189.896 44.016 190.708 44.016H192.122C192.944 44.016 193.527 43.8947 193.872 43.652C194.218 43.4187 194.409 43.0267 194.446 42.476V42.378C194.446 42.3033 194.428 42.2473 194.39 42.21C194.362 42.182 194.292 42.154 194.18 42.126L191.156 41.314C191.016 40.8847 190.946 40.4367 190.946 39.97C190.946 39.4753 191.026 39.0133 191.184 38.584C191.352 38.1453 191.576 37.7627 191.856 37.436C192.22 37.0347 192.636 36.7267 193.102 36.512C193.578 36.288 194.073 36.176 194.586 36.176C194.838 36.176 195.095 36.1947 195.356 36.232C195.627 36.2693 195.856 36.316 196.042 36.372L195.734 37.786C195.361 37.6833 194.955 37.646 194.516 37.674C193.844 37.6833 193.289 37.9307 192.85 38.416C192.617 38.6587 192.449 38.9153 192.346 39.186C192.253 39.4473 192.225 39.7367 192.262 40.054L194.67 40.712C195.072 40.8333 195.356 41.0153 195.524 41.258C195.692 41.5007 195.776 41.8367 195.776 42.266C195.776 43.2927 195.459 44.0907 194.824 44.66C194.19 45.2387 193.289 45.528 192.122 45.528H190.708C189.943 45.528 189.276 45.3367 188.706 44.954C188.146 44.5807 187.717 44.072 187.418 43.428C187.129 42.7933 186.984 42.1027 186.984 41.356C186.984 40.8333 187.073 40.2593 187.25 39.634C187.428 38.9993 187.652 38.3833 187.922 37.786L189.112 38.402ZM200.256 42C199.313 42 198.646 41.7387 198.254 41.216C197.871 40.6933 197.68 39.9467 197.68 38.976L197.666 32.83H198.982L198.996 38.976C198.996 39.424 199.024 39.7507 199.08 39.956C199.136 40.152 199.248 40.292 199.416 40.376C199.584 40.4507 199.864 40.488 200.256 40.488H200.564L200.648 41.258L200.564 42H200.256ZM207.217 34.832L209.373 38.15C209.699 38.6447 209.863 39.158 209.863 39.69C209.863 40.2313 209.699 40.6933 209.373 41.076C209.093 41.412 208.691 41.6593 208.169 41.818C207.655 41.9673 206.969 42.042 206.111 42.042C205.289 42.042 204.501 41.902 203.745 41.622C202.979 41.874 202.149 42 201.253 42H200.147V40.488H201.421C201.617 40.488 201.766 40.4833 201.869 40.474C201.327 39.9327 201.057 39.312 201.057 38.612C201.057 38.0893 201.178 37.6087 201.421 37.17C201.663 36.722 201.995 36.3673 202.415 36.106C202.835 35.8447 203.297 35.714 203.801 35.714C204.286 35.714 204.734 35.8447 205.145 36.106C205.565 36.358 205.896 36.708 206.139 37.156C206.381 37.5947 206.503 38.0753 206.503 38.598C206.503 39.3167 206.232 39.956 205.691 40.516H205.985C207.319 40.516 208.113 40.3807 208.365 40.11C208.467 39.9887 208.519 39.8533 208.519 39.704C208.519 39.4893 208.425 39.2373 208.239 38.948L206.097 35.658L207.217 34.832ZM202.373 38.668C202.373 39.004 202.489 39.3027 202.723 39.564C202.956 39.816 203.287 40.0213 203.717 40.18C204.183 40.0213 204.543 39.816 204.795 39.564C205.047 39.3027 205.173 39.004 205.173 38.668C205.173 38.2387 205.047 37.8887 204.795 37.618C204.543 37.338 204.207 37.198 203.787 37.198C203.357 37.198 203.012 37.338 202.751 37.618C202.499 37.8887 202.373 38.2387 202.373 38.668ZM213.216 42C212.693 42 212.227 41.8833 211.816 41.65C211.415 41.4167 211.102 41.1087 210.878 40.726C210.654 40.334 210.542 39.9047 210.542 39.438C210.542 39.354 210.551 39.2187 210.57 39.032C210.617 38.668 210.766 37.954 211.018 36.89L212.236 37.212L212.138 37.66C211.951 38.4907 211.849 39.0133 211.83 39.228C211.821 39.2747 211.816 39.3353 211.816 39.41C211.816 39.746 211.937 40.012 212.18 40.208C212.423 40.3947 212.768 40.488 213.216 40.488H219.278C219.726 40.488 220.053 40.404 220.258 40.236C220.473 40.068 220.58 39.7973 220.58 39.424V37.562H221.896V39.564C221.896 39.9 221.98 40.138 222.148 40.278C222.316 40.418 222.582 40.488 222.946 40.488H223.422L223.506 41.23L223.422 42H222.946C222.647 42 222.335 41.93 222.008 41.79C221.691 41.65 221.415 41.44 221.182 41.16C220.958 41.44 220.673 41.65 220.328 41.79C219.992 41.93 219.642 42 219.278 42H213.216ZM214.448 35.756H215.946V37.24H214.448V35.756ZM216.996 35.756H218.494V37.24H216.996V35.756ZM223 40.488H223.91C224.321 40.488 224.61 40.404 224.778 40.236C224.955 40.0587 225.044 39.774 225.044 39.382V37.562H226.374V39.508C226.374 39.8533 226.458 40.1007 226.626 40.25C226.794 40.3993 227.055 40.4787 227.41 40.488C227.811 40.4787 228.101 40.3853 228.278 40.208C228.455 40.0307 228.544 39.7507 228.544 39.368V37.562H229.86V39.508C229.86 39.8533 229.944 40.1007 230.112 40.25C230.28 40.3993 230.537 40.4787 230.882 40.488C231.255 40.4787 231.531 40.3853 231.708 40.208C231.895 40.0307 231.974 39.7927 231.946 39.494C231.899 39.0087 231.759 38.1873 231.526 37.03L232.786 36.708C232.907 37.1933 233.015 37.7207 233.108 38.29C233.211 38.85 233.262 39.2933 233.262 39.62C233.262 40.0213 233.173 40.404 232.996 40.768C232.819 41.132 232.548 41.4307 232.184 41.664C231.829 41.888 231.395 42 230.882 42C230.565 42 230.252 41.93 229.944 41.79C229.636 41.6407 229.375 41.4213 229.16 41.132C228.703 41.7107 228.11 42 227.382 42C227.065 42 226.743 41.9207 226.416 41.762C226.089 41.594 225.833 41.384 225.646 41.132C225.441 41.412 225.184 41.6267 224.876 41.776C224.577 41.9253 224.246 42 223.882 42H223V40.488ZM234.89 32.83H236.206L236.22 42H234.904L234.89 32.83ZM239.357 44.058C239.991 44.058 240.477 43.988 240.813 43.848C241.158 43.708 241.396 43.4887 241.527 43.19C241.657 42.9007 241.723 42.504 241.723 42H240.295C239.483 42 238.829 41.7573 238.335 41.272C237.84 40.7867 237.593 40.11 237.593 39.242C237.593 38.6447 237.705 38.1033 237.929 37.618C238.162 37.1327 238.479 36.7547 238.881 36.484C239.291 36.204 239.758 36.064 240.281 36.064C240.841 36.064 241.326 36.1993 241.737 36.47C242.157 36.7313 242.479 37.1047 242.703 37.59C242.936 38.066 243.053 38.6167 243.053 39.242V40.488H243.823L243.921 41.258L243.823 42H243.053C243.053 43.092 242.759 43.96 242.171 44.604C241.583 45.248 240.645 45.57 239.357 45.57H237.803V44.058H239.357ZM238.895 39.214C238.895 39.6807 239.007 40.0167 239.231 40.222C239.455 40.418 239.809 40.516 240.295 40.516H241.723V39.228C241.723 38.696 241.606 38.2807 241.373 37.982C241.139 37.6833 240.775 37.534 240.281 37.534C239.833 37.534 239.487 37.688 239.245 37.996C239.011 38.2947 238.895 38.7007 238.895 39.214ZM243.35 40.488H245.072C245.977 40.488 246.799 40.348 247.536 40.068C248.273 39.788 249.137 39.3587 250.126 38.78C248.082 37.968 246.873 37.562 246.5 37.562C246.248 37.562 246.047 37.6227 245.898 37.744C245.758 37.8653 245.623 38.0987 245.492 38.444L244.26 38.052C244.484 37.3707 244.787 36.8713 245.17 36.554C245.562 36.2273 246.005 36.064 246.5 36.064C246.845 36.064 247.382 36.1993 248.11 36.47C248.838 36.7313 249.865 37.1373 251.19 37.688L251.456 37.8L251.736 39.41L251.232 39.718C250.373 40.25 249.664 40.6653 249.104 40.964C248.553 41.2627 247.937 41.51 247.256 41.706C246.584 41.902 245.856 42 245.072 42H243.35V40.488ZM245.912 33.222H247.466V34.762H245.912V33.222ZM255.447 37.562V41.51C255.447 42.798 255.12 43.7873 254.467 44.478C253.813 45.178 252.871 45.528 251.639 45.528H250.757V44.016H251.639C252.245 44.016 252.731 43.932 253.095 43.764C253.459 43.6053 253.72 43.344 253.879 42.98C254.047 42.6253 254.131 42.1353 254.131 41.51V37.562H255.447ZM261.83 38.234C262.147 38.7193 262.306 39.2467 262.306 39.816C262.306 40.264 262.198 40.6467 261.984 40.964C261.713 41.356 261.382 41.6267 260.99 41.776C260.598 41.9253 260.154 42 259.66 42H258.918C258.386 42 257.91 41.9207 257.49 41.762C257.07 41.6033 256.729 41.4213 256.468 41.216L257.126 39.97C257.35 40.11 257.592 40.2313 257.854 40.334C258.124 40.4367 258.479 40.488 258.918 40.488H259.646C259.982 40.488 260.248 40.46 260.444 40.404C260.649 40.3387 260.803 40.2267 260.906 40.068C260.971 39.9747 261.004 39.8673 261.004 39.746C261.004 39.55 260.91 39.3073 260.724 39.018L260.5 38.668C259.613 37.3053 258.974 36.3393 258.582 35.77L259.702 34.93L261.83 38.234Z" fill="#CCCCCC"/>
<path d="M158.397 76C157.405 76 156.541 75.784 155.805 75.352C155.069 74.904 154.501 74.312 154.101 73.576C153.717 72.84 153.525 72.04 153.525 71.176C153.525 70.792 153.557 70.44 153.621 70.12C153.701 69.672 153.805 69.136 153.933 68.512C154.061 67.888 154.181 67.344 154.293 66.88L157.101 67.576L156.933 68.344C156.613 69.592 156.453 70.456 156.453 70.936C156.453 71.432 156.621 71.824 156.957 72.112C157.293 72.4 157.773 72.544 158.397 72.544H168.837C169.493 72.544 169.957 72.456 170.229 72.28C170.501 72.088 170.637 71.768 170.637 71.32V67.96H173.709V71.44C173.709 71.856 173.813 72.144 174.021 72.304C174.245 72.464 174.597 72.544 175.077 72.544H175.797L175.941 74.32L175.797 76H175.077C174.565 76 174.037 75.904 173.493 75.712C172.965 75.504 172.493 75.192 172.077 74.776C171.709 75.192 171.245 75.504 170.685 75.712C170.125 75.904 169.509 76 168.837 76H158.397ZM160.317 64.456H163.173V67.336H160.317V64.456ZM164.829 64.456H167.685V67.336H164.829V64.456ZM175.068 72.544H176.82C177.38 72.544 177.78 72.432 178.02 72.208C178.276 71.968 178.404 71.592 178.404 71.08V67.96H181.452V71.152C181.452 71.632 181.58 71.984 181.836 72.208C182.108 72.432 182.476 72.544 182.94 72.544C183.98 72.544 184.5 72.04 184.5 71.032V67.96H187.548L187.524 71.152C187.524 72.08 188.004 72.544 188.964 72.544C189.46 72.544 189.852 72.408 190.14 72.136C190.444 71.864 190.564 71.504 190.5 71.056C190.276 69.6 190.044 68.288 189.804 67.12L192.684 66.4C193.228 68.752 193.5 70.424 193.5 71.416C193.5 72.216 193.34 72.968 193.02 73.672C192.7 74.36 192.204 74.92 191.532 75.352C190.86 75.784 190.004 76 188.964 76C188.356 76 187.796 75.88 187.284 75.64C186.772 75.384 186.34 75.048 185.988 74.632C185.62 75.048 185.164 75.384 184.62 75.64C184.092 75.88 183.5 76 182.844 76C182.3 76 181.724 75.864 181.116 75.592C180.524 75.32 180.092 75 179.82 74.632C179.532 75.032 179.108 75.36 178.548 75.616C178.004 75.872 177.388 76 176.7 76H175.068V72.544ZM196.104 59.968H199.152V76H196.104V59.968ZM204.733 78.76C205.725 78.76 206.477 78.672 206.989 78.496C207.501 78.336 207.853 78.056 208.045 77.656C208.253 77.272 208.373 76.72 208.405 76H206.341C204.821 76 203.613 75.56 202.717 74.68C201.837 73.784 201.397 72.536 201.397 70.936C201.397 69.8 201.605 68.792 202.021 67.912C202.453 67.032 203.037 66.352 203.773 65.872C204.525 65.376 205.373 65.128 206.317 65.128C207.341 65.128 208.237 65.368 209.005 65.848C209.789 66.328 210.389 67.008 210.805 67.888C211.237 68.768 211.453 69.784 211.453 70.936V72.544H212.773L212.965 74.296L212.773 76H211.453C211.389 77.872 210.813 79.376 209.725 80.512C208.637 81.648 206.973 82.216 204.733 82.216H201.877V78.76H204.733ZM204.325 70.768C204.325 71.424 204.485 71.912 204.805 72.232C205.125 72.536 205.637 72.688 206.341 72.688H208.405V70.864C208.405 69.2 207.709 68.368 206.317 68.368C205.661 68.368 205.165 68.592 204.829 69.04C204.493 69.488 204.325 70.064 204.325 70.768ZM211.946 72.544H214.826C216.33 72.544 217.746 72.352 219.074 71.968C220.402 71.584 221.77 71.016 223.178 70.264C219.802 69.096 217.834 68.512 217.274 68.512C216.938 68.512 216.658 68.616 216.434 68.824C216.21 69.016 216.01 69.352 215.834 69.832L213.146 68.968C213.514 67.72 214.058 66.768 214.778 66.112C215.498 65.456 216.33 65.128 217.274 65.128C217.93 65.128 218.962 65.376 220.37 65.872C221.794 66.368 223.666 67.096 225.986 68.056L226.442 71.824C224.938 72.768 223.634 73.52 222.53 74.08C221.426 74.64 220.234 75.104 218.954 75.472C217.674 75.824 216.298 76 214.826 76H211.946V72.544ZM215.93 59.92H219.122V63.04H215.93V59.92ZM233.208 67.96V74.728C233.208 77.032 232.608 78.824 231.408 80.104C230.208 81.4 228.496 82.048 226.272 82.048H224.76V78.592H226.272C227.28 78.592 228.056 78.472 228.6 78.232C229.16 78.008 229.552 77.616 229.776 77.056C230.016 76.512 230.136 75.736 230.136 74.728V67.96H233.208ZM242.031 64.912C243.823 67.696 244.671 69.016 244.575 68.872C245.199 69.88 245.511 70.88 245.511 71.872C245.511 72.736 245.287 73.48 244.839 74.104C244.359 74.792 243.767 75.28 243.063 75.568C242.375 75.856 241.551 76 240.591 76H239.319C238.311 76 237.423 75.84 236.655 75.52C235.887 75.184 235.287 74.824 234.855 74.44L236.295 71.68C236.599 71.872 236.999 72.064 237.495 72.256C238.007 72.448 238.623 72.544 239.343 72.544H240.519C241.063 72.544 241.471 72.512 241.743 72.448C242.015 72.368 242.215 72.232 242.343 72.04C242.423 71.912 242.463 71.784 242.463 71.656C242.463 71.4 242.319 71.048 242.031 70.6C241.023 69.064 239.799 67.24 238.359 65.128L240.927 63.208L242.031 64.912ZM254.16 59.824C254.624 61.072 254.984 62.336 255.24 63.616C255.416 64.128 255.664 64.488 255.984 64.696C256.32 64.904 256.744 65.008 257.256 65.008C257.704 65.008 258.056 64.896 258.312 64.672C258.584 64.432 258.72 64.08 258.72 63.616C258.72 63.456 258.712 63.328 258.696 63.232L258.264 60.352L261.288 59.848L261.744 62.872C261.792 63.16 261.816 63.432 261.816 63.688C261.816 64.616 261.6 65.448 261.168 66.184C260.736 66.904 260.168 67.464 259.464 67.864C258.76 68.264 258.024 68.464 257.256 68.464C256.68 68.464 256.176 68.384 255.744 68.224C255.76 68.576 255.768 69.112 255.768 69.832V71.44L255.72 76H252.648L252.696 71.44L252.72 69.664C252.72 68.048 252.624 66.6 252.432 65.32C252.24 64.024 251.856 62.576 251.28 60.976L254.16 59.824Z" fill="#353535"/>
<path d="M302.333 62.9333L295.733 56.3333" stroke="#3C50E0" stroke-width="1.5" stroke-miterlimit="10" stroke-linecap="round" stroke-linejoin="round"/>
<path d="M302.267 56.4L295.667 63" stroke="#3C50E0" stroke-width="1.5" stroke-miterlimit="10" stroke-linecap="round" stroke-linejoin="round"/>
<path d="M295.666 46H302.333C305.666 46 305.666 44.3333 305.666 42.6667C305.666 39.3333 304 39.3333 302.333 39.3333H295.666C294 39.3333 292.333 39.3333 292.333 42.6667C292.333 46 294 46 295.666 46Z" stroke="#3C50E0" stroke-width="1.5" stroke-miterlimit="10" stroke-linecap="round" stroke-linejoin="round"/>
<path d="M305.667 42.7C311.217 43 314 45.05 314 52.6667V62.6667C314 69.3333 312.333 72.6667 304 72.6667H294C285.667 72.6667 284 69.3333 284 62.6667V52.6667C284 45.0667 286.783 43 292.333 42.7" stroke="#3C50E0" stroke-width="1.5" stroke-miterlimit="10" stroke-linecap="round" stroke-linejoin="round"/>
</g>
<g filter="url(#filter1_d_147_1663)">
<rect x="367" y="8" width="328" height="97" rx="16" fill="white"/>
<rect x="367.5" y="8.5" width="327" height="96" rx="15.5" stroke="#6681A9" stroke-opacity="0.1"/>
<path d="M508.21 38.206C507.949 38.8127 507.743 39.354 507.594 39.83C507.445 40.2967 507.37 40.824 507.37 41.412C507.37 42.0373 507.445 42.5367 507.594 42.91C507.753 43.2927 508.009 43.5727 508.364 43.75C508.728 43.9367 509.227 44.03 509.862 44.03H511.332C511.967 44.03 512.452 43.96 512.788 43.82C513.133 43.68 513.367 43.4653 513.488 43.176C513.619 42.896 513.684 42.504 513.684 42H512.27C511.449 42 510.791 41.7573 510.296 41.272C509.801 40.7867 509.554 40.11 509.554 39.242C509.554 38.6447 509.666 38.1033 509.89 37.618C510.123 37.1327 510.445 36.7547 510.856 36.484C511.267 36.204 511.733 36.064 512.256 36.064C512.807 36.064 513.287 36.1993 513.698 36.47C514.118 36.7313 514.44 37.1047 514.664 37.59C514.897 38.066 515.014 38.6167 515.014 39.242V40.488H515.798L515.882 41.258L515.798 42H515.014C515.014 43.0827 514.72 43.9413 514.132 44.576C513.544 45.22 512.611 45.542 511.332 45.542H509.862C508.574 45.542 507.617 45.1873 506.992 44.478C506.376 43.7687 506.068 42.7607 506.068 41.454C506.068 40.7167 506.157 40.0493 506.334 39.452C506.521 38.8453 506.754 38.2387 507.034 37.632L508.21 38.206ZM510.1 33.404H511.584V34.888H510.1V33.404ZM510.856 39.214C510.856 39.6807 510.968 40.0167 511.192 40.222C511.416 40.418 511.775 40.516 512.27 40.516H513.684V39.228C513.684 38.696 513.567 38.2807 513.334 37.982C513.101 37.6833 512.741 37.534 512.256 37.534C511.808 37.534 511.463 37.688 511.22 37.996C510.977 38.2947 510.856 38.7007 510.856 39.214ZM512.648 33.404H514.132V34.888H512.648V33.404ZM515.381 40.488H517.635C518.345 40.488 518.853 40.4367 519.161 40.334C519.469 40.2313 519.675 40.04 519.777 39.76L518.643 39.704C517.943 39.6573 517.374 39.4147 516.935 38.976C516.497 38.5373 516.277 37.9447 516.277 37.198C516.277 36.6847 516.389 36.2227 516.613 35.812C516.837 35.392 517.136 35.0653 517.509 34.832C517.883 34.5893 518.289 34.468 518.727 34.468C519.203 34.468 519.628 34.5893 520.001 34.832C520.375 35.0653 520.664 35.392 520.869 35.812C521.084 36.2227 521.191 36.6847 521.191 37.198V38.514C521.191 39.6433 520.925 40.5067 520.393 41.104C519.861 41.7013 518.942 42 517.635 42H515.381V40.488ZM517.579 37.198C517.579 37.8513 517.957 38.1967 518.713 38.234L519.903 38.346V37.198C519.903 36.806 519.805 36.498 519.609 36.274C519.413 36.0407 519.124 35.924 518.741 35.924C518.377 35.924 518.093 36.0407 517.887 36.274C517.682 36.5073 517.579 36.8153 517.579 37.198ZM517.957 31.836H519.511V33.376H517.957V31.836ZM524.075 44.058C524.709 44.058 525.195 43.988 525.531 43.848C525.876 43.708 526.114 43.4887 526.245 43.19C526.375 42.9007 526.441 42.504 526.441 42H525.013C524.201 42 523.547 41.7573 523.053 41.272C522.558 40.7867 522.311 40.11 522.311 39.242C522.311 38.6447 522.423 38.1033 522.647 37.618C522.88 37.1327 523.197 36.7547 523.599 36.484C524.009 36.204 524.476 36.064 524.999 36.064C525.559 36.064 526.044 36.1993 526.455 36.47C526.875 36.7313 527.197 37.1047 527.421 37.59C527.654 38.066 527.771 38.6167 527.771 39.242V40.488H528.541L528.639 41.258L528.541 42H527.771C527.771 43.092 527.477 43.96 526.889 44.604C526.301 45.248 525.363 45.57 524.075 45.57H522.521V44.058H524.075ZM523.613 39.214C523.613 39.6807 523.725 40.0167 523.949 40.222C524.173 40.418 524.527 40.516 525.013 40.516H526.441V39.228C526.441 38.696 526.324 38.2807 526.091 37.982C525.857 37.6833 525.493 37.534 524.999 37.534C524.551 37.534 524.205 37.688 523.963 37.996C523.729 38.2947 523.613 38.7007 523.613 39.214ZM528.124 40.488H528.502C528.913 40.488 529.165 40.292 529.258 39.9L529.678 38.388C529.883 37.632 530.21 37.044 530.658 36.624C531.106 36.204 531.647 35.994 532.282 35.994C532.786 35.994 533.234 36.1387 533.626 36.428C534.018 36.708 534.321 37.0953 534.536 37.59C534.751 38.0847 534.858 38.626 534.858 39.214C534.858 39.9327 534.751 40.5253 534.536 40.992C534.321 41.4493 534.046 41.7807 533.71 41.986C533.383 42.1913 533.033 42.294 532.66 42.294C532.315 42.294 531.96 42.224 531.596 42.084C531.241 41.9533 530.705 41.706 529.986 41.342C529.79 41.5473 529.561 41.7107 529.3 41.832C529.039 41.944 528.777 42 528.516 42H528.124V40.488ZM530.616 40.04C531.204 40.3387 531.638 40.5393 531.918 40.642C532.198 40.7447 532.455 40.796 532.688 40.796C532.977 40.796 533.197 40.684 533.346 40.46C533.505 40.2267 533.584 39.8113 533.584 39.214C533.584 38.6633 533.467 38.2387 533.234 37.94C533.01 37.632 532.693 37.478 532.282 37.478C531.974 37.478 531.703 37.59 531.47 37.814C531.237 38.0287 531.064 38.3553 530.952 38.794L530.616 40.04ZM541.112 38.402C540.571 39.5873 540.3 40.5673 540.3 41.342C540.3 42.1633 540.496 42.812 540.888 43.288C541.29 43.7733 541.896 44.016 542.708 44.016H544.122C544.944 44.016 545.527 43.8947 545.872 43.652C546.218 43.4187 546.409 43.0267 546.446 42.476V42.378C546.446 42.3033 546.428 42.2473 546.39 42.21C546.362 42.182 546.292 42.154 546.18 42.126L543.156 41.314C543.016 40.8847 542.946 40.4367 542.946 39.97C542.946 39.4753 543.026 39.0133 543.184 38.584C543.352 38.1453 543.576 37.7627 543.856 37.436C544.22 37.0347 544.636 36.7267 545.102 36.512C545.578 36.288 546.073 36.176 546.586 36.176C546.838 36.176 547.095 36.1947 547.356 36.232C547.627 36.2693 547.856 36.316 548.042 36.372L547.734 37.786C547.361 37.6833 546.955 37.646 546.516 37.674C545.844 37.6833 545.289 37.9307 544.85 38.416C544.617 38.6587 544.449 38.9153 544.346 39.186C544.253 39.4473 544.225 39.7367 544.262 40.054L546.67 40.712C547.072 40.8333 547.356 41.0153 547.524 41.258C547.692 41.5007 547.776 41.8367 547.776 42.266C547.776 43.2927 547.459 44.0907 546.824 44.66C546.19 45.2387 545.289 45.528 544.122 45.528H542.708C541.943 45.528 541.276 45.3367 540.706 44.954C540.146 44.5807 539.717 44.072 539.418 43.428C539.129 42.7933 538.984 42.1027 538.984 41.356C538.984 40.8333 539.073 40.2593 539.25 39.634C539.428 38.9993 539.652 38.3833 539.922 37.786L541.112 38.402ZM552.256 42C551.313 42 550.646 41.7387 550.254 41.216C549.871 40.6933 549.68 39.9467 549.68 38.976L549.666 32.83H550.982L550.996 38.976C550.996 39.424 551.024 39.7507 551.08 39.956C551.136 40.152 551.248 40.292 551.416 40.376C551.584 40.4507 551.864 40.488 552.256 40.488H552.564L552.648 41.258L552.564 42H552.256ZM559.217 34.832L561.373 38.15C561.699 38.6447 561.863 39.158 561.863 39.69C561.863 40.2313 561.699 40.6933 561.373 41.076C561.093 41.412 560.691 41.6593 560.169 41.818C559.655 41.9673 558.969 42.042 558.111 42.042C557.289 42.042 556.501 41.902 555.745 41.622C554.979 41.874 554.149 42 553.253 42H552.147V40.488H553.421C553.617 40.488 553.766 40.4833 553.869 40.474C553.327 39.9327 553.057 39.312 553.057 38.612C553.057 38.0893 553.178 37.6087 553.421 37.17C553.663 36.722 553.995 36.3673 554.415 36.106C554.835 35.8447 555.297 35.714 555.801 35.714C556.286 35.714 556.734 35.8447 557.145 36.106C557.565 36.358 557.896 36.708 558.139 37.156C558.381 37.5947 558.503 38.0753 558.503 38.598C558.503 39.3167 558.232 39.956 557.691 40.516H557.985C559.319 40.516 560.113 40.3807 560.365 40.11C560.467 39.9887 560.519 39.8533 560.519 39.704C560.519 39.4893 560.425 39.2373 560.239 38.948L558.097 35.658L559.217 34.832ZM554.373 38.668C554.373 39.004 554.489 39.3027 554.723 39.564C554.956 39.816 555.287 40.0213 555.717 40.18C556.183 40.0213 556.543 39.816 556.795 39.564C557.047 39.3027 557.173 39.004 557.173 38.668C557.173 38.2387 557.047 37.8887 556.795 37.618C556.543 37.338 556.207 37.198 555.787 37.198C555.357 37.198 555.012 37.338 554.751 37.618C554.499 37.8887 554.373 38.2387 554.373 38.668ZM565.216 42C564.693 42 564.227 41.8833 563.816 41.65C563.415 41.4167 563.102 41.1087 562.878 40.726C562.654 40.334 562.542 39.9047 562.542 39.438C562.542 39.354 562.551 39.2187 562.57 39.032C562.617 38.668 562.766 37.954 563.018 36.89L564.236 37.212L564.138 37.66C563.951 38.4907 563.849 39.0133 563.83 39.228C563.821 39.2747 563.816 39.3353 563.816 39.41C563.816 39.746 563.937 40.012 564.18 40.208C564.423 40.3947 564.768 40.488 565.216 40.488H571.278C571.726 40.488 572.053 40.404 572.258 40.236C572.473 40.068 572.58 39.7973 572.58 39.424V37.562H573.896V39.564C573.896 39.9 573.98 40.138 574.148 40.278C574.316 40.418 574.582 40.488 574.946 40.488H575.422L575.506 41.23L575.422 42H574.946C574.647 42 574.335 41.93 574.008 41.79C573.691 41.65 573.415 41.44 573.182 41.16C572.958 41.44 572.673 41.65 572.328 41.79C571.992 41.93 571.642 42 571.278 42H565.216ZM566.448 35.756H567.946V37.24H566.448V35.756ZM568.996 35.756H570.494V37.24H568.996V35.756ZM575 40.488H575.91C576.321 40.488 576.61 40.404 576.778 40.236C576.955 40.0587 577.044 39.774 577.044 39.382V37.562H578.374V39.508C578.374 39.8533 578.458 40.1007 578.626 40.25C578.794 40.3993 579.055 40.4787 579.41 40.488C579.811 40.4787 580.101 40.3853 580.278 40.208C580.455 40.0307 580.544 39.7507 580.544 39.368V37.562H581.86V39.508C581.86 39.8533 581.944 40.1007 582.112 40.25C582.28 40.3993 582.537 40.4787 582.882 40.488C583.255 40.4787 583.531 40.3853 583.708 40.208C583.895 40.0307 583.974 39.7927 583.946 39.494C583.899 39.0087 583.759 38.1873 583.526 37.03L584.786 36.708C584.907 37.1933 585.015 37.7207 585.108 38.29C585.211 38.85 585.262 39.2933 585.262 39.62C585.262 40.0213 585.173 40.404 584.996 40.768C584.819 41.132 584.548 41.4307 584.184 41.664C583.829 41.888 583.395 42 582.882 42C582.565 42 582.252 41.93 581.944 41.79C581.636 41.6407 581.375 41.4213 581.16 41.132C580.703 41.7107 580.11 42 579.382 42C579.065 42 578.743 41.9207 578.416 41.762C578.089 41.594 577.833 41.384 577.646 41.132C577.441 41.412 577.184 41.6267 576.876 41.776C576.577 41.9253 576.246 42 575.882 42H575V40.488ZM586.89 32.83H588.206L588.22 42H586.904L586.89 32.83ZM591.357 44.058C591.991 44.058 592.477 43.988 592.813 43.848C593.158 43.708 593.396 43.4887 593.527 43.19C593.657 42.9007 593.723 42.504 593.723 42H592.295C591.483 42 590.829 41.7573 590.335 41.272C589.84 40.7867 589.593 40.11 589.593 39.242C589.593 38.6447 589.705 38.1033 589.929 37.618C590.162 37.1327 590.479 36.7547 590.881 36.484C591.291 36.204 591.758 36.064 592.281 36.064C592.841 36.064 593.326 36.1993 593.737 36.47C594.157 36.7313 594.479 37.1047 594.703 37.59C594.936 38.066 595.053 38.6167 595.053 39.242V40.488H595.823L595.921 41.258L595.823 42H595.053C595.053 43.092 594.759 43.96 594.171 44.604C593.583 45.248 592.645 45.57 591.357 45.57H589.803V44.058H591.357ZM590.895 39.214C590.895 39.6807 591.007 40.0167 591.231 40.222C591.455 40.418 591.809 40.516 592.295 40.516H593.723V39.228C593.723 38.696 593.606 38.2807 593.373 37.982C593.139 37.6833 592.775 37.534 592.281 37.534C591.833 37.534 591.487 37.688 591.245 37.996C591.011 38.2947 590.895 38.7007 590.895 39.214ZM595.35 40.488H597.072C597.977 40.488 598.799 40.348 599.536 40.068C600.273 39.788 601.137 39.3587 602.126 38.78C600.082 37.968 598.873 37.562 598.5 37.562C598.248 37.562 598.047 37.6227 597.898 37.744C597.758 37.8653 597.623 38.0987 597.492 38.444L596.26 38.052C596.484 37.3707 596.787 36.8713 597.17 36.554C597.562 36.2273 598.005 36.064 598.5 36.064C598.845 36.064 599.382 36.1993 600.11 36.47C600.838 36.7313 601.865 37.1373 603.19 37.688L603.456 37.8L603.736 39.41L603.232 39.718C602.373 40.25 601.664 40.6653 601.104 40.964C600.553 41.2627 599.937 41.51 599.256 41.706C598.584 41.902 597.856 42 597.072 42H595.35V40.488ZM597.912 33.222H599.466V34.762H597.912V33.222ZM607.447 37.562V41.51C607.447 42.798 607.12 43.7873 606.467 44.478C605.813 45.178 604.871 45.528 603.639 45.528H602.757V44.016H603.639C604.245 44.016 604.731 43.932 605.095 43.764C605.459 43.6053 605.72 43.344 605.879 42.98C606.047 42.6253 606.131 42.1353 606.131 41.51V37.562H607.447ZM613.83 38.234C614.147 38.7193 614.306 39.2467 614.306 39.816C614.306 40.264 614.198 40.6467 613.984 40.964C613.713 41.356 613.382 41.6267 612.99 41.776C612.598 41.9253 612.154 42 611.66 42H610.918C610.386 42 609.91 41.9207 609.49 41.762C609.07 41.6033 608.729 41.4213 608.468 41.216L609.126 39.97C609.35 40.11 609.592 40.2313 609.854 40.334C610.124 40.4367 610.479 40.488 610.918 40.488H611.646C611.982 40.488 612.248 40.46 612.444 40.404C612.649 40.3387 612.803 40.2267 612.906 40.068C612.971 39.9747 613.004 39.8673 613.004 39.746C613.004 39.55 612.91 39.3073 612.724 39.018L612.5 38.668C611.613 37.3053 610.974 36.3393 610.582 35.77L611.702 34.93L613.83 38.234Z" fill="#CCCCCC"/>
<path d="M503.307 76C502.315 76 501.451 75.784 500.715 75.352C499.979 74.904 499.411 74.312 499.011 73.576C498.627 72.84 498.435 72.04 498.435 71.176C498.435 70.792 498.467 70.44 498.531 70.12C498.611 69.672 498.715 69.136 498.843 68.512C498.971 67.888 499.091 67.344 499.203 66.88L502.011 67.576L501.843 68.344C501.523 69.592 501.363 70.456 501.363 70.936C501.363 71.432 501.531 71.824 501.867 72.112C502.203 72.4 502.683 72.544 503.307 72.544H513.747C514.403 72.544 514.867 72.456 515.139 72.28C515.411 72.088 515.547 71.768 515.547 71.32V67.96H518.619V71.44C518.619 71.856 518.723 72.144 518.931 72.304C519.155 72.464 519.507 72.544 519.987 72.544H520.707L520.851 74.32L520.707 76H519.987C519.475 76 518.947 75.904 518.403 75.712C517.875 75.504 517.403 75.192 516.987 74.776C516.619 75.192 516.155 75.504 515.595 75.712C515.035 75.904 514.419 76 513.747 76H503.307ZM505.227 64.456H508.083V67.336H505.227V64.456ZM509.739 64.456H512.595V67.336H509.739V64.456ZM519.978 72.544H521.73C522.29 72.544 522.69 72.432 522.93 72.208C523.186 71.968 523.314 71.592 523.314 71.08V67.96H526.362V71.152C526.362 71.632 526.49 71.984 526.746 72.208C527.018 72.432 527.386 72.544 527.85 72.544C528.89 72.544 529.41 72.04 529.41 71.032V67.96H532.458L532.434 71.152C532.434 72.08 532.914 72.544 533.874 72.544C534.37 72.544 534.762 72.408 535.05 72.136C535.354 71.864 535.474 71.504 535.41 71.056C535.186 69.6 534.954 68.288 534.714 67.12L537.594 66.4C538.138 68.752 538.41 70.424 538.41 71.416C538.41 72.216 538.25 72.968 537.93 73.672C537.61 74.36 537.114 74.92 536.442 75.352C535.77 75.784 534.914 76 533.874 76C533.266 76 532.706 75.88 532.194 75.64C531.682 75.384 531.25 75.048 530.898 74.632C530.53 75.048 530.074 75.384 529.53 75.64C529.002 75.88 528.41 76 527.754 76C527.21 76 526.634 75.864 526.026 75.592C525.434 75.32 525.002 75 524.73 74.632C524.442 75.032 524.018 75.36 523.458 75.616C522.914 75.872 522.298 76 521.61 76H519.978V72.544ZM541.013 59.968H544.061V76H541.013V59.968ZM549.643 78.76C550.635 78.76 551.387 78.672 551.899 78.496C552.411 78.336 552.763 78.056 552.955 77.656C553.163 77.272 553.283 76.72 553.315 76H551.251C549.731 76 548.523 75.56 547.627 74.68C546.747 73.784 546.307 72.536 546.307 70.936C546.307 69.8 546.515 68.792 546.931 67.912C547.363 67.032 547.947 66.352 548.683 65.872C549.435 65.376 550.283 65.128 551.227 65.128C552.251 65.128 553.147 65.368 553.915 65.848C554.699 66.328 555.299 67.008 555.715 67.888C556.147 68.768 556.363 69.784 556.363 70.936V72.544H557.683L557.875 74.296L557.683 76H556.363C556.299 77.872 555.723 79.376 554.635 80.512C553.547 81.648 551.883 82.216 549.643 82.216H546.787V78.76H549.643ZM549.235 70.768C549.235 71.424 549.395 71.912 549.715 72.232C550.035 72.536 550.547 72.688 551.251 72.688H553.315V70.864C553.315 69.2 552.619 68.368 551.227 68.368C550.571 68.368 550.075 68.592 549.739 69.04C549.403 69.488 549.235 70.064 549.235 70.768ZM556.856 72.544H559.736C561.24 72.544 562.656 72.352 563.984 71.968C565.312 71.584 566.68 71.016 568.088 70.264C564.712 69.096 562.744 68.512 562.184 68.512C561.848 68.512 561.568 68.616 561.344 68.824C561.12 69.016 560.92 69.352 560.744 69.832L558.056 68.968C558.424 67.72 558.968 66.768 559.688 66.112C560.408 65.456 561.24 65.128 562.184 65.128C562.84 65.128 563.872 65.376 565.28 65.872C566.704 66.368 568.576 67.096 570.896 68.056L571.352 71.824C569.848 72.768 568.544 73.52 567.44 74.08C566.336 74.64 565.144 75.104 563.864 75.472C562.584 75.824 561.208 76 559.736 76H556.856V72.544ZM560.84 59.92H564.032V63.04H560.84V59.92ZM578.118 67.96V74.728C578.118 77.032 577.518 78.824 576.318 80.104C575.118 81.4 573.406 82.048 571.182 82.048H569.67V78.592H571.182C572.19 78.592 572.966 78.472 573.51 78.232C574.07 78.008 574.462 77.616 574.686 77.056C574.926 76.512 575.046 75.736 575.046 74.728V67.96H578.118ZM586.941 64.912C588.733 67.696 589.581 69.016 589.485 68.872C590.109 69.88 590.421 70.88 590.421 71.872C590.421 72.736 590.197 73.48 589.749 74.104C589.269 74.792 588.677 75.28 587.973 75.568C587.285 75.856 586.461 76 585.501 76H584.229C583.221 76 582.333 75.84 581.565 75.52C580.797 75.184 580.197 74.824 579.765 74.44L581.205 71.68C581.509 71.872 581.909 72.064 582.405 72.256C582.917 72.448 583.533 72.544 584.253 72.544H585.429C585.973 72.544 586.381 72.512 586.653 72.448C586.925 72.368 587.125 72.232 587.253 72.04C587.333 71.912 587.373 71.784 587.373 71.656C587.373 71.4 587.229 71.048 586.941 70.6C585.933 69.064 584.709 67.24 583.269 65.128L585.837 63.208L586.941 64.912ZM599.142 59.824C599.798 61.664 600.23 63.344 600.438 64.864C600.646 66.384 600.75 68.056 600.75 69.88V71.44L600.702 76H597.63L597.678 71.44L597.702 69.664C597.702 68.048 597.606 66.6 597.414 65.32C597.222 64.024 596.838 62.576 596.262 60.976L599.142 59.824ZM614.049 66.568C613.009 67.288 612.145 67.968 611.457 68.608C610.785 69.232 610.209 69.848 609.729 70.456C609.249 71.064 608.641 71.896 607.905 72.952L607.305 73.792L605.265 76.696L602.769 74.944L604.785 72.064C604.945 71.84 605.057 71.672 605.121 71.56C605.745 70.68 606.305 69.904 606.801 69.232C605.569 69.056 604.601 68.52 603.897 67.624C603.513 67.16 603.225 66.656 603.033 66.112C602.841 65.552 602.745 64.984 602.745 64.408C602.745 63.688 602.897 63 603.201 62.344C603.505 61.672 603.945 61.104 604.521 60.64C604.985 60.288 605.425 60.024 605.841 59.848C606.257 59.672 606.665 59.552 607.065 59.488C607.481 59.424 608.137 59.336 609.033 59.224L609.537 62.08C608.609 62.224 607.945 62.36 607.545 62.488C607.161 62.616 606.801 62.832 606.465 63.136C606.225 63.328 606.041 63.56 605.913 63.832C605.785 64.104 605.721 64.384 605.721 64.672C605.721 65.104 605.857 65.488 606.129 65.824C606.513 66.288 607.001 66.52 607.593 66.52C608.473 66.52 609.601 66.008 610.977 64.984C611.377 64.68 611.841 64.336 612.369 63.952L614.049 66.568Z" fill="#353535"/>
<path d="M646.517 60.5L649.017 63L655.683 56.3333" stroke="#3C50E0" stroke-width="1.5" stroke-linecap="round" stroke-linejoin="round"/>
<path d="M647.666 46H654.333C657.666 46 657.666 44.3333 657.666 42.6667C657.666 39.3333 656 39.3333 654.333 39.3333H647.666C646 39.3333 644.333 39.3333 644.333 42.6667C644.333 46 646 46 647.666 46Z" stroke="#3C50E0" stroke-width="1.5" stroke-miterlimit="10" stroke-linecap="round" stroke-linejoin="round"/>
<path d="M657.667 42.7C663.217 43 666 45.05 666 52.6667V62.6667C666 69.3333 664.333 72.6667 656 72.6667H646C637.667 72.6667 636 69.3333 636 62.6667V52.6667C636 45.0667 638.783 43 644.333 42.7" stroke="#3C50E0" stroke-width="1.5" stroke-miterlimit="10" stroke-linecap="round" stroke-linejoin="round"/>
</g>
<g filter="url(#filter2_d_147_1663)">
<rect x="719" y="8" width="328" height="97" rx="16" fill="white"/>
<rect x="719.5" y="8.5" width="327" height="96" rx="15.5" stroke="#6681A9" stroke-opacity="0.1"/>
<path d="M826.023 35.476C826.629 36.1387 827.091 36.666 827.409 37.058C827.726 37.4407 827.978 37.828 828.165 38.22C828.351 38.612 828.445 39.0133 828.445 39.424C828.445 39.9187 828.314 40.3713 828.053 40.782C827.791 41.1927 827.441 41.5193 827.003 41.762C826.564 41.9953 826.088 42.112 825.575 42.112C825.061 42.112 824.581 41.9953 824.133 41.762C823.694 41.5193 823.344 41.1927 823.083 40.782C822.821 40.3713 822.691 39.9187 822.691 39.424C822.691 38.9947 822.775 38.5887 822.943 38.206C823.12 37.814 823.335 37.4547 823.587 37.128C823.848 36.8013 824.193 36.414 824.623 35.966L824.231 35.532L825.197 34.566L826.023 35.476ZM824.007 39.368C824.007 39.7227 824.147 40.0213 824.427 40.264C824.707 40.4973 825.089 40.614 825.575 40.614C826.051 40.614 826.429 40.4973 826.709 40.264C826.989 40.0213 827.129 39.7227 827.129 39.368C827.129 39.088 827.012 38.7847 826.779 38.458C826.555 38.1313 826.149 37.6413 825.561 36.988C824.982 37.604 824.576 38.0707 824.343 38.388C824.119 38.7053 824.007 39.032 824.007 39.368ZM835.021 38.136L835.147 38.416C835.502 39.1907 835.81 39.732 836.071 40.04C836.342 40.3387 836.673 40.488 837.065 40.488H837.303L837.373 41.286L837.303 42H837.065C836.654 42 836.286 41.9113 835.959 41.734C835.632 41.5567 835.329 41.2953 835.049 40.95C834.526 41.65 833.742 42 832.697 42H831.983C831.087 42 830.28 41.7293 829.561 41.188L830.219 39.942C830.238 39.9513 830.331 40.0073 830.499 40.11C830.676 40.2127 830.896 40.3013 831.157 40.376C831.428 40.4507 831.703 40.488 831.983 40.488H832.697C833.024 40.488 833.29 40.4553 833.495 40.39C833.71 40.3247 833.878 40.208 833.999 40.04C834.074 39.9373 834.111 39.8207 834.111 39.69C834.111 39.4847 834.013 39.1813 833.817 38.78L832.333 35.56L833.537 34.916L835.021 38.136ZM836.878 40.488H837.788C838.199 40.488 838.488 40.404 838.656 40.236C838.834 40.0587 838.922 39.774 838.922 39.382V37.562H840.252V39.508C840.252 39.8533 840.336 40.1007 840.504 40.25C840.672 40.3993 840.934 40.4787 841.288 40.488C841.69 40.4787 841.979 40.3853 842.156 40.208C842.334 40.0307 842.422 39.7507 842.422 39.368V37.562H843.738V39.508C843.738 39.8533 843.822 40.1007 843.99 40.25C844.158 40.3993 844.415 40.4787 844.76 40.488C845.134 40.4787 845.409 40.3853 845.586 40.208C845.773 40.0307 845.852 39.7927 845.824 39.494C845.778 39.0087 845.638 38.1873 845.404 37.03L846.664 36.708C846.786 37.1933 846.893 37.7207 846.986 38.29C847.089 38.85 847.14 39.2933 847.14 39.62C847.14 40.0213 847.052 40.404 846.874 40.768C846.697 41.132 846.426 41.4307 846.062 41.664C845.708 41.888 845.274 42 844.76 42C844.443 42 844.13 41.93 843.822 41.79C843.514 41.6407 843.253 41.4213 843.038 41.132C842.581 41.7107 841.988 42 841.26 42C840.943 42 840.621 41.9207 840.294 41.762C839.968 41.594 839.711 41.384 839.524 41.132C839.319 41.412 839.062 41.6267 838.754 41.776C838.456 41.9253 838.124 42 837.76 42H836.878V40.488ZM841.078 34.286H842.562V35.77H841.078V34.286ZM842.422 32.41H843.836V33.824H842.422V32.41ZM843.682 34.286H845.166V35.77H843.682V34.286ZM856.895 39.074C857.026 39.5967 857.269 39.9653 857.623 40.18C857.978 40.3853 858.412 40.488 858.925 40.488H859.205L859.289 41.23L859.205 42H858.925C858.347 42 857.782 41.8693 857.231 41.608C856.69 41.3373 856.261 40.908 855.943 40.32C855.691 40.684 855.383 40.964 855.019 41.16C854.655 41.3467 854.273 41.44 853.871 41.44C853.414 41.44 852.966 41.314 852.527 41.062C852.107 40.8287 851.781 40.4973 851.547 40.068C851.323 39.6387 851.211 39.1767 851.211 38.682C851.211 38.178 851.328 37.7253 851.561 37.324C851.72 37.0627 851.893 36.8433 852.079 36.666C852.266 36.4887 852.555 36.2927 852.947 36.078C853.339 35.8633 853.899 35.602 854.627 35.294L854.459 34.58L855.747 34.244L856.895 39.074ZM852.709 38.108C852.579 38.3227 852.513 38.5327 852.513 38.738C852.513 38.9433 852.569 39.1393 852.681 39.326C852.793 39.5127 852.943 39.6667 853.129 39.788C853.344 39.9187 853.573 39.984 853.815 39.984C854.039 39.984 854.259 39.9327 854.473 39.83C854.688 39.7273 854.875 39.5827 855.033 39.396C855.136 39.2747 855.211 39.1487 855.257 39.018C855.304 38.878 855.327 38.71 855.327 38.514C855.327 38.4487 855.318 38.3227 855.299 38.136L855.173 37.59L854.949 36.708C854.231 36.9693 853.708 37.212 853.381 37.436C853.055 37.66 852.831 37.884 852.709 38.108ZM862.932 37.562V39.564C862.932 39.9 863.016 40.138 863.184 40.278C863.352 40.418 863.614 40.488 863.968 40.488H864.696L864.78 41.286L864.696 42H863.968C863.67 42 863.357 41.9347 863.03 41.804C862.713 41.664 862.438 41.4587 862.204 41.188C861.98 41.4587 861.696 41.664 861.35 41.804C861.014 41.9347 860.669 42 860.314 42H858.788V40.488H860.314C860.762 40.488 861.089 40.404 861.294 40.236C861.5 40.068 861.602 39.7973 861.602 39.424V37.562H862.932ZM859.376 34.468H860.86V35.966H859.376V34.468ZM861.924 34.468H863.408V35.966H861.924V34.468ZM864.222 40.488H865.944C866.849 40.488 867.67 40.348 868.408 40.068C869.145 39.788 870.008 39.3587 870.998 38.78C868.954 37.968 867.745 37.562 867.372 37.562C867.12 37.562 866.919 37.6227 866.77 37.744C866.63 37.8653 866.494 38.0987 866.364 38.444L865.132 38.052C865.356 37.3707 865.659 36.8713 866.042 36.554C866.434 36.2273 866.877 36.064 867.372 36.064C867.717 36.064 868.254 36.1993 868.982 36.47C869.71 36.7313 870.736 37.1373 872.062 37.688L872.328 37.8L872.608 39.41L872.104 39.718C871.245 40.25 870.536 40.6653 869.976 40.964C869.425 41.2627 868.809 41.51 868.128 41.706C867.456 41.902 866.728 42 865.944 42H864.222V40.488ZM866.784 33.222H868.338V34.762H866.784V33.222ZM876.761 42C875.818 42 875.151 41.7387 874.759 41.216C874.376 40.6933 874.185 39.9467 874.185 38.976L874.171 32.83H875.487L875.501 38.976C875.501 39.424 875.529 39.7507 875.585 39.956C875.641 40.152 875.753 40.292 875.921 40.376C876.089 40.4507 876.369 40.488 876.761 40.488H877.069L877.153 41.258L877.069 42H876.761ZM876.651 40.488H877.561C877.972 40.488 878.261 40.404 878.429 40.236C878.607 40.0587 878.695 39.774 878.695 39.382V37.562H880.025V39.508C880.025 39.8533 880.109 40.1007 880.277 40.25C880.445 40.3993 880.707 40.4787 881.061 40.488C881.463 40.4787 881.752 40.3853 881.929 40.208C882.107 40.0307 882.195 39.7507 882.195 39.368V37.562H883.511V39.508C883.511 39.8533 883.595 40.1007 883.763 40.25C883.931 40.3993 884.188 40.4787 884.533 40.488C884.907 40.4787 885.182 40.3853 885.359 40.208C885.546 40.0307 885.625 39.7927 885.597 39.494C885.551 39.0087 885.411 38.1873 885.177 37.03L886.437 36.708C886.559 37.1933 886.666 37.7207 886.759 38.29C886.862 38.85 886.913 39.2933 886.913 39.62C886.913 40.0213 886.825 40.404 886.647 40.768C886.47 41.132 886.199 41.4307 885.835 41.664C885.481 41.888 885.047 42 884.533 42C884.216 42 883.903 41.93 883.595 41.79C883.287 41.6407 883.026 41.4213 882.811 41.132C882.354 41.7107 881.761 42 881.033 42C880.716 42 880.394 41.9207 880.067 41.762C879.741 41.594 879.484 41.384 879.297 41.132C879.092 41.412 878.835 41.6267 878.527 41.776C878.229 41.9253 877.897 42 877.533 42H876.651V40.488ZM893.112 38.402C892.571 39.5873 892.3 40.5673 892.3 41.342C892.3 42.1633 892.496 42.812 892.888 43.288C893.29 43.7733 893.896 44.016 894.708 44.016H896.122C896.944 44.016 897.527 43.8947 897.872 43.652C898.218 43.4187 898.409 43.0267 898.446 42.476V42.378C898.446 42.3033 898.428 42.2473 898.39 42.21C898.362 42.182 898.292 42.154 898.18 42.126L895.156 41.314C895.016 40.8847 894.946 40.4367 894.946 39.97C894.946 39.4753 895.026 39.0133 895.184 38.584C895.352 38.1453 895.576 37.7627 895.856 37.436C896.22 37.0347 896.636 36.7267 897.102 36.512C897.578 36.288 898.073 36.176 898.586 36.176C898.838 36.176 899.095 36.1947 899.356 36.232C899.627 36.2693 899.856 36.316 900.042 36.372L899.734 37.786C899.361 37.6833 898.955 37.646 898.516 37.674C897.844 37.6833 897.289 37.9307 896.85 38.416C896.617 38.6587 896.449 38.9153 896.346 39.186C896.253 39.4473 896.225 39.7367 896.262 40.054L898.67 40.712C899.072 40.8333 899.356 41.0153 899.524 41.258C899.692 41.5007 899.776 41.8367 899.776 42.266C899.776 43.2927 899.459 44.0907 898.824 44.66C898.19 45.2387 897.289 45.528 896.122 45.528H894.708C893.943 45.528 893.276 45.3367 892.706 44.954C892.146 44.5807 891.717 44.072 891.418 43.428C891.129 42.7933 890.984 42.1027 890.984 41.356C890.984 40.8333 891.073 40.2593 891.25 39.634C891.428 38.9993 891.652 38.3833 891.922 37.786L893.112 38.402ZM904.256 42C903.313 42 902.646 41.7387 902.254 41.216C901.871 40.6933 901.68 39.9467 901.68 38.976L901.666 32.83H902.982L902.996 38.976C902.996 39.424 903.024 39.7507 903.08 39.956C903.136 40.152 903.248 40.292 903.416 40.376C903.584 40.4507 903.864 40.488 904.256 40.488H904.564L904.648 41.258L904.564 42H904.256ZM911.217 34.832L913.373 38.15C913.699 38.6447 913.863 39.158 913.863 39.69C913.863 40.2313 913.699 40.6933 913.373 41.076C913.093 41.412 912.691 41.6593 912.169 41.818C911.655 41.9673 910.969 42.042 910.111 42.042C909.289 42.042 908.501 41.902 907.745 41.622C906.979 41.874 906.149 42 905.253 42H904.147V40.488H905.421C905.617 40.488 905.766 40.4833 905.869 40.474C905.327 39.9327 905.057 39.312 905.057 38.612C905.057 38.0893 905.178 37.6087 905.421 37.17C905.663 36.722 905.995 36.3673 906.415 36.106C906.835 35.8447 907.297 35.714 907.801 35.714C908.286 35.714 908.734 35.8447 909.145 36.106C909.565 36.358 909.896 36.708 910.139 37.156C910.381 37.5947 910.503 38.0753 910.503 38.598C910.503 39.3167 910.232 39.956 909.691 40.516H909.985C911.319 40.516 912.113 40.3807 912.365 40.11C912.467 39.9887 912.519 39.8533 912.519 39.704C912.519 39.4893 912.425 39.2373 912.239 38.948L910.097 35.658L911.217 34.832ZM906.373 38.668C906.373 39.004 906.489 39.3027 906.723 39.564C906.956 39.816 907.287 40.0213 907.717 40.18C908.183 40.0213 908.543 39.816 908.795 39.564C909.047 39.3027 909.173 39.004 909.173 38.668C909.173 38.2387 909.047 37.8887 908.795 37.618C908.543 37.338 908.207 37.198 907.787 37.198C907.357 37.198 907.012 37.338 906.751 37.618C906.499 37.8887 906.373 38.2387 906.373 38.668ZM917.216 42C916.693 42 916.227 41.8833 915.816 41.65C915.415 41.4167 915.102 41.1087 914.878 40.726C914.654 40.334 914.542 39.9047 914.542 39.438C914.542 39.354 914.551 39.2187 914.57 39.032C914.617 38.668 914.766 37.954 915.018 36.89L916.236 37.212L916.138 37.66C915.951 38.4907 915.849 39.0133 915.83 39.228C915.821 39.2747 915.816 39.3353 915.816 39.41C915.816 39.746 915.937 40.012 916.18 40.208C916.423 40.3947 916.768 40.488 917.216 40.488H923.278C923.726 40.488 924.053 40.404 924.258 40.236C924.473 40.068 924.58 39.7973 924.58 39.424V37.562H925.896V39.564C925.896 39.9 925.98 40.138 926.148 40.278C926.316 40.418 926.582 40.488 926.946 40.488H927.422L927.506 41.23L927.422 42H926.946C926.647 42 926.335 41.93 926.008 41.79C925.691 41.65 925.415 41.44 925.182 41.16C924.958 41.44 924.673 41.65 924.328 41.79C923.992 41.93 923.642 42 923.278 42H917.216ZM918.448 35.756H919.946V37.24H918.448V35.756ZM920.996 35.756H922.494V37.24H920.996V35.756ZM927 40.488H927.91C928.321 40.488 928.61 40.404 928.778 40.236C928.955 40.0587 929.044 39.774 929.044 39.382V37.562H930.374V39.508C930.374 39.8533 930.458 40.1007 930.626 40.25C930.794 40.3993 931.055 40.4787 931.41 40.488C931.811 40.4787 932.101 40.3853 932.278 40.208C932.455 40.0307 932.544 39.7507 932.544 39.368V37.562H933.86V39.508C933.86 39.8533 933.944 40.1007 934.112 40.25C934.28 40.3993 934.537 40.4787 934.882 40.488C935.255 40.4787 935.531 40.3853 935.708 40.208C935.895 40.0307 935.974 39.7927 935.946 39.494C935.899 39.0087 935.759 38.1873 935.526 37.03L936.786 36.708C936.907 37.1933 937.015 37.7207 937.108 38.29C937.211 38.85 937.262 39.2933 937.262 39.62C937.262 40.0213 937.173 40.404 936.996 40.768C936.819 41.132 936.548 41.4307 936.184 41.664C935.829 41.888 935.395 42 934.882 42C934.565 42 934.252 41.93 933.944 41.79C933.636 41.6407 933.375 41.4213 933.16 41.132C932.703 41.7107 932.11 42 931.382 42C931.065 42 930.743 41.9207 930.416 41.762C930.089 41.594 929.833 41.384 929.646 41.132C929.441 41.412 929.184 41.6267 928.876 41.776C928.577 41.9253 928.246 42 927.882 42H927V40.488ZM938.89 32.83H940.206L940.22 42H938.904L938.89 32.83ZM943.357 44.058C943.991 44.058 944.477 43.988 944.813 43.848C945.158 43.708 945.396 43.4887 945.527 43.19C945.657 42.9007 945.723 42.504 945.723 42H944.295C943.483 42 942.829 41.7573 942.335 41.272C941.84 40.7867 941.593 40.11 941.593 39.242C941.593 38.6447 941.705 38.1033 941.929 37.618C942.162 37.1327 942.479 36.7547 942.881 36.484C943.291 36.204 943.758 36.064 944.281 36.064C944.841 36.064 945.326 36.1993 945.737 36.47C946.157 36.7313 946.479 37.1047 946.703 37.59C946.936 38.066 947.053 38.6167 947.053 39.242V40.488H947.823L947.921 41.258L947.823 42H947.053C947.053 43.092 946.759 43.96 946.171 44.604C945.583 45.248 944.645 45.57 943.357 45.57H941.803V44.058H943.357ZM942.895 39.214C942.895 39.6807 943.007 40.0167 943.231 40.222C943.455 40.418 943.809 40.516 944.295 40.516H945.723V39.228C945.723 38.696 945.606 38.2807 945.373 37.982C945.139 37.6833 944.775 37.534 944.281 37.534C943.833 37.534 943.487 37.688 943.245 37.996C943.011 38.2947 942.895 38.7007 942.895 39.214ZM947.35 40.488H949.072C949.977 40.488 950.799 40.348 951.536 40.068C952.273 39.788 953.137 39.3587 954.126 38.78C952.082 37.968 950.873 37.562 950.5 37.562C950.248 37.562 950.047 37.6227 949.898 37.744C949.758 37.8653 949.623 38.0987 949.492 38.444L948.26 38.052C948.484 37.3707 948.787 36.8713 949.17 36.554C949.562 36.2273 950.005 36.064 950.5 36.064C950.845 36.064 951.382 36.1993 952.11 36.47C952.838 36.7313 953.865 37.1373 955.19 37.688L955.456 37.8L955.736 39.41L955.232 39.718C954.373 40.25 953.664 40.6653 953.104 40.964C952.553 41.2627 951.937 41.51 951.256 41.706C950.584 41.902 949.856 42 949.072 42H947.35V40.488ZM949.912 33.222H951.466V34.762H949.912V33.222ZM959.447 37.562V41.51C959.447 42.798 959.12 43.7873 958.467 44.478C957.813 45.178 956.871 45.528 955.639 45.528H954.757V44.016H955.639C956.245 44.016 956.731 43.932 957.095 43.764C957.459 43.6053 957.72 43.344 957.879 42.98C958.047 42.6253 958.131 42.1353 958.131 41.51V37.562H959.447ZM965.83 38.234C966.147 38.7193 966.306 39.2467 966.306 39.816C966.306 40.264 966.198 40.6467 965.984 40.964C965.713 41.356 965.382 41.6267 964.99 41.776C964.598 41.9253 964.154 42 963.66 42H962.918C962.386 42 961.91 41.9207 961.49 41.762C961.07 41.6033 960.729 41.4213 960.468 41.216L961.126 39.97C961.35 40.11 961.592 40.2313 961.854 40.334C962.124 40.4367 962.479 40.488 962.918 40.488H963.646C963.982 40.488 964.248 40.46 964.444 40.404C964.649 40.3387 964.803 40.2267 964.906 40.068C964.971 39.9747 965.004 39.8673 965.004 39.746C965.004 39.55 964.91 39.3073 964.724 39.018L964.5 38.668C963.613 37.3053 962.974 36.3393 962.582 35.77L963.702 34.93L965.83 38.234Z" fill="#CCCCCC"/>
<path d="M853.596 76C852.604 76 851.74 75.784 851.004 75.352C850.268 74.904 849.7 74.312 849.3 73.576C848.916 72.84 848.724 72.04 848.724 71.176C848.724 70.792 848.756 70.44 848.82 70.12C848.9 69.672 849.004 69.136 849.132 68.512C849.26 67.888 849.38 67.344 849.492 66.88L852.3 67.576L852.132 68.344C851.812 69.592 851.652 70.456 851.652 70.936C851.652 71.432 851.82 71.824 852.156 72.112C852.492 72.4 852.972 72.544 853.596 72.544H864.036C864.692 72.544 865.156 72.456 865.428 72.28C865.7 72.088 865.836 71.768 865.836 71.32V67.96H868.908V71.44C868.908 71.856 869.012 72.144 869.22 72.304C869.444 72.464 869.796 72.544 870.276 72.544H870.996L871.14 74.32L870.996 76H870.276C869.764 76 869.236 75.904 868.692 75.712C868.164 75.504 867.692 75.192 867.276 74.776C866.908 75.192 866.444 75.504 865.884 75.712C865.324 75.904 864.708 76 864.036 76H853.596ZM855.516 64.456H858.372V67.336H855.516V64.456ZM860.028 64.456H862.884V67.336H860.028V64.456ZM870.267 72.544H872.019C872.579 72.544 872.979 72.432 873.219 72.208C873.475 71.968 873.603 71.592 873.603 71.08V67.96H876.651V71.152C876.651 71.632 876.779 71.984 877.035 72.208C877.307 72.432 877.675 72.544 878.139 72.544C879.179 72.544 879.699 72.04 879.699 71.032V67.96H882.747L882.723 71.152C882.723 72.08 883.203 72.544 884.163 72.544C884.659 72.544 885.051 72.408 885.339 72.136C885.643 71.864 885.763 71.504 885.699 71.056C885.475 69.6 885.243 68.288 885.003 67.12L887.883 66.4C888.427 68.752 888.699 70.424 888.699 71.416C888.699 72.216 888.539 72.968 888.219 73.672C887.899 74.36 887.403 74.92 886.731 75.352C886.059 75.784 885.203 76 884.163 76C883.555 76 882.995 75.88 882.483 75.64C881.971 75.384 881.539 75.048 881.187 74.632C880.819 75.048 880.363 75.384 879.819 75.64C879.291 75.88 878.699 76 878.043 76C877.499 76 876.923 75.864 876.315 75.592C875.723 75.32 875.291 75 875.019 74.632C874.731 75.032 874.307 75.36 873.747 75.616C873.203 75.872 872.587 76 871.899 76H870.267V72.544ZM891.302 59.968H894.35V76H891.302V59.968ZM899.932 78.76C900.924 78.76 901.676 78.672 902.188 78.496C902.7 78.336 903.052 78.056 903.244 77.656C903.452 77.272 903.572 76.72 903.604 76H901.54C900.02 76 898.812 75.56 897.916 74.68C897.036 73.784 896.596 72.536 896.596 70.936C896.596 69.8 896.804 68.792 897.22 67.912C897.652 67.032 898.236 66.352 898.972 65.872C899.724 65.376 900.572 65.128 901.516 65.128C902.54 65.128 903.436 65.368 904.204 65.848C904.988 66.328 905.588 67.008 906.004 67.888C906.436 68.768 906.652 69.784 906.652 70.936V72.544H907.972L908.164 74.296L907.972 76H906.652C906.588 77.872 906.012 79.376 904.924 80.512C903.836 81.648 902.172 82.216 899.932 82.216H897.076V78.76H899.932ZM899.524 70.768C899.524 71.424 899.684 71.912 900.004 72.232C900.324 72.536 900.836 72.688 901.54 72.688H903.604V70.864C903.604 69.2 902.908 68.368 901.516 68.368C900.86 68.368 900.364 68.592 900.028 69.04C899.692 69.488 899.524 70.064 899.524 70.768ZM907.145 72.544H910.025C911.529 72.544 912.945 72.352 914.273 71.968C915.601 71.584 916.969 71.016 918.377 70.264C915.001 69.096 913.033 68.512 912.473 68.512C912.137 68.512 911.857 68.616 911.633 68.824C911.409 69.016 911.209 69.352 911.033 69.832L908.345 68.968C908.713 67.72 909.257 66.768 909.977 66.112C910.697 65.456 911.529 65.128 912.473 65.128C913.129 65.128 914.161 65.376 915.569 65.872C916.993 66.368 918.865 67.096 921.185 68.056L921.641 71.824C920.137 72.768 918.833 73.52 917.729 74.08C916.625 74.64 915.433 75.104 914.153 75.472C912.873 75.824 911.497 76 910.025 76H907.145V72.544ZM911.129 59.92H914.321V63.04H911.129V59.92ZM928.407 67.96V74.728C928.407 77.032 927.807 78.824 926.607 80.104C925.407 81.4 923.695 82.048 921.471 82.048H919.959V78.592H921.471C922.479 78.592 923.255 78.472 923.799 78.232C924.359 78.008 924.751 77.616 924.975 77.056C925.215 76.512 925.335 75.736 925.335 74.728V67.96H928.407ZM937.23 64.912C939.022 67.696 939.87 69.016 939.774 68.872C940.398 69.88 940.71 70.88 940.71 71.872C940.71 72.736 940.486 73.48 940.038 74.104C939.558 74.792 938.966 75.28 938.262 75.568C937.574 75.856 936.75 76 935.79 76H934.518C933.51 76 932.622 75.84 931.854 75.52C931.086 75.184 930.486 74.824 930.054 74.44L931.494 71.68C931.798 71.872 932.198 72.064 932.694 72.256C933.206 72.448 933.822 72.544 934.542 72.544H935.718C936.262 72.544 936.67 72.512 936.942 72.448C937.214 72.368 937.414 72.232 937.542 72.04C937.622 71.912 937.662 71.784 937.662 71.656C937.662 71.4 937.518 71.048 937.23 70.6C936.222 69.064 934.998 67.24 933.558 65.128L936.126 63.208L937.23 64.912ZM949.431 59.824C950.087 61.664 950.519 63.344 950.727 64.864C950.935 66.384 951.039 68.056 951.039 69.88V71.44L950.991 76H947.919L947.967 71.44L947.991 69.664C947.991 68.048 947.895 66.6 947.703 65.32C947.511 64.024 947.127 62.576 946.551 60.976L949.431 59.824ZM960.786 59.992C961.714 63.224 962.41 65.56 962.874 67C963.354 68.44 963.802 69.608 964.218 70.504C964.65 71.384 965.338 72.672 966.282 74.368L963.642 76.072C962.874 74.696 962.29 73.592 961.89 72.76C961.506 71.912 961.146 70.984 960.81 69.976C960.474 68.952 960.026 67.424 959.466 65.392C958.97 67.328 958.538 68.832 958.17 69.904C957.818 70.96 957.458 71.872 957.09 72.64C956.722 73.408 956.13 74.544 955.314 76.048L952.65 74.368C953.674 72.544 954.394 71.192 954.81 70.312C955.242 69.432 955.682 68.28 956.13 66.856C956.594 65.416 957.25 63.128 958.098 59.992H960.786Z" fill="#353535"/>
<path d="M1019.67 52.6667V61C1019.67 69.3333 1016.33 72.6667 1008 72.6667H998C989.666 72.6667 986.333 69.3333 986.333 61V51C986.333 42.6667 989.666 39.3333 998 39.3333H1006.33" stroke="#3C50E0" stroke-width="1.5" stroke-linecap="round" stroke-linejoin="round"/>
<path d="M1019.67 52.6667H1013C1008 52.6667 1006.33 51 1006.33 46V39.3333L1019.67 52.6667Z" stroke="#3C50E0" stroke-width="1.5" stroke-linecap="round" stroke-linejoin="round"/>
</g>
<defs>
<filter id="filter0_d_147_1663" x="0" y="0" width="358" height="127" filterUnits="userSpaceOnUse" color-interpolation-filters="sRGB">
<feFlood flood-opacity="0" result="BackgroundImageFix"/>
<feColorMatrix in="SourceAlpha" type="matrix" values="0 0 0 0 0 0 0 0 0 0 0 0 0 0 0 0 0 0 127 0" result="hardAlpha"/>
<feOffset dy="7"/>
<feGaussianBlur stdDeviation="7.5"/>
<feComposite in2="hardAlpha" operator="out"/>
<feColorMatrix type="matrix" values="0 0 0 0 0.235294 0 0 0 0 0.313726 0 0 0 0 0.878431 0 0 0 0.2 0"/>
<feBlend mode="normal" in2="BackgroundImageFix" result="effect1_dropShadow_147_1663"/>
<feBlend mode="normal" in="SourceGraphic" in2="effect1_dropShadow_147_1663" result="shape"/>
</filter>
<filter id="filter1_d_147_1663" x="352" y="0" width="358" height="127" filterUnits="userSpaceOnUse" color-interpolation-filters="sRGB">
<feFlood flood-opacity="0" result="BackgroundImageFix"/>
<feColorMatrix in="SourceAlpha" type="matrix" values="0 0 0 0 0 0 0 0 0 0 0 0 0 0 0 0 0 0 127 0" result="hardAlpha"/>
<feOffset dy="7"/>
<feGaussianBlur stdDeviation="7.5"/>
<feComposite in2="hardAlpha" operator="out"/>
<feColorMatrix type="matrix" values="0 0 0 0 0.235294 0 0 0 0 0.313726 0 0 0 0 0.878431 0 0 0 0.2 0"/>
<feBlend mode="normal" in2="BackgroundImageFix" result="effect1_dropShadow_147_1663"/>
<feBlend mode="normal" in="SourceGraphic" in2="effect1_dropShadow_147_1663" result="shape"/>
</filter>
<filter id="filter2_d_147_1663" x="704" y="0" width="358" height="127" filterUnits="userSpaceOnUse" color-interpolation-filters="sRGB">
<feFlood flood-opacity="0" result="BackgroundImageFix"/>
<feColorMatrix in="SourceAlpha" type="matrix" values="0 0 0 0 0 0 0 0 0 0 0 0 0 0 0 0 0 0 127 0" result="hardAlpha"/>
<feOffset dy="7"/>
<feGaussianBlur stdDeviation="7.5"/>
<feComposite in2="hardAlpha" operator="out"/>
<feColorMatrix type="matrix" values="0 0 0 0 0.235294 0 0 0 0 0.313726 0 0 0 0 0.878431 0 0 0 0.2 0"/>
<feBlend mode="normal" in2="BackgroundImageFix" result="effect1_dropShadow_147_1663"/>
<feBlend mode="normal" in="SourceGraphic" in2="effect1_dropShadow_147_1663" result="shape"/>
</filter>
</defs>
</svg>
