<svg width="40" height="40" viewBox="0 0 40 40" fill="none" xmlns="http://www.w3.org/2000/svg">
<path d="M15.5166 24.5L18.0166 27L24.6833 20.3333" stroke="#3C50E0" stroke-width="1.5" stroke-linecap="round" stroke-linejoin="round"/>
<path d="M16.6663 10H23.333C26.6663 10 26.6663 8.33334 26.6663 6.66667C26.6663 3.33334 24.9997 3.33334 23.333 3.33334H16.6663C14.9997 3.33334 13.333 3.33334 13.333 6.66667C13.333 10 14.9997 10 16.6663 10Z" stroke="#3C50E0" stroke-width="1.5" stroke-miterlimit="10" stroke-linecap="round" stroke-linejoin="round"/>
<path d="M26.6667 6.7C32.2167 7 35 9.05 35 16.6667V26.6667C35 33.3333 33.3333 36.6667 25 36.6667H15C6.66667 36.6667 5 33.3333 5 26.6667V16.6667C5 9.06666 7.78333 7 13.3333 6.7" stroke="#3C50E0" stroke-width="1.5" stroke-miterlimit="10" stroke-linecap="round" stroke-linejoin="round"/>
</svg>
