<svg width="30" height="31" viewBox="0 0 30 31" fill="none" xmlns="http://www.w3.org/2000/svg">
<g clip-path="url(#clip0_358_14760)">
<path d="M18.4944 2.73398L21.6364 5.87586H18.4944V2.73398Z" stroke="#40B453" stroke-width="2.69663"/>
<mask id="path-2-inside-1_358_14760" fill="white">
<path d="M25.7387 14.4492L24.9426 13.9291C24.8127 13.8443 24.6387 13.8807 24.5538 14.0106L20.2676 20.5694L19.4434 20.0309L23.7296 13.4721C23.8145 13.342 23.7781 13.1681 23.6481 13.0832L22.8521 12.563C22.7221 12.4781 22.5481 12.5146 22.4632 12.6445L16.0455 22.4653C16.0183 22.507 16.0026 22.5553 16.0001 22.6051L15.8324 26.0133C15.8275 26.1128 15.8757 26.2078 15.9593 26.2621C16.0428 26.3167 16.1491 26.3229 16.2382 26.2785L19.2923 24.7563C19.337 24.7341 19.3749 24.7002 19.4023 24.6584L25.8199 14.8377C25.905 14.7082 25.8685 14.5342 25.7387 14.4492Z"/>
</mask>
<path d="M25.7387 14.4492L27.2154 12.1929L27.2136 12.1917L25.7387 14.4492ZM24.9426 13.9291L26.4176 11.6716L26.4166 11.671L24.9426 13.9291ZM24.5538 14.0106L22.2967 12.535L22.2964 12.5355L24.5538 14.0106ZM20.2676 20.5694L18.7926 22.8269L21.0499 24.3018L22.525 22.0446L20.2676 20.5694ZM19.4434 20.0309L17.186 18.5557L15.7108 20.8132L17.9684 22.2884L19.4434 20.0309ZM23.7296 13.4721L25.9869 14.9472L25.987 14.9472L23.7296 13.4721ZM23.6481 13.0832L22.173 15.3406L22.1733 15.3408L23.6481 13.0832ZM22.8521 12.563L24.3272 10.3056L24.3269 10.3054L22.8521 12.563ZM22.4632 12.6445L24.7206 14.1197L24.7214 14.1185L22.4632 12.6445ZM16.0455 22.4653L13.7881 20.9901L13.7878 20.9907L16.0455 22.4653ZM16.0001 22.6051L13.307 22.4675L13.3067 22.4725L16.0001 22.6051ZM15.8324 26.0133L13.139 25.8808L13.139 25.8814L15.8324 26.0133ZM15.9593 26.2621L17.4343 24.0047L17.429 24.0012L15.9593 26.2621ZM16.2382 26.2785L15.0353 23.865L15.0345 23.8654L16.2382 26.2785ZM19.2923 24.7563L18.0985 22.3382L18.0894 22.3428L19.2923 24.7563ZM19.4023 24.6584L21.6577 26.1366L21.6597 26.1336L19.4023 24.6584ZM25.8199 14.8377L23.5667 13.3561L23.5625 13.3626L25.8199 14.8377ZM27.2136 12.1917L26.4176 11.6716L23.4677 16.1866L24.2637 16.7067L27.2136 12.1917ZM26.4166 11.671C25.0414 10.7734 23.197 11.158 22.2967 12.535L26.8108 15.4863C26.0804 16.6034 24.584 16.9153 23.4687 16.1873L26.4166 11.671ZM22.2964 12.5355L18.0103 19.0942L22.525 22.0446L26.8111 15.4858L22.2964 12.5355ZM21.7426 18.3119L20.9184 17.7734L17.9684 22.2884L18.7926 22.8269L21.7426 18.3119ZM21.7008 21.5061L25.9869 14.9472L21.4722 11.9969L17.186 18.5557L21.7008 21.5061ZM25.987 14.9472C26.8861 13.5712 26.5008 11.7257 25.1229 10.8256L22.1733 15.3408C21.0554 14.6105 20.743 13.1128 21.4721 11.997L25.987 14.9472ZM25.1232 10.8258L24.3272 10.3056L21.377 14.8204L22.173 15.3406L25.1232 10.8258ZM24.3269 10.3054C22.9515 9.40692 21.1053 9.79144 20.2051 11.1706L24.7214 14.1185C23.9908 15.2377 22.4928 15.5494 21.3773 14.8206L24.3269 10.3054ZM20.2059 11.1694L13.7881 20.9901L18.3029 23.9404L24.7206 14.1197L20.2059 11.1694ZM13.7878 20.9907C13.4977 21.4348 13.3337 21.945 13.307 22.4675L18.6932 22.7426C18.6716 23.1656 18.5388 23.5793 18.3033 23.9399L13.7878 20.9907ZM13.3067 22.4725L13.139 25.8808L18.5257 26.1459L18.6935 22.7376L13.3067 22.4725ZM13.139 25.8814C13.0875 26.933 13.596 27.9422 14.4896 28.5231L17.429 24.0012C18.1554 24.4734 18.5675 25.2926 18.5258 26.1452L13.139 25.8814ZM14.4842 28.5196C15.369 29.0977 16.4949 29.1639 17.4419 28.6915L15.0345 23.8654C15.8034 23.4818 16.7167 23.5358 17.4343 24.0047L14.4842 28.5196ZM17.4411 28.6919L20.4952 27.1697L18.0894 22.3428L15.0353 23.865L17.4411 28.6919ZM20.486 27.1743C20.9722 26.9343 21.3728 26.5714 21.6577 26.1366L17.1469 23.1802C17.377 22.8291 17.7019 22.534 18.0985 22.3382L20.486 27.1743ZM21.6597 26.1336L28.0773 16.3129L23.5625 13.3626L17.1449 23.1833L21.6597 26.1336ZM28.073 16.3194C28.9823 14.9366 28.5862 13.0901 27.2154 12.1929L24.2619 16.7055C23.1507 15.9783 22.8278 14.4799 23.5667 13.3561L28.073 16.3194Z" fill="#40B453" mask="url(#path-2-inside-1_358_14760)"/>
<path d="M24.8579 11.4435L25.6369 10.2515L26.7363 10.97L25.9574 12.1619L24.8579 11.4435Z" stroke="#40B453" stroke-width="2.69663"/>
<mask id="path-5-inside-2_358_14760" fill="white">
<path d="M5.90353 6.84563H11.4124C11.8024 6.84563 12.1186 6.52936 12.1186 6.13937C12.1186 5.74937 11.8024 5.43311 11.4124 5.43311H5.90353C5.51346 5.43311 5.19727 5.74937 5.19727 6.13937C5.19727 6.52936 5.5136 6.84563 5.90353 6.84563Z"/>
</mask>
<path d="M5.90353 9.54225H11.4124V4.149H5.90353V9.54225ZM11.4124 9.54225C13.2919 9.54225 14.8152 8.01849 14.8152 6.13937H9.42198C9.42198 5.04023 10.3129 4.149 11.4124 4.149V9.54225ZM14.8152 6.13937C14.8152 4.26024 13.2919 2.73648 11.4124 2.73648V8.12973C10.3129 8.12973 9.42198 7.2385 9.42198 6.13937H14.8152ZM11.4124 2.73648H5.90353V8.12973H11.4124V2.73648ZM5.90353 2.73648C4.02398 2.73648 2.50064 4.26024 2.50064 6.13937H7.89389C7.89389 7.2385 7.00294 8.12973 5.90353 8.12973V2.73648ZM2.50064 6.13937C2.50064 8.01884 4.02447 9.54225 5.90353 9.54225V4.149C7.00273 4.149 7.89389 5.03988 7.89389 6.13937H2.50064Z" fill="#40B453" mask="url(#path-5-inside-2_358_14760)"/>
<mask id="path-7-inside-3_358_14760" fill="white">
<path d="M16.3562 9.67049C16.3562 9.2805 16.0398 8.96423 15.6499 8.96423H5.90353C5.51346 8.96423 5.19727 9.2805 5.19727 9.67049C5.19727 10.0605 5.51346 10.3768 5.90353 10.3768H15.6499C16.04 10.3768 16.3562 10.0605 16.3562 9.67049Z"/>
</mask>
<path d="M19.0528 9.67049C19.0528 7.79101 17.529 6.2676 15.6499 6.2676V11.6609C14.5507 11.6609 13.6595 10.77 13.6595 9.67049H19.0528ZM15.6499 6.2676H5.90353V11.6609H15.6499V6.2676ZM5.90353 6.2676C4.02398 6.2676 2.50064 7.79137 2.50064 9.67049H7.89389C7.89389 10.7696 7.00294 11.6609 5.90353 11.6609V6.2676ZM2.50064 9.67049C2.50064 11.5496 4.02397 13.0734 5.90353 13.0734V7.68012C7.00294 7.68012 7.89389 8.57136 7.89389 9.67049H2.50064ZM5.90353 13.0734H15.6499V7.68012H5.90353V13.0734ZM15.6499 13.0734C17.5295 13.0734 19.0528 11.5496 19.0528 9.67049H13.6595C13.6595 8.57136 14.5505 7.68012 15.6499 7.68012V13.0734Z" fill="#40B453" mask="url(#path-7-inside-3_358_14760)"/>
<mask id="path-9-inside-4_358_14760" fill="white">
<path d="M5.90353 13.9081H11.4124C11.8024 13.9081 12.1186 13.5919 12.1186 13.2019C12.1186 12.8119 11.8024 12.4956 11.4124 12.4956H5.90353C5.51346 12.4956 5.19727 12.8119 5.19727 13.2019C5.19727 13.5919 5.5136 13.9081 5.90353 13.9081Z"/>
</mask>
<path d="M5.90353 16.6048H11.4124V11.2115H5.90353V16.6048ZM11.4124 16.6048C13.2919 16.6048 14.8152 15.081 14.8152 13.2019H9.42198C9.42198 12.1027 10.3129 11.2115 11.4124 11.2115V16.6048ZM14.8152 13.2019C14.8152 11.3227 13.2919 9.79898 11.4124 9.79898V15.1922C10.3129 15.1922 9.42198 14.301 9.42198 13.2019H14.8152ZM11.4124 9.79898H5.90353V15.1922H11.4124V9.79898ZM5.90353 9.79898C4.02398 9.79898 2.50064 11.3227 2.50064 13.2019H7.89389C7.89389 14.301 7.00294 15.1922 5.90353 15.1922V9.79898ZM2.50064 13.2019C2.50064 15.0813 4.02447 16.6048 5.90353 16.6048V11.2115C7.00273 11.2115 7.89389 12.1024 7.89389 13.2019H2.50064Z" fill="#40B453" mask="url(#path-9-inside-4_358_14760)"/>
<mask id="path-11-inside-5_358_14760" fill="white">
<path d="M5.90353 17.4395H11.4124C11.8024 17.4395 12.1186 17.1232 12.1186 16.7332C12.1186 16.3433 11.8024 16.027 11.4124 16.027H5.90353C5.51346 16.027 5.19727 16.3433 5.19727 16.7332C5.19727 17.1232 5.5136 17.4395 5.90353 17.4395Z"/>
</mask>
<path d="M5.19727 16.7332H2.50064H5.19727ZM5.90353 20.1361H11.4124V14.7429H5.90353V20.1361ZM11.4124 20.1361C13.2919 20.1361 14.8152 18.6124 14.8152 16.7332H9.42198C9.42198 15.6341 10.3129 14.7429 11.4124 14.7429V20.1361ZM14.8152 16.7332C14.8152 14.8544 13.2921 13.3303 11.4124 13.3303V18.7236C10.3128 18.7236 9.42198 17.8323 9.42198 16.7332H14.8152ZM11.4124 13.3303H5.90353V18.7236H11.4124V13.3303ZM5.90353 13.3303C4.0238 13.3303 2.50064 14.8544 2.50064 16.7332H7.89389C7.89389 17.8323 7.00312 18.7236 5.90353 18.7236V13.3303ZM2.50064 16.7332C2.50064 18.6127 4.02447 20.1361 5.90353 20.1361V14.7429C7.00273 14.7429 7.89389 15.6338 7.89389 16.7332L2.50064 16.7332Z" fill="#40B453" mask="url(#path-11-inside-5_358_14760)"/>
<mask id="path-13-inside-6_358_14760" fill="white">
<path d="M6.20357 26.5667C6.06606 26.7444 6.3141 26.9962 6.4533 26.8162C6.8921 26.2493 7.25449 25.6388 7.55712 24.9944C7.74597 25.113 7.99394 25.0892 8.19734 25.0089C8.49051 24.8933 8.73904 24.6701 8.97571 24.4682C9.11562 24.3489 9.27849 24.1518 9.47214 24.1329C9.62003 24.1187 9.81976 24.2378 9.96758 24.2631C10.3538 24.329 10.805 24.2171 11.1779 24.125C11.5318 24.0376 11.9462 23.8994 12.1545 23.579C12.279 23.3874 11.9731 23.2106 11.8496 23.4009C11.6829 23.6574 11.2757 23.7374 11.0006 23.8053C10.6776 23.8852 10.3028 23.964 9.96998 23.9072C9.71912 23.8645 9.51621 23.7128 9.25829 23.8277C8.91278 23.9817 8.64885 24.3052 8.34375 24.5237C8.20723 24.6214 8.05122 24.7153 7.88044 24.7286C7.81017 24.734 7.75289 24.7082 7.70529 24.6653C7.74286 24.5781 7.78015 24.4905 7.81568 24.4022C8.16005 23.5473 8.31578 22.6792 8.47561 21.7787C8.55683 21.3211 8.69194 20.6001 8.0361 20.5561C7.45662 20.5174 6.95581 21.3533 6.77063 21.7938C6.60501 22.1877 6.58657 22.6454 6.59922 23.066C6.60706 23.3282 6.70141 23.6004 6.77098 23.8714C6.21487 23.9606 5.72473 24.5223 5.81061 25.0791C5.89515 25.6271 6.58029 25.3441 6.83617 25.1414C7.09515 24.9362 7.17899 24.6799 7.18174 24.4035C7.23337 24.4886 7.27652 24.5906 7.32116 24.6861C7.02276 25.3554 6.64865 25.9916 6.20357 26.5667ZM6.82254 24.5679C6.77027 24.8008 6.47555 25.0308 6.24347 25.0522C6.06091 25.0692 6.17228 24.7431 6.20837 24.6702C6.32166 24.4412 6.60232 24.2918 6.83829 24.2274C6.8493 24.3423 6.84754 24.4561 6.82254 24.5679ZM7.11747 23.8841C7.05737 23.6033 6.97396 23.3213 6.95235 23.0661C6.91054 22.5735 6.99804 22.0573 7.24234 21.6264C7.39496 21.3572 7.70607 20.9446 8.0361 20.9093C8.33083 20.878 8.15108 21.5947 8.12559 21.7387C8.0467 22.1833 7.99041 22.6245 7.88044 23.0639C7.77832 23.472 7.64893 23.8761 7.49419 24.2712C7.41191 24.0665 7.30477 23.9354 7.11747 23.8841Z"/>
</mask>
<path d="M6.20357 26.5667L4.07109 24.9161L4.07092 24.9163L6.20357 26.5667ZM6.4533 26.8162L4.32093 25.1655L4.32004 25.1666L6.4533 26.8162ZM7.55712 24.9944L8.99108 22.7106L6.41122 21.0907L5.11627 23.8481L7.55712 24.9944ZM8.19734 25.0089L7.20804 22.5003L7.20636 22.5009L8.19734 25.0089ZM8.97571 24.4682L7.22555 22.4167L7.22546 22.4168L8.97571 24.4682ZM9.47214 24.1329L9.21448 21.4486L9.2108 21.449L9.47214 24.1329ZM9.96758 24.2631L9.5117 26.9209L9.51457 26.9214L9.96758 24.2631ZM11.1779 24.125L10.5316 21.5069L10.5309 21.5071L11.1779 24.125ZM12.1545 23.579L9.89362 22.1092L9.89353 22.1094L12.1545 23.579ZM11.8496 23.4009L14.1105 24.8706L14.1117 24.8689L11.8496 23.4009ZM11.0006 23.8053L10.3541 21.1873L10.3531 21.1876L11.0006 23.8053ZM9.96998 23.9072L10.4235 21.2489L10.422 21.2487L9.96998 23.9072ZM9.25829 23.8277L8.16089 21.3645L8.16065 21.3646L9.25829 23.8277ZM8.34375 24.5237L6.77392 22.3311L6.7739 22.3311L8.34375 24.5237ZM7.88044 24.7286L7.67252 22.04L7.67238 22.04L7.88044 24.7286ZM7.70529 24.6653L5.22899 23.5977L4.4637 25.3728L5.89904 26.6676L7.70529 24.6653ZM7.81568 24.4022L5.31438 23.3946L5.31372 23.3962L7.81568 24.4022ZM8.47561 21.7787L5.82048 21.3074L5.82048 21.3075L8.47561 21.7787ZM8.0361 20.5561L8.21661 17.8655L8.21581 17.8655L8.0361 20.5561ZM6.77063 21.7938L9.25651 22.8388L9.25652 22.8388L6.77063 21.7938ZM6.59922 23.066L9.29464 22.9854L9.29463 22.985L6.59922 23.066ZM6.77098 23.8714L7.19806 26.534L10.1181 26.0656L9.38296 23.2011L6.77098 23.8714ZM5.81061 25.0791L3.14549 25.4902L3.14551 25.4903L5.81061 25.0791ZM6.83617 25.1414L5.16167 23.0276L5.16136 23.0279L6.83617 25.1414ZM7.18174 24.4035L9.4873 23.0048L4.57953 14.9147L4.48525 24.3766L7.18174 24.4035ZM7.32116 24.6861L9.78411 25.7841L10.2855 24.6596L9.76406 23.5442L7.32116 24.6861ZM6.82254 24.5679L9.45374 25.1583L9.45409 25.1567L6.82254 24.5679ZM6.24347 25.0522L5.99506 22.3671L5.99418 22.3671L6.24347 25.0522ZM6.20837 24.6702L8.62498 25.8668L8.62536 25.866L6.20837 24.6702ZM6.83829 24.2274L9.5226 23.97L9.21701 20.7828L6.12816 21.6259L6.83829 24.2274ZM7.11747 23.8841L4.48056 24.4485L4.82378 26.0521L6.40545 26.4851L7.11747 23.8841ZM6.95235 23.0661L9.63936 22.8386L9.63932 22.838L6.95235 23.0661ZM7.24234 21.6264L9.58808 22.9566L9.58824 22.9563L7.24234 21.6264ZM8.0361 20.9093L7.7508 18.2278L7.74921 18.228L8.0361 20.9093ZM8.12559 21.7387L10.7807 22.2099L10.7809 22.2089L8.12559 21.7387ZM7.88044 23.0639L10.4964 23.7186L10.4964 23.7185L7.88044 23.0639ZM7.49419 24.2712L4.99204 25.2768L7.52661 31.5838L10.0052 25.2545L7.49419 24.2712ZM4.07092 24.9163C2.97531 26.3321 3.54252 27.9514 4.31101 28.7255C4.71541 29.1328 5.38243 29.5506 6.26522 29.5738C7.25846 29.6 8.08547 29.1138 8.58657 28.4657L4.32004 25.1666C4.75154 24.6086 5.49534 24.1584 6.40722 24.1824C7.20864 24.2035 7.79616 24.581 8.13833 24.9256C8.78238 25.5744 9.29432 26.9789 8.33622 28.217L4.07092 24.9163ZM8.58568 28.4669C9.15933 27.7258 9.6215 26.9423 9.99797 26.1407L5.11627 23.8481C4.88747 24.3352 4.62488 24.7728 4.32093 25.1655L8.58568 28.4669ZM6.12315 27.2781C7.35271 28.0502 8.60978 27.7454 9.18833 27.5168L7.20636 22.5009C7.35267 22.4431 7.56718 22.3826 7.84368 22.3798C8.12699 22.3768 8.55445 22.4365 8.99108 22.7106L6.12315 27.2781ZM9.18664 27.5175C9.99195 27.1999 10.6159 26.6136 10.726 26.5197L7.22546 22.4168C7.20857 22.4312 7.19204 22.4453 7.17711 22.4581C7.16163 22.4714 7.1481 22.483 7.13452 22.4946C7.1075 22.5177 7.08574 22.5361 7.06615 22.5525C7.02621 22.5859 7.00651 22.6011 6.99842 22.6071C6.99086 22.6127 7.00502 22.6016 7.03713 22.5826C7.06982 22.5633 7.1275 22.532 7.20804 22.5003L9.18664 27.5175ZM10.7259 26.5197C10.8219 26.4378 10.9203 26.344 10.9284 26.3364C10.963 26.3039 10.9402 26.3267 10.898 26.3608C10.8552 26.3954 10.7408 26.4845 10.5665 26.5742C10.3871 26.6665 10.103 26.7808 9.73349 26.8168L9.2108 21.449C8.31173 21.5365 7.71124 22.002 7.50949 22.165C7.38489 22.2656 7.28307 22.3612 7.24176 22.3999C7.17391 22.4634 7.1995 22.4389 7.22555 22.4167L10.7259 26.5197ZM9.7298 26.8172C9.54334 26.8351 9.38521 26.8287 9.26731 26.8172C9.14927 26.8056 9.05444 26.7872 8.99018 26.7725C8.92539 26.7577 8.8767 26.7432 8.85017 26.7349C8.82352 26.7266 8.80743 26.7207 8.80957 26.7215C8.81469 26.7233 8.81857 26.7248 8.84879 26.736C8.8714 26.7444 8.91542 26.7606 8.96488 26.7778C9.01502 26.7952 9.08729 26.8193 9.17273 26.8436C9.2573 26.8676 9.37356 26.8972 9.5117 26.9209L10.4235 21.6053C10.5247 21.6227 10.6023 21.643 10.6471 21.6558C10.6928 21.6687 10.724 21.6795 10.7323 21.6824C10.74 21.685 10.7414 21.6856 10.7209 21.6781C10.7081 21.6733 10.6685 21.6586 10.6302 21.6448C10.558 21.6189 10.3937 21.561 10.1921 21.5149C9.99792 21.4705 9.64613 21.4072 9.21448 21.4486L9.7298 26.8172ZM9.51457 26.9214C10.5632 27.1001 11.6007 26.7982 11.8249 26.7428L10.5309 21.5071C10.4329 21.5313 10.3652 21.548 10.3003 21.5624C10.2378 21.5763 10.1992 21.5833 10.1766 21.5867C10.1535 21.5902 10.1628 21.5874 10.1971 21.5866C10.2308 21.5857 10.3098 21.5859 10.4206 21.6048L9.51457 26.9214ZM11.8242 26.743C12.1175 26.6706 13.5654 26.3565 14.4155 25.0486L9.89353 22.1094C10.1421 21.7269 10.4405 21.5639 10.5306 21.5196C10.6177 21.4768 10.6474 21.4784 10.5316 21.5069L11.8242 26.743ZM14.4154 25.0487C14.8624 24.3612 15.0205 23.4741 14.7428 22.6146C14.4915 21.8366 13.961 21.3121 13.4499 21.0151C12.4541 20.4365 10.6208 20.3409 9.5876 21.9329L14.1117 24.8689C13.202 26.2706 11.5834 26.1682 10.7403 25.6783C10.3055 25.4257 9.83587 24.9695 9.61073 24.2726C9.35925 23.4941 9.50893 22.701 9.89362 22.1092L14.4154 25.0487ZM9.58871 21.9312C9.78721 21.6258 10.0162 21.4363 10.1735 21.3298C10.3271 21.2258 10.4499 21.1754 10.4956 21.1578C10.5443 21.139 10.5661 21.1347 10.5352 21.1429C10.4825 21.1568 10.4799 21.1563 10.3541 21.1873L11.647 26.4233C11.6749 26.4164 12.075 26.3291 12.4359 26.1899C12.7792 26.0575 13.5643 25.711 14.1105 24.8706L9.58871 21.9312ZM10.3531 21.1876C10.2884 21.2036 10.2418 21.2143 10.2041 21.2221C10.1667 21.2299 10.1487 21.2324 10.1453 21.2329C10.1415 21.2333 10.1636 21.2302 10.206 21.2299C10.2484 21.2296 10.3238 21.2319 10.4235 21.2489L9.51651 26.5654C10.4726 26.7285 11.3598 26.4944 11.648 26.4231L10.3531 21.1876ZM10.422 21.2487C10.5495 21.2704 10.6346 21.2997 10.6015 21.2892C10.5944 21.287 10.5874 21.2847 10.5698 21.2791C10.5551 21.2744 10.5318 21.2669 10.5062 21.2589C10.4559 21.2432 10.3745 21.2184 10.2776 21.1939C10.0836 21.1449 9.77019 21.0814 9.38519 21.0896C8.98046 21.0983 8.56467 21.1846 8.16089 21.3645L10.3557 26.291C10.0809 26.4134 9.78716 26.4755 9.50086 26.4817C9.23429 26.4874 9.03564 26.4429 8.95601 26.4228C8.9162 26.4127 8.89188 26.4049 8.89889 26.4071C8.90203 26.4081 8.90741 26.4098 8.92159 26.4143C8.93288 26.4179 8.95489 26.425 8.97696 26.432C9.06054 26.4584 9.26499 26.5226 9.51793 26.5656L10.422 21.2487ZM8.16065 21.3646C7.60653 21.6115 7.20574 21.9528 7.02159 22.1121C6.97018 22.1566 6.92169 22.1996 6.88632 22.231C6.84698 22.2659 6.82199 22.2881 6.7983 22.3087C6.74995 22.3507 6.74951 22.3486 6.77392 22.3311L9.91358 26.7163C10.0905 26.5896 10.2375 26.4651 10.3352 26.3802C10.3846 26.3373 10.4323 26.2949 10.4659 26.2651C10.5034 26.2318 10.5279 26.2101 10.5501 26.1909C10.5958 26.1514 10.5964 26.1533 10.5727 26.1702C10.5463 26.1889 10.472 26.2391 10.3559 26.2908L8.16065 21.3646ZM6.7739 22.3311C6.75792 22.3425 6.82858 22.2892 6.9531 22.2291C7.08209 22.1669 7.33131 22.0663 7.67252 22.04L8.08837 27.4172C9.05543 27.3424 9.73533 26.8439 9.9136 26.7162L6.7739 22.3311ZM7.67238 22.04C8.03556 22.0119 8.40435 22.0648 8.74921 22.1969C9.08381 22.3252 9.33578 22.5044 9.51154 22.663L5.89904 26.6676C6.38179 27.1031 7.14108 27.4905 8.08851 27.4171L7.67238 22.04ZM10.1816 25.7329C10.2215 25.6403 10.2694 25.5282 10.3176 25.4082L5.31372 23.3962C5.29093 23.4529 5.26425 23.5159 5.22899 23.5977L10.1816 25.7329ZM10.317 25.4098C10.7822 24.255 10.9773 23.1144 11.1307 22.25L5.82048 21.3075C5.65425 22.244 5.53791 22.8397 5.31438 23.3946L10.317 25.4098ZM11.1307 22.25C11.147 22.1583 11.3186 21.3752 11.1964 20.5951C11.1255 20.1423 10.925 19.4404 10.3311 18.8264C9.69687 18.1709 8.9035 17.9116 8.21661 17.8655L7.85559 23.2467C7.49662 23.2226 6.93231 23.07 6.4547 22.5763C6.01734 22.1241 5.90096 21.6394 5.8681 21.4296C5.85027 21.3157 5.84834 21.2309 5.84857 21.1878C5.8487 21.1645 5.84951 21.1472 5.85014 21.1368C5.85047 21.1315 5.85078 21.1275 5.85099 21.125C5.85121 21.1224 5.85135 21.121 5.85136 21.1209C5.85137 21.1209 5.85127 21.1219 5.851 21.124C5.85074 21.1262 5.85034 21.1293 5.84976 21.1336C5.84857 21.1422 5.84683 21.154 5.84426 21.1701C5.83844 21.2064 5.83198 21.2426 5.82048 21.3074L11.1307 22.25ZM8.21581 17.8655C6.57348 17.7558 5.5394 18.8513 5.20269 19.2466C4.75662 19.7702 4.4535 20.3473 4.28473 20.7487L9.25652 22.8388C9.25625 22.8394 9.26856 22.8117 9.29026 22.7747C9.31287 22.7362 9.32253 22.7272 9.30831 22.7439C9.30247 22.7507 9.2127 22.8588 9.02024 22.9758C8.81656 23.0995 8.40844 23.2836 7.8564 23.2467L8.21581 17.8655ZM4.28474 20.7487C3.88136 21.7082 3.88922 22.6618 3.9038 23.147L9.29463 22.985C9.29247 22.9131 9.29215 22.8557 9.29326 22.8084C9.29437 22.7611 9.29677 22.7308 9.29861 22.714C9.30046 22.6972 9.301 22.7009 9.29634 22.7206C9.2916 22.7406 9.28029 22.7823 9.25651 22.8388L4.28474 20.7487ZM3.90379 23.1466C3.91606 23.5568 3.99256 23.9037 4.04397 24.1119C4.07066 24.22 4.09847 24.3206 4.11702 24.3876C4.13858 24.4655 4.14942 24.5045 4.159 24.5418L9.38296 23.2011C9.35775 23.1029 9.33071 23.0062 9.31477 22.9486C9.29582 22.8801 9.2865 22.8455 9.27993 22.8189C9.27392 22.7945 9.27598 22.7997 9.27996 22.8237C9.28403 22.8483 9.29224 22.905 9.29464 22.9854L3.90379 23.1466ZM6.3439 21.2088C5.34079 21.3697 4.51333 21.921 3.96461 22.5903C3.41368 23.2624 2.9605 24.2908 3.14549 25.4902L8.47572 24.6681C8.57483 25.3106 8.32379 25.7798 8.13548 26.0095C7.94939 26.2365 7.64506 26.4623 7.19806 26.534L6.3439 21.2088ZM3.14551 25.4903C3.26296 26.2516 3.68438 27.1297 4.59835 27.6699C5.39603 28.1414 6.18319 28.1205 6.60418 28.0662C7.40924 27.9624 8.09166 27.5871 8.51097 27.2548L5.16136 23.0279C5.29085 22.9253 5.39133 22.8726 5.4575 22.8423C5.52072 22.8133 5.67564 22.7481 5.91409 22.7173C6.12124 22.6906 6.70527 22.6503 7.34272 23.0271C8.09645 23.4727 8.40052 24.1807 8.4757 24.6679L3.14551 25.4903ZM8.51067 27.2551C9.54936 26.4322 9.86936 25.3216 9.87824 24.4303L4.48525 24.3766C4.48647 24.2534 4.50683 24.0138 4.62945 23.7299C4.75965 23.4285 4.95651 23.1902 5.16167 23.0276L8.51067 27.2551ZM4.87618 25.8021C4.86395 25.7819 4.85392 25.7645 4.84608 25.7505C4.83824 25.7364 4.83211 25.7249 4.82776 25.7166C4.82341 25.7082 4.82041 25.7022 4.8189 25.6991C4.81739 25.6961 4.81697 25.6952 4.81787 25.6971C4.81878 25.699 4.82057 25.7028 4.82363 25.7094C4.82678 25.7162 4.83045 25.7242 4.83563 25.7355C4.8369 25.7383 4.83819 25.7411 4.83958 25.7442C4.84095 25.7472 4.84243 25.7504 4.84392 25.7536C4.8469 25.7602 4.85024 25.7675 4.85375 25.7751C4.8607 25.7903 4.86907 25.8084 4.87826 25.8281L9.76406 23.5442C9.75882 23.533 9.75367 23.5217 9.73997 23.4917C9.7286 23.4669 9.71053 23.4274 9.69028 23.3847C9.65202 23.3041 9.5829 23.1624 9.4873 23.0048L4.87618 25.8021ZM4.8582 23.5881C4.64152 24.0741 4.37564 24.5226 4.07109 24.9161L8.33605 28.2172C8.92167 27.4606 9.404 26.6367 9.78411 25.7841L4.8582 23.5881ZM4.19133 23.9775C4.34415 23.2964 4.7346 22.9316 4.89369 22.8016C5.06311 22.6631 5.42365 22.4199 5.99506 22.3671L6.49189 27.7374C7.29537 27.6631 7.91931 27.2942 8.30718 26.9771C8.68472 26.6685 9.24866 26.0723 9.45374 25.1583L4.19133 23.9775ZM5.99418 22.3671C6.35222 22.3339 6.87836 22.3643 7.42837 22.6492C7.99673 22.9436 8.36134 23.3911 8.56765 23.8036C8.91038 24.4888 8.83465 25.0945 8.82505 25.1837C8.79348 25.4768 8.71519 25.6846 8.62498 25.8668L3.79177 23.4736C3.66546 23.7287 3.51345 24.136 3.46281 24.6061C3.44367 24.7838 3.37207 25.4724 3.74414 26.2163C3.96512 26.6581 4.3507 27.1289 4.94777 27.4381C5.52648 27.7379 6.08909 27.7748 6.49277 27.7373L5.99418 22.3671ZM8.62536 25.866C8.3996 26.3223 8.08766 26.5565 7.94765 26.6476C7.79396 26.7476 7.65875 26.7987 7.54841 26.8288L6.12816 21.6259C5.62764 21.7626 4.41786 22.2082 3.79139 23.4744L8.62536 25.866ZM4.15397 24.4848C4.14671 24.409 4.13642 24.2229 4.19099 23.979L9.45409 25.1567C9.55866 24.6894 9.5519 24.2756 9.5226 23.97L4.15397 24.4848ZM9.75438 23.3198C9.73258 23.2179 9.71011 23.1226 9.69297 23.0505C9.67377 22.9697 9.66209 22.9212 9.65081 22.8713C9.62711 22.7663 9.63416 22.7772 9.63936 22.8386L4.26533 23.2936C4.29214 23.6103 4.35171 23.8897 4.39014 24.0598C4.45172 24.3324 4.44669 24.2902 4.48056 24.4485L9.75438 23.3198ZM9.63932 22.838C9.63823 22.8253 9.6401 22.8223 9.63781 22.8341C9.63547 22.8463 9.62521 22.8911 9.58808 22.9566L4.89659 20.2963C4.33963 21.2785 4.18582 22.3568 4.26538 23.2941L9.63932 22.838ZM9.58824 22.9563C9.5854 22.9613 9.56897 22.9957 9.50059 23.0656C9.46274 23.1043 9.36632 23.1976 9.20496 23.2966C9.0459 23.3943 8.74503 23.5455 8.323 23.5906L7.74921 18.228C6.63779 18.3469 5.92061 19.0127 5.64479 19.2947C5.30019 19.647 5.0519 20.0223 4.89644 20.2966L9.58824 22.9563ZM8.32141 23.5908C7.79705 23.6466 7.13567 23.5439 6.54094 23.1119C5.99836 22.7179 5.75465 22.2254 5.65061 21.9457C5.5458 21.6639 5.52058 21.4355 5.51247 21.3332C5.5033 21.2176 5.50691 21.1348 5.50888 21.1011C5.50982 21.085 5.52589 20.9544 5.47025 21.2686L10.7809 22.2089C10.7508 22.3791 10.8695 21.818 10.893 21.4154C10.903 21.2437 10.9345 20.6809 10.7054 20.0652C10.5772 19.7205 10.2993 19.176 9.71028 18.7482C9.06907 18.2824 8.34884 18.1642 7.7508 18.2278L8.32141 23.5908ZM5.47045 21.2675C5.36098 21.8843 5.34462 22.089 5.26448 22.4093L10.4964 23.7185C10.6362 23.1599 10.7324 22.4822 10.7807 22.2099L5.47045 21.2675ZM5.26449 22.4092C5.1907 22.7041 5.09659 22.9985 4.98322 23.288L10.0052 25.2545C10.2013 24.7537 10.3659 24.2399 10.4964 23.7186L5.26449 22.4092ZM9.99634 23.2657C9.74934 22.6511 9.15186 21.6452 7.82949 21.2832L6.40545 26.4851C6.02111 26.3799 5.65767 26.1641 5.37425 25.8606C5.1253 25.5939 5.02015 25.3467 4.99204 25.2768L9.99634 23.2657Z" fill="#40B453" mask="url(#path-13-inside-6_358_14760)"/>
</g>
<defs>
<clipPath id="clip0_358_14760">
<rect width="29.6629" height="29.6629" fill="white" transform="translate(0 0.668457)"/>
</clipPath>
</defs>
</svg>
