<svg width="262" height="262" viewBox="0 0 262 262" fill="none" xmlns="http://www.w3.org/2000/svg">
<path d="M131 229.25C185.262 229.25 229.25 185.262 229.25 131C229.25 76.738 185.262 32.75 131 32.75C76.738 32.75 32.75 76.738 32.75 131C32.75 185.262 76.738 229.25 131 229.25Z" fill="#006F6A" fill-opacity="0.1"/>
<path d="M98.25 109.167L133.818 135.843C138.386 139.268 144.823 138.595 148.583 134.298L218.333 54.5835" stroke="#006F6A" stroke-width="13.1" stroke-linecap="round"/>
<path d="M229.25 131C229.25 151.529 222.82 171.541 210.862 188.228C198.905 204.916 182.02 217.437 162.582 224.036C143.143 230.634 122.125 230.978 102.48 225.02C82.8348 219.06 65.5501 207.097 53.053 190.811C40.556 174.525 33.4743 154.733 32.8026 134.215C32.1309 113.697 37.903 93.4842 49.3081 76.4153C60.7133 59.3463 77.1786 46.2785 96.3915 39.0473C115.604 31.816 136.6 30.7846 156.429 36.0978" stroke="#006F6A" stroke-width="13.1" stroke-linecap="round"/>
</svg>
