<svg width="24" height="25" viewBox="0 0 24 25" fill="none" xmlns="http://www.w3.org/2000/svg">
<path d="M15.5799 12.9331C15.5799 14.9131 13.9799 16.5131 11.9999 16.5131C10.0199 16.5131 8.41992 14.9131 8.41992 12.9331C8.41992 10.9531 10.0199 9.35312 11.9999 9.35312C13.9799 9.35312 15.5799 10.9531 15.5799 12.9331Z" stroke="#7990B4" stroke-width="1.5" stroke-linecap="round" stroke-linejoin="round"/>
<path d="M11.9998 21.2031C15.5298 21.2031 18.8198 19.1231 21.1098 15.5231C22.0098 14.1131 22.0098 11.7431 21.1098 10.3331C18.8198 6.73311 15.5298 4.65311 11.9998 4.65311C8.46984 4.65311 5.17984 6.73311 2.88984 10.3331C1.98984 11.7431 1.98984 14.1131 2.88984 15.5231C5.17984 19.1231 8.46984 21.2031 11.9998 21.2031Z" stroke="#7990B4" stroke-width="1.5" stroke-linecap="round" stroke-linejoin="round"/>
</svg>
