<svg width="113" height="36" viewBox="0 0 113 36" fill="none" xmlns="http://www.w3.org/2000/svg">
<path d="M8.01656 16.3V21.94C8.01656 23.86 7.51656 25.3533 6.51656 26.42C5.51656 27.5 4.0899 28.04 2.23656 28.04H0.976562V25.16H2.23656C3.07656 25.16 3.72323 25.06 4.17656 24.86C4.64323 24.6733 4.9699 24.3467 5.15656 23.88C5.35656 23.4267 5.45656 22.78 5.45656 21.94V16.3H8.01656ZM14.1891 23C12.7891 23 11.7557 22.5933 11.0891 21.78C10.4357 20.9667 10.1091 19.8733 10.1091 18.5V9.64H12.6491V18.5C12.6491 19.0067 12.6757 19.3667 12.7291 19.58C12.7957 19.7933 12.9291 19.94 13.1291 20.02C13.3424 20.0867 13.6957 20.12 14.1891 20.12H14.9091L15.0291 21.6L14.9091 23H14.1891ZM24.0903 11.5L18.7903 13.86L20.9703 16.58C21.837 17.6733 22.457 18.4333 22.8303 18.86C23.2036 19.2733 23.5703 19.5867 23.9303 19.8C24.2903 20.0133 24.7036 20.12 25.1703 20.12H25.5103V23H25.1703C24.477 23 23.8636 22.8667 23.3303 22.6C22.8103 22.32 22.237 21.8533 21.6103 21.2C21.3303 21.76 20.9103 22.2 20.3503 22.52C19.8036 22.84 19.137 23 18.3503 23H14.4703V20.12H18.4103C18.757 20.12 19.0236 20.0533 19.2103 19.92C19.397 19.7867 19.4903 19.6067 19.4903 19.38C19.4903 19.14 19.357 18.8533 19.0903 18.52L16.0303 14.94L16.6503 11.72L23.0703 8.88L24.0903 11.5ZM16.9703 9.4L21.9703 7.22L22.3303 8.18L16.8503 10.56L16.9703 9.4ZM25.2902 20.12H27.2302C28.2568 20.12 28.7502 19.72 28.7102 18.92C28.6702 18.3333 28.4968 17.2267 28.1902 15.6L30.5702 15C31.0235 16.96 31.2502 18.36 31.2502 19.2C31.2502 19.8533 31.1035 20.4733 30.8102 21.06C30.5302 21.6333 30.0968 22.1 29.5102 22.46C28.9368 22.82 28.2435 23 27.4302 23H25.2902V20.12ZM27.0302 10.18H29.6902V12.78H27.0302V10.18ZM36.9375 19.72L38.9175 18.08C39.0375 18.1333 39.1642 18.1867 39.2975 18.24C39.4308 18.2933 39.5775 18.3533 39.7375 18.42L40.1375 16.9C40.4308 15.74 40.9242 14.8533 41.6175 14.24C42.3242 13.6267 43.1575 13.32 44.1175 13.32C44.8908 13.32 45.5775 13.5267 46.1775 13.94C46.7908 14.3533 47.2708 14.9267 47.6175 15.66C47.9642 16.3933 48.1375 17.2333 48.1375 18.18C48.1375 19.2067 47.9708 20.0733 47.6375 20.78C47.3175 21.4867 46.8842 22.0133 46.3375 22.36C45.8042 22.7067 45.2175 22.88 44.5775 22.88C44.0975 22.88 43.5308 22.7733 42.8775 22.56C42.2242 22.3333 41.3175 21.98 40.1575 21.5L39.4775 21.22V28.28H36.9375V19.72ZM42.0975 19.34C43.4308 19.8333 44.2842 20.08 44.6575 20.08C45.3908 20.08 45.7575 19.4533 45.7575 18.2C45.7575 17.52 45.6108 17 45.3175 16.64C45.0375 16.2667 44.6642 16.08 44.1975 16.08C43.8108 16.08 43.4708 16.22 43.1775 16.5C42.8842 16.78 42.6642 17.1867 42.5175 17.72L42.0975 19.34ZM54.0127 16.3V19.2C54.0127 19.5467 54.0993 19.7867 54.2727 19.92C54.4593 20.0533 54.7527 20.12 55.1527 20.12H55.5327L55.6527 21.58L55.5327 23H55.1527C54.7127 23 54.326 22.8933 53.9927 22.68C53.8593 24.3867 53.2993 25.7067 52.3127 26.64C51.326 27.5733 49.966 28.04 48.2327 28.04H46.9727V25.16H48.2327C49.0727 25.16 49.7193 25.06 50.1727 24.86C50.6393 24.6733 50.966 24.3467 51.1527 23.88C51.3527 23.4267 51.4527 22.78 51.4527 21.94V16.3H54.0127ZM55.3297 20.12H58.6097C59.303 20.12 59.8364 20.0933 60.2097 20.04C60.5964 19.9867 60.8897 19.8867 61.0897 19.74L59.8097 19.54C58.663 19.3267 57.7964 18.9133 57.2097 18.3C56.6364 17.6867 56.3497 16.78 56.3497 15.58C56.3497 14.74 56.5164 14 56.8497 13.36C57.1964 12.7067 57.6564 12.2067 58.2297 11.86C58.8164 11.5133 59.463 11.34 60.1697 11.34C60.9297 11.34 61.5964 11.5133 62.1697 11.86C62.7564 12.2067 63.2097 12.7 63.5297 13.34C63.8497 13.98 64.0097 14.7267 64.0097 15.58V17.16C64.0097 18.92 63.5964 20.3333 62.7697 21.4C61.943 22.4667 60.5564 23 58.6097 23H55.3297V20.12ZM58.7697 15.56C58.7697 15.8933 58.8697 16.1667 59.0697 16.38C59.2697 16.58 59.603 16.7333 60.0697 16.84L61.6097 17.24V15.56C61.6097 15.1067 61.4897 14.7333 61.2497 14.44C61.023 14.1467 60.6697 14 60.1897 14C59.723 14 59.3697 14.1467 59.1297 14.44C58.8897 14.7333 58.7697 15.1067 58.7697 15.56ZM58.8697 7.6H61.5297V10.2H58.8697V7.6Z" fill="#3C50E0"/>
<path fill-rule="evenodd" clip-rule="evenodd" d="M106.946 6.82874H92.6758V0.774658H113V21.0991H106.946V6.82874Z" fill="#1C2434"/>
<path fill-rule="evenodd" clip-rule="evenodd" d="M95.7989 18.8753C94.8745 18.2576 93.7876 17.9279 92.6757 17.9279V11.8738C94.985 11.8738 97.2424 12.5585 99.1624 13.8415C101.082 15.1244 102.579 16.9479 103.463 19.0814C104.346 21.2149 104.578 23.5625 104.127 25.8273C103.677 28.0922 102.565 30.1726 100.932 31.8055C99.2988 33.4384 97.2184 34.5504 94.9535 35.0009C92.6887 35.4514 90.3411 35.2202 88.2076 34.3365C86.0741 33.4528 84.2506 31.9562 82.9677 30.0362C81.6848 28.1161 81 25.8587 81 23.5495L87.0541 23.5495C87.0541 24.6614 87.3838 25.7482 88.0015 26.6727C88.6192 27.5972 89.4972 28.3177 90.5244 28.7432C91.5516 29.1687 92.682 29.2801 93.7725 29.0631C94.8629 28.8462 95.8646 28.3108 96.6508 27.5246C97.437 26.7384 97.9724 25.7367 98.1894 24.6462C98.4063 23.5557 98.2949 22.4254 97.8695 21.3982C97.444 20.371 96.7234 19.493 95.7989 18.8753Z" fill="#3C50E0"/>
</svg>
