<svg width="16" height="17" viewBox="0 0 16 17" fill="none" xmlns="http://www.w3.org/2000/svg">
<mask id="path-1-inside-1_331_41330" fill="white">
<path d="M12.875 6.49996C12.8752 5.55171 12.5989 4.62397 12.0799 3.83038C11.5608 3.03679 10.8216 2.4118 9.95274 2.03197C9.08389 1.65213 8.12311 1.53394 7.1881 1.69187C6.25309 1.84979 5.38443 2.27698 4.68852 2.92111C3.99262 3.56524 3.49967 4.39834 3.27007 5.31838C3.04046 6.23842 3.08416 7.20544 3.39582 8.10102C3.70748 8.9966 4.27356 9.78184 5.02473 10.3606C5.77591 10.9393 6.67956 11.2864 7.625 11.3593V13.125H5.5C5.40054 13.125 5.30516 13.1645 5.23484 13.2348C5.16451 13.3051 5.125 13.4005 5.125 13.5C5.125 13.5994 5.16451 13.6948 5.23484 13.7651C5.30516 13.8355 5.40054 13.875 5.5 13.875H7.625V15.5C7.625 15.5994 7.66451 15.6948 7.73484 15.7651C7.80516 15.8355 7.90054 15.875 8 15.875C8.09946 15.875 8.19484 15.8355 8.26517 15.7651C8.33549 15.6948 8.375 15.5994 8.375 15.5V13.875H10.5C10.5995 13.875 10.6948 13.8355 10.7652 13.7651C10.8355 13.6948 10.875 13.5994 10.875 13.5C10.875 13.4005 10.8355 13.3051 10.7652 13.2348C10.6948 13.1645 10.5995 13.125 10.5 13.125H8.375V11.3593C9.5987 11.2636 10.7414 10.7103 11.5754 9.80974C12.4094 8.90915 12.8734 7.72739 12.875 6.49996ZM3.875 6.49996C3.875 5.68411 4.11693 4.88659 4.57019 4.20824C5.02345 3.52988 5.66769 3.00117 6.42143 2.68896C7.17518 2.37675 8.00458 2.29506 8.80475 2.45422C9.60492 2.61339 10.3399 3.00626 10.9168 3.58315C11.4937 4.16004 11.8866 4.89504 12.0457 5.69521C12.2049 6.49539 12.1232 7.32479 11.811 8.07853C11.4988 8.83228 10.9701 9.47651 10.2917 9.92978C9.61338 10.383 8.81585 10.625 8 10.625C6.90639 10.6236 5.85795 10.1886 5.08465 9.41532C4.31135 8.64202 3.87632 7.59357 3.875 6.49996Z"/>
</mask>
<path d="M12.875 6.49996L16.875 6.5052L16.875 6.50093L12.875 6.49996ZM7.625 11.3593H11.625V7.65606L7.93269 7.37119L7.625 11.3593ZM7.625 13.125V17.125H11.625V13.125H7.625ZM7.625 13.875H11.625V9.87496H7.625V13.875ZM8.375 13.875V9.87496H4.375V13.875H8.375ZM8.375 13.125H4.375V17.125H8.375V13.125ZM8.375 11.3593L8.06306 7.37152L4.375 7.66002V11.3593H8.375ZM3.875 6.49996L-0.125002 6.49996L-0.124997 6.5048L3.875 6.49996ZM8 10.625L7.99516 14.625H8V10.625ZM16.875 6.50093C16.8754 4.77462 16.3724 3.08566 15.4274 1.64092L8.73228 6.01984C8.82545 6.16228 8.87504 6.3288 8.875 6.49899L16.875 6.50093ZM15.4274 1.64092C14.4825 0.196184 13.1368 -0.941614 11.555 -1.63311L8.35049 5.69705C8.50644 5.76522 8.63912 5.8774 8.73228 6.01984L15.4274 1.64092ZM11.555 -1.63311C9.97323 -2.3246 8.22413 -2.53978 6.52192 -2.25227L7.85428 5.636C8.0221 5.60766 8.19454 5.62887 8.35049 5.69705L11.555 -1.63311ZM6.52192 -2.25227C4.81972 -1.96476 3.23832 -1.18706 1.97141 -0.0144178L7.40563 5.85664C7.53054 5.74102 7.68645 5.66435 7.85428 5.636L6.52192 -2.25227ZM1.97141 -0.0144178C0.704506 1.15823 -0.192906 2.6749 -0.610904 4.34984L7.15104 6.28691C7.19225 6.12178 7.28073 5.97225 7.40563 5.85664L1.97141 -0.0144178ZM-0.610904 4.34984C-1.0289 6.02478 -0.949341 7.78527 -0.381964 9.41568L7.17361 6.78636C7.11767 6.62562 7.10983 6.45205 7.15104 6.28691L-0.610904 4.34984ZM-0.381964 9.41568C0.185413 11.0461 1.21597 12.4756 2.58349 13.5292L7.46598 7.19192C7.33115 7.08805 7.22955 6.94711 7.17361 6.78636L-0.381964 9.41568ZM2.58349 13.5292C3.95101 14.5828 5.59611 15.2147 7.31731 15.3475L7.93269 7.37119C7.763 7.3581 7.6008 7.2958 7.46598 7.19192L2.58349 13.5292ZM3.625 11.3593V13.125H11.625V11.3593H3.625ZM7.625 9.12496H5.5V17.125H7.625V9.12496ZM5.5 9.12496C4.33968 9.12496 3.22688 9.58589 2.40641 10.4064L8.06326 16.0632C7.38344 16.743 6.4614 17.125 5.5 17.125V9.12496ZM2.40641 10.4064C1.58594 11.2268 1.125 12.3396 1.125 13.5H9.125C9.125 14.4614 8.74308 15.3834 8.06326 16.0632L2.40641 10.4064ZM1.125 13.5C1.125 14.6603 1.58594 15.7731 2.40641 16.5936L8.06326 10.9367C8.74308 11.6165 9.125 12.5386 9.125 13.5H1.125ZM2.40641 16.5936C3.22688 17.414 4.33968 17.875 5.5 17.875V9.87496C6.4614 9.87496 7.38344 10.2569 8.06326 10.9367L2.40641 16.5936ZM5.5 17.875H7.625V9.87496H5.5V17.875ZM3.625 13.875V15.5H11.625V13.875H3.625ZM3.625 15.5C3.625 16.6603 4.08594 17.7731 4.90641 18.5936L10.5633 12.9367C11.2431 13.6165 11.625 14.5386 11.625 15.5H3.625ZM4.90641 18.5936C5.72688 19.414 6.83968 19.875 8 19.875V11.875C8.96141 11.875 9.88344 12.2569 10.5633 12.9367L4.90641 18.5936ZM8 19.875C9.16031 19.875 10.2731 19.414 11.0936 18.5936L5.43674 12.9367C6.11657 12.2569 7.0386 11.875 8 11.875V19.875ZM11.0936 18.5936C11.9141 17.7731 12.375 16.6603 12.375 15.5H4.375C4.375 14.5386 4.75691 13.6165 5.43674 12.9367L11.0936 18.5936ZM12.375 15.5V13.875H4.375V15.5H12.375ZM8.375 17.875H10.5V9.87496H8.375V17.875ZM10.5 17.875C11.6603 17.875 12.7731 17.414 13.5936 16.5936L7.93674 10.9367C8.61657 10.2569 9.5386 9.87496 10.5 9.87496V17.875ZM13.5936 16.5936C14.4141 15.7731 14.875 14.6603 14.875 13.5H6.875C6.875 12.5386 7.25691 11.6165 7.93674 10.9367L13.5936 16.5936ZM14.875 13.5C14.875 12.3397 14.4141 11.2268 13.5936 10.4064L7.93674 16.0632C7.25691 15.3834 6.875 14.4614 6.875 13.5H14.875ZM13.5936 10.4064C12.7731 9.58589 11.6603 9.12496 10.5 9.12496V17.125C9.5386 17.125 8.61657 16.7431 7.93674 16.0632L13.5936 10.4064ZM10.5 9.12496H8.375V17.125H10.5V9.12496ZM12.375 13.125V11.3593H4.375V13.125H12.375ZM8.68695 15.3472C10.9135 15.173 12.9928 14.1662 14.5102 12.5276L8.64051 7.09192C8.49003 7.25442 8.28385 7.35425 8.06306 7.37152L8.68695 15.3472ZM14.5102 12.5276C16.0277 10.8889 16.8721 8.73859 16.875 6.5052L8.875 6.49473C8.87471 6.7162 8.79099 6.92943 8.64051 7.09192L14.5102 12.5276ZM7.875 6.49996C7.875 6.47524 7.88233 6.45107 7.89607 6.43052L1.24431 1.98595C0.351524 3.3221 -0.124999 4.89299 -0.124999 6.49996L7.875 6.49996ZM7.89607 6.43052C7.9098 6.40996 7.92932 6.39394 7.95217 6.38448L4.8907 -1.00656C3.40605 -0.391597 2.1371 0.649804 1.24431 1.98595L7.89607 6.43052ZM7.95217 6.38448C7.97501 6.37502 8.00014 6.37254 8.02439 6.37736L9.58511 -1.46892C8.00901 -1.78242 6.37535 -1.62152 4.8907 -1.00656L7.95217 6.38448ZM8.02439 6.37736C8.04864 6.38219 8.07091 6.39409 8.08839 6.41157L13.7452 0.75472C12.6089 -0.381582 11.1612 -1.15541 9.58511 -1.46892L8.02439 6.37736ZM8.08839 6.41157C8.10587 6.42905 8.11778 6.45133 8.1226 6.47558L15.9689 4.91485C15.6554 3.33876 14.8815 1.89102 13.7452 0.75472L8.08839 6.41157ZM8.1226 6.47558C8.12742 6.49982 8.12495 6.52496 8.11549 6.5478L15.5065 9.60927C16.1215 8.12462 16.2824 6.49095 15.9689 4.91485L8.1226 6.47558ZM8.11549 6.5478C8.10602 6.57064 8.09 6.59016 8.06945 6.6039L12.514 13.2557C13.8502 12.3629 14.8916 11.0939 15.5065 9.60927L8.11549 6.5478ZM8.06945 6.6039C8.04889 6.61763 8.02472 6.62496 8 6.62496V14.625C9.60697 14.625 11.1779 14.1484 12.514 13.2557L8.06945 6.6039ZM8.00484 6.62497C7.97042 6.62492 7.93742 6.61123 7.91307 6.58689L2.25622 12.2437C3.77848 13.766 5.84236 14.6224 7.99516 14.625L8.00484 6.62497ZM7.91307 6.58689C7.88873 6.56255 7.87504 6.52955 7.875 6.49512L-0.124997 6.5048C-0.122392 8.6576 0.733958 10.7215 2.25622 12.2437L7.91307 6.58689Z" fill="#3C50E0" mask="url(#path-1-inside-1_331_41330)"/>
</svg>
