<svg width="17" height="17" viewBox="0 0 17 17" fill="none" xmlns="http://www.w3.org/2000/svg">
<path fill-rule="evenodd" clip-rule="evenodd" d="M6.0282 8.53818C5.90322 8.41316 5.83301 8.24362 5.83301 8.06684C5.83301 7.89007 5.90322 7.72053 6.0282 7.59551L9.79953 3.82418C9.86103 3.7605 9.93459 3.70972 10.0159 3.67478C10.0973 3.63984 10.1847 3.62145 10.2733 3.62068C10.3618 3.61991 10.4496 3.63678 10.5315 3.6703C10.6134 3.70382 10.6879 3.75332 10.7505 3.81591C10.8131 3.87851 10.8626 3.95294 10.8961 4.03487C10.9296 4.1168 10.9465 4.20459 10.9457 4.29311C10.9449 4.38163 10.9265 4.46911 10.8916 4.55045C10.8567 4.63178 10.8059 4.70535 10.7422 4.76684L7.4422 8.06684L10.7422 11.3668C10.8636 11.4926 10.9308 11.661 10.9293 11.8358C10.9278 12.0106 10.8577 12.1778 10.7341 12.3014C10.6105 12.425 10.4433 12.4951 10.2685 12.4966C10.0937 12.4981 9.92527 12.4309 9.79953 12.3095L6.0282 8.53818Z" fill="white"/>
</svg>
