<svg width="24" height="24" viewBox="0 0 24 24" fill="none" xmlns="http://www.w3.org/2000/svg">
<path d="M12 18.75C11.59 18.75 11.25 18.41 11.25 18V15C11.25 14.59 11.59 14.25 12 14.25C12.41 14.25 12.75 14.59 12.75 15V18C12.75 18.41 12.41 18.75 12 18.75Z" fill="#8A99AF"/>
<path d="M17.6009 22.5599H6.40094C4.58094 22.5599 2.92094 21.1599 2.62094 19.3699L1.29094 11.3999C1.07094 10.1599 1.68094 8.56994 2.67094 7.77994L9.60094 2.22994C10.9409 1.14994 13.0509 1.15994 14.4009 2.23994L21.3309 7.77994C22.3109 8.56994 22.9109 10.1599 22.7109 11.3999L21.3809 19.3599C21.0809 21.1299 19.3809 22.5599 17.6009 22.5599ZM11.9909 2.92994C11.4609 2.92994 10.9309 3.08994 10.5409 3.39994L3.61094 8.95994C3.05094 9.40994 2.65094 10.4499 2.77094 11.1599L4.10094 19.1199C4.28094 20.1699 5.33094 21.0599 6.40094 21.0599H17.6009C18.6709 21.0599 19.7209 20.1699 19.9009 19.1099L21.2309 11.1499C21.3409 10.4499 20.9409 9.38994 20.3909 8.94994L13.4609 3.40994C13.0609 3.08994 12.5209 2.92994 11.9909 2.92994Z" fill="#8A99AF"/>
</svg>
