<svg width="19" height="19" viewBox="0 0 19 19" fill="none" xmlns="http://www.w3.org/2000/svg">
<path d="M14.3195 10.14H10.5195V13.94C10.5195 14.358 10.1775 14.7 9.75945 14.7C9.34145 14.7 8.99945 14.358 8.99945 13.94V10.14H5.19945C4.78145 10.14 4.43945 9.79798 4.43945 9.37998C4.43945 8.96198 4.78145 8.61998 5.19945 8.61998H8.99945V4.81998C8.99945 4.40198 9.34145 4.05998 9.75945 4.05998C10.1775 4.05998 10.5195 4.40198 10.5195 4.81998V8.61998H14.3195C14.7375 8.61998 15.0795 8.96198 15.0795 9.37998C15.0795 9.79798 14.7375 10.14 14.3195 10.14Z" fill="white"/>
</svg>
