<svg width="17" height="16" viewBox="0 0 17 16" fill="none" xmlns="http://www.w3.org/2000/svg">
<g clip-path="url(#clip0_377_2354)">
<path fill-rule="evenodd" clip-rule="evenodd" d="M6.0282 8.47136C5.90322 8.34634 5.83301 8.1768 5.83301 8.00003C5.83301 7.82325 5.90322 7.65371 6.0282 7.52869L9.79953 3.75736C9.86103 3.69369 9.93459 3.6429 10.0159 3.60796C10.0973 3.57302 10.1847 3.55463 10.2733 3.55386C10.3618 3.55309 10.4496 3.56996 10.5315 3.60348C10.6134 3.637 10.6879 3.6865 10.7505 3.7491C10.8131 3.81169 10.8626 3.88612 10.8961 3.96806C10.9296 4.04999 10.9465 4.13777 10.9457 4.22629C10.9449 4.31481 10.9265 4.40229 10.8916 4.48363C10.8567 4.56496 10.8059 4.63853 10.7422 4.70003L7.4422 8.00003L10.7422 11.3C10.8636 11.4258 10.9308 11.5942 10.9293 11.769C10.9278 11.9438 10.8577 12.111 10.7341 12.2346C10.6105 12.3582 10.4433 12.4283 10.2685 12.4298C10.0937 12.4313 9.92527 12.3641 9.79953 12.2427L6.0282 8.47136Z" fill="white"/>
</g>
<defs>
<clipPath id="clip0_377_2354">
<rect width="16" height="16" fill="white" transform="translate(0.5)"/>
</clipPath>
</defs>
</svg>
