<svg width="100" height="35" viewBox="0 0 100 35" fill="none" xmlns="http://www.w3.org/2000/svg">
<path d="M7.41891 15.5253V18.4253C7.41891 18.772 7.50557 19.012 7.67891 19.1453C7.86557 19.2786 8.15891 19.3453 8.55891 19.3453H8.93891L9.05891 20.8053L8.93891 22.2253H8.55891C8.11891 22.2253 7.73224 22.1186 7.39891 21.9053C7.26557 23.612 6.70557 24.932 5.71891 25.8653C4.73224 26.7986 3.37224 27.2653 1.63891 27.2653H0.378906V24.3853H1.63891C2.47891 24.3853 3.12557 24.2853 3.57891 24.0853C4.04557 23.8986 4.37224 23.572 4.55891 23.1053C4.75891 22.652 4.85891 22.0053 4.85891 21.1653V15.5253H7.41891ZM8.71594 19.3453H10.6559C11.6826 19.3453 12.1759 18.9453 12.1359 18.1453C12.0959 17.5586 11.9226 16.452 11.6159 14.8253L13.9959 14.2253C14.4493 16.1853 14.6759 17.5853 14.6759 18.4253C14.6759 19.0786 14.5293 19.6986 14.2359 20.2853C13.9559 20.8586 13.5226 21.3253 12.9359 21.6853C12.3626 22.0453 11.6693 22.2253 10.8559 22.2253H8.71594V19.3453ZM9.97594 24.6453H12.6359V27.2453H9.97594V24.6453ZM24.1347 12.6653L25.3347 17.6053C25.4814 18.2586 25.7747 18.712 26.2147 18.9653C26.6547 19.2186 27.2214 19.3453 27.9147 19.3453H28.3147L28.4747 20.7453L28.3147 22.2253H27.9147C27.0614 22.2253 26.2414 22.0453 25.4547 21.6853C24.6814 21.3253 24.048 20.7586 23.5547 19.9853C23.168 20.452 22.7214 20.812 22.2147 21.0653C21.7214 21.3053 21.2014 21.4253 20.6547 21.4253C19.9747 21.4253 19.308 21.2386 18.6547 20.8653C17.9747 20.5053 17.4547 19.9853 17.0947 19.3053C16.7347 18.612 16.5547 17.8853 16.5547 17.1253C16.5547 16.3253 16.7414 15.6186 17.1147 15.0053C17.328 14.6186 17.5614 14.2986 17.8147 14.0453C18.0814 13.7786 18.4814 13.492 19.0147 13.1853C19.5614 12.8786 20.3414 12.5053 21.3547 12.0653L21.0947 10.9653L23.5747 10.3253L24.1347 12.6653ZM19.3147 16.4853C19.168 16.6986 19.0947 16.9386 19.0947 17.2053C19.0947 17.432 19.148 17.6586 19.2547 17.8853C19.3747 18.0986 19.5414 18.272 19.7547 18.4053C20.008 18.5786 20.3014 18.6653 20.6347 18.6653C20.8747 18.6653 21.108 18.612 21.3347 18.5053C21.5747 18.3986 21.788 18.2453 21.9747 18.0453C22.268 17.7386 22.4147 17.3253 22.4147 16.8053C22.4147 16.712 22.4014 16.5453 22.3747 16.3053L22.0147 14.8253C21.108 15.1986 20.468 15.5053 20.0947 15.7453C19.7214 15.9853 19.4614 16.232 19.3147 16.4853ZM28.1109 19.3453H28.6309C28.8976 19.3453 29.0976 19.2853 29.2309 19.1653C29.3776 19.032 29.4843 18.8186 29.5509 18.5253L30.0709 16.6053C30.3643 15.4453 30.8576 14.5586 31.5509 13.9453C32.2443 13.332 33.0776 13.0253 34.0509 13.0253C34.8243 13.0253 35.5109 13.2386 36.1109 13.6653C36.7243 14.0786 37.2043 14.6586 37.5509 15.4053C37.8976 16.1386 38.0709 16.9653 38.0709 17.8853C38.0709 18.992 37.8909 19.8986 37.5309 20.6053C37.1709 21.2986 36.7176 21.8053 36.1709 22.1253C35.6376 22.432 35.0776 22.5853 34.4909 22.5853C34.0376 22.5853 33.5576 22.492 33.0509 22.3053C32.5576 22.132 31.8176 21.812 30.8309 21.3453C30.5243 21.6253 30.1843 21.8453 29.8109 22.0053C29.4376 22.152 29.0576 22.2253 28.6709 22.2253H28.1109V19.3453ZM32.0509 18.9253C32.7709 19.2586 33.3043 19.4853 33.6509 19.6053C33.9976 19.7253 34.3109 19.7853 34.5909 19.7853C35.3243 19.7853 35.6909 19.1586 35.6909 17.9053C35.6909 17.2253 35.5443 16.7053 35.2509 16.3453C34.9576 15.972 34.5776 15.7853 34.1109 15.7853C33.7243 15.7853 33.3843 15.9253 33.0909 16.2053C32.7976 16.4853 32.5843 16.892 32.4509 17.4253L32.0509 18.9253ZM44.6656 22.2253C43.2656 22.2253 42.2323 21.8186 41.5656 21.0053C40.9123 20.192 40.5856 19.0986 40.5856 17.7253V8.86531H43.1256V17.7253C43.1256 18.232 43.1523 18.592 43.2056 18.8053C43.2723 19.0186 43.4056 19.1653 43.6056 19.2453C43.819 19.312 44.1723 19.3453 44.6656 19.3453H45.3856L45.5056 20.8253L45.3856 22.2253H44.6656ZM45.1612 19.3453H47.1013C48.1279 19.3453 48.6213 18.9453 48.5813 18.1453C48.5413 17.5586 48.3679 16.452 48.0613 14.8253L50.4413 14.2253C50.8946 16.1853 51.1213 17.5853 51.1213 18.4253C51.1213 19.0786 50.9746 19.6986 50.6813 20.2853C50.4013 20.8586 49.9679 21.3253 49.3813 21.6853C48.8079 22.0453 48.1146 22.2253 47.3013 22.2253H45.1612V19.3453ZM46.9013 9.40531H49.5613V12.0053H46.9013V9.40531Z" fill="white"/>
<path fill-rule="evenodd" clip-rule="evenodd" d="M93.9461 6.05408H79.6758V0H100V20.3244H93.9461V6.05408Z" fill="#4A6DFF"/>
<path fill-rule="evenodd" clip-rule="evenodd" d="M82.7989 18.1007C81.8745 17.4829 80.7876 17.1532 79.6757 17.1532V11.0992C81.985 11.0992 84.2424 11.7839 86.1624 13.0669C88.0825 14.3498 89.579 16.1733 90.4627 18.3068C91.3464 20.4402 91.5776 22.7878 91.1271 25.0527C90.6766 27.3176 89.5646 29.398 87.9317 31.0309C86.2988 32.6638 84.2184 33.7758 81.9535 34.2263C79.6887 34.6768 77.3411 34.4456 75.2076 33.5618C73.0741 32.6781 71.2506 31.1816 69.9677 29.2616C68.6848 27.3415 68 25.0841 68 22.7749L74.0541 22.7749C74.0541 23.8867 74.3838 24.9736 75.0015 25.8981C75.6192 26.8226 76.4972 27.5431 77.5244 27.9686C78.5516 28.3941 79.682 28.5054 80.7725 28.2885C81.8629 28.0716 82.8646 27.5362 83.6508 26.75C84.437 25.9638 84.9724 24.9621 85.1894 23.8716C85.4063 22.7811 85.2949 21.6508 84.8695 20.6236C84.444 19.5963 83.7234 18.7184 82.7989 18.1007Z" fill="#2EB9FF"/>
</svg>
