<svg width="100" height="27" viewBox="0 0 100 27" fill="none" xmlns="http://www.w3.org/2000/svg">
<path d="M6.00156 18.269C5.0949 18.269 4.3149 18.069 3.66156 17.669C3.00823 17.269 2.50823 16.7356 2.16156 16.069C1.82823 15.4023 1.66156 14.6756 1.66156 13.889C1.66156 13.4756 1.70823 13.0823 1.80156 12.709C2.0549 11.4956 2.22823 10.7156 2.32156 10.369L5.24156 11.089L5.10156 11.729C4.94156 12.3956 4.8349 12.9223 4.78156 13.309L4.76156 13.529C4.76156 13.8756 4.86823 14.1556 5.08156 14.369C5.2949 14.569 5.60156 14.669 6.00156 14.669H12.4216C12.6082 14.669 12.7549 14.6223 12.8616 14.529C12.9816 14.4356 13.0416 14.3156 13.0416 14.169C13.0416 13.9823 12.9549 13.8023 12.7816 13.629L8.98156 9.78898L9.68156 5.82898L16.2816 2.92898L17.5616 6.20898L12.4416 8.46898L15.1616 11.229C15.6016 11.6823 15.9282 12.1756 16.1416 12.709C16.3682 13.229 16.4816 13.769 16.4816 14.329C16.4816 15.0223 16.3149 15.669 15.9816 16.269C15.6482 16.869 15.1616 17.3556 14.5216 17.729C13.8949 18.089 13.1616 18.269 12.3216 18.269H6.00156ZM23.6661 8.46898C25.1594 10.789 25.8661 11.889 25.7861 11.769C26.3594 12.689 26.6461 13.6023 26.6461 14.509C26.6461 15.2823 26.4328 15.9756 26.0061 16.589C25.5928 17.1756 25.0861 17.6023 24.4861 17.869C23.8994 18.1356 23.1528 18.269 22.2461 18.269H21.1861C20.2794 18.269 19.4861 18.109 18.8061 17.789C18.1261 17.469 17.6061 17.1356 17.2461 16.789L18.6861 13.969C18.9394 14.1156 19.2794 14.269 19.7061 14.429C20.1461 14.589 20.6528 14.669 21.2261 14.669H22.1261C22.5528 14.669 22.8528 14.649 23.0261 14.609C23.1994 14.569 23.3194 14.5023 23.3861 14.409C23.4261 14.3423 23.4461 14.2756 23.4461 14.209C23.4461 14.0623 23.3394 13.8356 23.1261 13.529L21.3061 10.869L20.0661 9.04898L22.7461 7.04898L23.6661 8.46898ZM33.1123 18.269C31.659 18.269 30.5523 17.8356 29.7923 16.969C29.0323 16.089 28.6523 14.9623 28.6523 13.589V4.66898H31.8323V13.589C31.8323 13.949 31.8523 14.2023 31.8923 14.349C31.9457 14.4823 32.0523 14.569 32.2123 14.609C32.3857 14.649 32.6857 14.669 33.1123 14.669H34.1123L34.2323 16.529L34.1123 18.269H33.1123ZM40.0395 11.209V14.149C40.0395 14.3623 40.0995 14.5023 40.2195 14.569C40.3529 14.6356 40.5662 14.669 40.8595 14.669H41.3595L41.4995 16.609L41.3595 18.269H40.8595C40.4462 18.269 40.0195 18.2023 39.5795 18.069C39.1395 17.9223 38.7329 17.709 38.3595 17.429C37.9862 17.6956 37.5662 17.9023 37.0995 18.049C36.6329 18.1956 36.1595 18.269 35.6795 18.269H33.9195V14.669H35.6795C36.1462 14.669 36.4529 14.6356 36.5995 14.569C36.7595 14.5023 36.8395 14.3623 36.8395 14.149V11.209H40.0395ZM36.8795 5.76898H39.9795V8.76898H36.8795V5.76898ZM41.1656 14.669H42.7856C43.1323 14.669 43.3856 14.6023 43.5456 14.469C43.7056 14.3356 43.7856 14.1156 43.7856 13.809V11.209H46.9856V13.749C46.9856 14.0423 47.0856 14.269 47.2856 14.429C47.4856 14.589 47.719 14.669 47.9856 14.669C48.2523 14.669 48.4856 14.589 48.6856 14.429C48.8856 14.2556 48.9856 14.029 48.9856 13.749L48.9656 11.209H52.1656L52.1456 13.749C52.1456 14.0423 52.2323 14.269 52.4056 14.429C52.579 14.589 52.799 14.669 53.0656 14.669C53.359 14.669 53.619 14.5823 53.8456 14.409C54.0723 14.2223 54.159 13.9623 54.1056 13.629L53.5656 10.569L56.5456 9.82898C56.999 11.7223 57.2256 13.1223 57.2256 14.029C57.2256 15.229 56.8923 16.2356 56.2256 17.049C55.559 17.8623 54.5056 18.269 53.0656 18.269C52.0523 18.269 51.219 17.9156 50.5656 17.209C50.2723 17.5023 49.8856 17.7556 49.4056 17.969C48.939 18.169 48.4256 18.269 47.8656 18.269C47.399 18.269 46.899 18.1623 46.3656 17.949C45.8456 17.7223 45.4923 17.4756 45.3056 17.209C45.119 17.5023 44.7856 17.7556 44.3056 17.969C43.8256 18.169 43.259 18.269 42.6056 18.269H41.1656V14.669ZM59.6188 4.66898H62.7988V18.269H59.6188V4.66898Z" fill="white"/>
<rect width="20.6266" height="2.73152" transform="matrix(0.865696 0.50057 -0.503748 0.86385 82.1436 0)" fill="white"/>
<rect width="17.8763" height="2.60569" transform="matrix(0.865642 0.500664 -0.503982 0.863714 83.335 0.6875)" fill="white"/>
<rect width="20.6266" height="2.73152" transform="matrix(0.865696 0.50057 -0.503748 0.86385 78.876 4.97223)" fill="white"/>
<rect width="17.8763" height="2.60569" transform="matrix(0.865642 0.500664 -0.503982 0.863714 80.0674 5.65961)" fill="white"/>
<rect width="11.7515" height="3.94044" transform="matrix(1.00156 -0.0383336 0.444541 0.893156 79.0898 18.0023)" fill="#F2A816"/>
<rect width="11.8348" height="4.10307" transform="matrix(-0.463908 -0.883303 -1.0007 0.0571722 84.6943 21.2086)" fill="#F2A816"/>
</svg>
