<svg width="21" height="20" viewBox="0 0 21 20" fill="none" xmlns="http://www.w3.org/2000/svg">
<path d="M3.83398 6.25002V2.50002C3.83398 2.27901 3.92178 2.06704 4.07806 1.91076C4.23434 1.75448 4.4463 1.66669 4.66732 1.66669H16.334C16.555 1.66669 16.767 1.75448 16.9232 1.91076C17.0795 2.06704 17.1673 2.27901 17.1673 2.50002V17.5C17.1673 17.721 17.0795 17.933 16.9232 18.0893C16.767 18.2456 16.555 18.3334 16.334 18.3334H4.66732C4.4463 18.3334 4.23434 18.2456 4.07806 18.0893C3.92178 17.933 3.83398 17.721 3.83398 17.5V13.75" stroke="white" stroke-linecap="round" stroke-linejoin="round"/>
<path d="M13.417 6.25H14.667M12.167 9.58333H14.667M12.167 12.9167H14.667" stroke="white" stroke-linecap="round"/>
<path d="M4.66699 8.75L7.16699 11.25M7.16699 8.75L4.66699 11.25M2.16699 6.25H9.66699V13.75H2.16699V6.25Z" stroke="white" stroke-linecap="round" stroke-linejoin="round"/>
</svg>
