<svg width="12" height="16" viewBox="0 0 12 16" fill="none" xmlns="http://www.w3.org/2000/svg">
<path d="M10.875 6.00002C10.8752 5.05177 10.5989 4.12403 10.0799 3.33044C9.56082 2.53685 8.8216 1.91186 7.95274 1.53203C7.08389 1.15219 6.12311 1.034 5.1881 1.19193C4.25309 1.34985 3.38443 1.77704 2.68852 2.42117C1.99262 3.0653 1.49967 3.8984 1.27007 4.81844C1.04046 5.73848 1.08416 6.70551 1.39582 7.60108C1.70748 8.49666 2.27356 9.2819 3.02473 9.86063C3.77591 10.4394 4.67956 10.7865 5.625 10.8594V12.625H3.5C3.40054 12.625 3.30516 12.6645 3.23484 12.7349C3.16451 12.8052 3.125 12.9006 3.125 13C3.125 13.0995 3.16451 13.1949 3.23484 13.2652C3.30516 13.3355 3.40054 13.375 3.5 13.375H5.625V15C5.625 15.0995 5.66451 15.1949 5.73484 15.2652C5.80516 15.3355 5.90054 15.375 6 15.375C6.09946 15.375 6.19484 15.3355 6.26517 15.2652C6.33549 15.1949 6.375 15.0995 6.375 15V13.375H8.5C8.59946 13.375 8.69484 13.3355 8.76517 13.2652C8.83549 13.1949 8.875 13.0995 8.875 13C8.875 12.9006 8.83549 12.8052 8.76517 12.7349C8.69484 12.6645 8.59946 12.625 8.5 12.625H6.375V10.8594C7.5987 10.7637 8.74139 10.2104 9.57538 9.3098C10.4094 8.40922 10.8734 7.22745 10.875 6.00002ZM1.875 6.00002C1.875 5.18418 2.11693 4.38665 2.57019 3.7083C3.02345 3.02994 3.66769 2.50123 4.42143 2.18902C5.17518 1.87681 6.00458 1.79512 6.80475 1.95428C7.60492 2.11345 8.33993 2.50632 8.91682 3.08321C9.49371 3.6601 9.88658 4.3951 10.0457 5.19528C10.2049 5.99545 10.1232 6.82485 9.811 7.57859C9.49879 8.33234 8.97008 8.97658 8.29173 9.42984C7.61338 9.8831 6.81585 10.125 6 10.125C4.90639 10.1237 3.85795 9.68868 3.08465 8.91538C2.31135 8.14208 1.87632 7.09364 1.875 6.00002Z" stroke="#8A99AF" stroke-width="0.75"/>
</svg>
