<svg width="60" height="61" viewBox="0 0 60 61" fill="none" xmlns="http://www.w3.org/2000/svg">
<circle cx="30" cy="30.5" r="29.4944" fill="#40B453" fill-opacity="0.1" stroke="#40B453" stroke-width="1.01124"/>
<g clip-path="url(#clip0_358_14758)">
<path d="M33.4944 17.734L36.6364 20.8759H33.4944V17.734Z" stroke="#40B453" stroke-width="2.69663"/>
<mask id="path-3-inside-1_358_14758" fill="white">
<path d="M40.7387 29.4492L39.9426 28.9291C39.8127 28.8443 39.6387 28.8807 39.5538 29.0106L35.2676 35.5694L34.4434 35.0309L38.7296 28.4721C38.8145 28.342 38.7781 28.1681 38.6481 28.0832L37.8521 27.563C37.7221 27.4781 37.5481 27.5146 37.4632 27.6445L31.0455 37.4653C31.0183 37.507 31.0026 37.5553 31.0001 37.6051L30.8324 41.0133C30.8275 41.1128 30.8757 41.2078 30.9593 41.2621C31.0428 41.3167 31.1491 41.3229 31.2382 41.2785L34.2923 39.7563C34.337 39.7341 34.3749 39.7002 34.4023 39.6584L40.8199 29.8377C40.905 29.7082 40.8685 29.5342 40.7387 29.4492Z"/>
</mask>
<path d="M40.7387 29.4492L42.2154 27.1929L42.2136 27.1917L40.7387 29.4492ZM39.9426 28.9291L41.4176 26.6716L41.4166 26.671L39.9426 28.9291ZM39.5538 29.0106L37.2967 27.535L37.2964 27.5355L39.5538 29.0106ZM35.2676 35.5694L33.7926 37.8269L36.0499 39.3018L37.525 37.0446L35.2676 35.5694ZM34.4434 35.0309L32.186 33.5557L30.7108 35.8132L32.9684 37.2884L34.4434 35.0309ZM38.7296 28.4721L40.9869 29.9472L40.987 29.9472L38.7296 28.4721ZM38.6481 28.0832L37.173 30.3406L37.1733 30.3408L38.6481 28.0832ZM37.8521 27.563L39.3272 25.3056L39.3269 25.3054L37.8521 27.563ZM37.4632 27.6445L39.7206 29.1197L39.7214 29.1185L37.4632 27.6445ZM31.0455 37.4653L28.7881 35.9901L28.7878 35.9907L31.0455 37.4653ZM31.0001 37.6051L28.307 37.4675L28.3067 37.4725L31.0001 37.6051ZM30.8324 41.0133L28.139 40.8808L28.139 40.8814L30.8324 41.0133ZM30.9593 41.2621L32.4343 39.0047L32.429 39.0012L30.9593 41.2621ZM31.2382 41.2785L30.0353 38.865L30.0345 38.8654L31.2382 41.2785ZM34.2923 39.7563L33.0985 37.3382L33.0894 37.3428L34.2923 39.7563ZM34.4023 39.6584L36.6577 41.1366L36.6597 41.1336L34.4023 39.6584ZM40.8199 29.8377L38.5667 28.3561L38.5625 28.3626L40.8199 29.8377ZM42.2136 27.1917L41.4176 26.6716L38.4677 31.1866L39.2637 31.7067L42.2136 27.1917ZM41.4166 26.671C40.0414 25.7734 38.197 26.158 37.2967 27.535L41.8108 30.4863C41.0804 31.6034 39.584 31.9153 38.4687 31.1873L41.4166 26.671ZM37.2964 27.5355L33.0103 34.0942L37.525 37.0446L41.8111 30.4858L37.2964 27.5355ZM36.7426 33.3119L35.9184 32.7734L32.9684 37.2884L33.7926 37.8269L36.7426 33.3119ZM36.7008 36.5061L40.9869 29.9472L36.4722 26.9969L32.186 33.5557L36.7008 36.5061ZM40.987 29.9472C41.8861 28.5712 41.5008 26.7257 40.1229 25.8256L37.1733 30.3408C36.0554 29.6105 35.743 28.1128 36.4721 26.997L40.987 29.9472ZM40.1232 25.8258L39.3272 25.3056L36.377 29.8204L37.173 30.3406L40.1232 25.8258ZM39.3269 25.3054C37.9515 24.4069 36.1053 24.7914 35.2051 26.1706L39.7214 29.1185C38.9908 30.2377 37.4928 30.5494 36.3773 29.8206L39.3269 25.3054ZM35.2059 26.1694L28.7881 35.9901L33.3029 38.9404L39.7206 29.1197L35.2059 26.1694ZM28.7878 35.9907C28.4977 36.4348 28.3337 36.945 28.307 37.4675L33.6932 37.7426C33.6716 38.1656 33.5388 38.5793 33.3033 38.9399L28.7878 35.9907ZM28.3067 37.4725L28.139 40.8808L33.5257 41.1459L33.6935 37.7376L28.3067 37.4725ZM28.139 40.8814C28.0875 41.933 28.596 42.9422 29.4896 43.5231L32.429 39.0012C33.1554 39.4734 33.5675 40.2926 33.5258 41.1452L28.139 40.8814ZM29.4842 43.5196C30.369 44.0977 31.4949 44.1639 32.4419 43.6915L30.0345 38.8654C30.8034 38.4818 31.7167 38.5358 32.4343 39.0047L29.4842 43.5196ZM32.4411 43.6919L35.4952 42.1697L33.0894 37.3428L30.0353 38.865L32.4411 43.6919ZM35.486 42.1743C35.9722 41.9343 36.3728 41.5714 36.6577 41.1366L32.1469 38.1802C32.377 37.8291 32.7019 37.534 33.0985 37.3382L35.486 42.1743ZM36.6597 41.1336L43.0773 31.3129L38.5625 28.3626L32.1449 38.1833L36.6597 41.1336ZM43.073 31.3194C43.9823 29.9366 43.5862 28.0901 42.2154 27.1929L39.2619 31.7055C38.1507 30.9783 37.8278 29.4799 38.5667 28.3561L43.073 31.3194Z" fill="#40B453" mask="url(#path-3-inside-1_358_14758)"/>
<path d="M39.8579 26.4435L40.6369 25.2515L41.7363 25.97L40.9574 27.1619L39.8579 26.4435Z" stroke="#40B453" stroke-width="2.69663"/>
<mask id="path-6-inside-2_358_14758" fill="white">
<path d="M20.9035 21.8456H26.4124C26.8024 21.8456 27.1186 21.5294 27.1186 21.1394C27.1186 20.7494 26.8024 20.4331 26.4124 20.4331H20.9035C20.5135 20.4331 20.1973 20.7494 20.1973 21.1394C20.1973 21.5294 20.5136 21.8456 20.9035 21.8456Z"/>
</mask>
<path d="M20.9035 24.5423H26.4124V19.149H20.9035V24.5423ZM26.4124 24.5423C28.2919 24.5423 29.8152 23.0185 29.8152 21.1394H24.422C24.422 20.0402 25.3129 19.149 26.4124 19.149V24.5423ZM29.8152 21.1394C29.8152 19.2602 28.2919 17.7365 26.4124 17.7365V23.1297C25.3129 23.1297 24.422 22.2385 24.422 21.1394H29.8152ZM26.4124 17.7365H20.9035V23.1297H26.4124V17.7365ZM20.9035 17.7365C19.024 17.7365 17.5006 19.2602 17.5006 21.1394H22.8939C22.8939 22.2385 22.0029 23.1297 20.9035 23.1297V17.7365ZM17.5006 21.1394C17.5006 23.0188 19.0245 24.5423 20.9035 24.5423V19.149C22.0027 19.149 22.8939 20.0399 22.8939 21.1394H17.5006Z" fill="#40B453" mask="url(#path-6-inside-2_358_14758)"/>
<mask id="path-8-inside-3_358_14758" fill="white">
<path d="M31.3562 24.6705C31.3562 24.2805 31.0398 23.9642 30.6499 23.9642H20.9035C20.5135 23.9642 20.1973 24.2805 20.1973 24.6705C20.1973 25.0605 20.5135 25.3768 20.9035 25.3768H30.6499C31.04 25.3768 31.3562 25.0605 31.3562 24.6705Z"/>
</mask>
<path d="M34.0528 24.6705C34.0528 22.791 32.529 21.2676 30.6499 21.2676V26.6609C29.5507 26.6609 28.6595 25.77 28.6595 24.6705H34.0528ZM30.6499 21.2676H20.9035V26.6609H30.6499V21.2676ZM20.9035 21.2676C19.024 21.2676 17.5006 22.7914 17.5006 24.6705H22.8939C22.8939 25.7696 22.0029 26.6609 20.9035 26.6609V21.2676ZM17.5006 24.6705C17.5006 26.5496 19.024 28.0734 20.9035 28.0734V22.6801C22.0029 22.6801 22.8939 23.5714 22.8939 24.6705H17.5006ZM20.9035 28.0734H30.6499V22.6801H20.9035V28.0734ZM30.6499 28.0734C32.5295 28.0734 34.0528 26.5496 34.0528 24.6705H28.6595C28.6595 23.5714 29.5505 22.6801 30.6499 22.6801V28.0734Z" fill="#40B453" mask="url(#path-8-inside-3_358_14758)"/>
<mask id="path-10-inside-4_358_14758" fill="white">
<path d="M20.9035 28.9081H26.4124C26.8024 28.9081 27.1186 28.5919 27.1186 28.2019C27.1186 27.8119 26.8024 27.4956 26.4124 27.4956H20.9035C20.5135 27.4956 20.1973 27.8119 20.1973 28.2019C20.1973 28.5919 20.5136 28.9081 20.9035 28.9081Z"/>
</mask>
<path d="M20.9035 31.6048H26.4124V26.2115H20.9035V31.6048ZM26.4124 31.6048C28.2919 31.6048 29.8152 30.081 29.8152 28.2019H24.422C24.422 27.1027 25.3129 26.2115 26.4124 26.2115V31.6048ZM29.8152 28.2019C29.8152 26.3227 28.2919 24.799 26.4124 24.799V30.1922C25.3129 30.1922 24.422 29.301 24.422 28.2019H29.8152ZM26.4124 24.799H20.9035V30.1922H26.4124V24.799ZM20.9035 24.799C19.024 24.799 17.5006 26.3227 17.5006 28.2019H22.8939C22.8939 29.301 22.0029 30.1922 20.9035 30.1922V24.799ZM17.5006 28.2019C17.5006 30.0813 19.0245 31.6048 20.9035 31.6048V26.2115C22.0027 26.2115 22.8939 27.1024 22.8939 28.2019H17.5006Z" fill="#40B453" mask="url(#path-10-inside-4_358_14758)"/>
<mask id="path-12-inside-5_358_14758" fill="white">
<path d="M20.9035 32.4395H26.4124C26.8024 32.4395 27.1186 32.1232 27.1186 31.7332C27.1186 31.3433 26.8024 31.027 26.4124 31.027H20.9035C20.5135 31.027 20.1973 31.3433 20.1973 31.7332C20.1973 32.1232 20.5136 32.4395 20.9035 32.4395Z"/>
</mask>
<path d="M20.1973 31.7332H17.5006H20.1973ZM20.9035 35.1361H26.4124V29.7429H20.9035V35.1361ZM26.4124 35.1361C28.2919 35.1361 29.8152 33.6124 29.8152 31.7332H24.422C24.422 30.6341 25.3129 29.7429 26.4124 29.7429V35.1361ZM29.8152 31.7332C29.8152 29.8544 28.2921 28.3303 26.4124 28.3303V33.7236C25.3128 33.7236 24.422 32.8323 24.422 31.7332H29.8152ZM26.4124 28.3303H20.9035V33.7236H26.4124V28.3303ZM20.9035 28.3303C19.0238 28.3303 17.5006 29.8544 17.5006 31.7332H22.8939C22.8939 32.8323 22.0031 33.7236 20.9035 33.7236V28.3303ZM17.5006 31.7332C17.5006 33.6127 19.0245 35.1361 20.9035 35.1361V29.7429C22.0027 29.7429 22.8939 30.6338 22.8939 31.7332L17.5006 31.7332Z" fill="#40B453" mask="url(#path-12-inside-5_358_14758)"/>
<mask id="path-14-inside-6_358_14758" fill="white">
<path d="M21.2036 41.5667C21.0661 41.7444 21.3141 41.9962 21.4533 41.8162C21.8921 41.2493 22.2545 40.6388 22.5571 39.9944C22.746 40.113 22.9939 40.0892 23.1973 40.0089C23.4905 39.8933 23.739 39.6701 23.9757 39.4682C24.1156 39.3489 24.2785 39.1518 24.4721 39.1329C24.62 39.1187 24.8198 39.2378 24.9676 39.2631C25.3538 39.329 25.805 39.2171 26.1779 39.125C26.5318 39.0376 26.9462 38.8994 27.1545 38.579C27.279 38.3874 26.9731 38.2106 26.8496 38.4009C26.6829 38.6574 26.2757 38.7374 26.0006 38.8053C25.6776 38.8852 25.3028 38.964 24.97 38.9072C24.7191 38.8645 24.5162 38.7128 24.2583 38.8277C23.9128 38.9817 23.6489 39.3052 23.3437 39.5237C23.2072 39.6214 23.0512 39.7153 22.8804 39.7286C22.8102 39.734 22.7529 39.7082 22.7053 39.6653C22.7429 39.5781 22.7802 39.4905 22.8157 39.4022C23.1601 38.5473 23.3158 37.6792 23.4756 36.7787C23.5568 36.3211 23.6919 35.6001 23.0361 35.5561C22.4566 35.5174 21.9558 36.3533 21.7706 36.7938C21.605 37.1877 21.5866 37.6454 21.5992 38.066C21.6071 38.3282 21.7014 38.6004 21.771 38.8714C21.2149 38.9606 20.7247 39.5223 20.8106 40.0791C20.8951 40.6271 21.5803 40.3441 21.8362 40.1414C22.0952 39.9362 22.179 39.6799 22.1817 39.4035C22.2334 39.4886 22.2765 39.5906 22.3212 39.6861C22.0228 40.3554 21.6487 40.9916 21.2036 41.5667ZM21.8225 39.5679C21.7703 39.8008 21.4756 40.0308 21.2435 40.0522C21.0609 40.0692 21.1723 39.7431 21.2084 39.6702C21.3217 39.4412 21.6023 39.2918 21.8383 39.2274C21.8493 39.3423 21.8475 39.4561 21.8225 39.5679ZM22.1175 38.8841C22.0574 38.6033 21.974 38.3213 21.9523 38.0661C21.9105 37.5735 21.998 37.0573 22.2423 36.6264C22.395 36.3572 22.7061 35.9446 23.0361 35.9093C23.3308 35.878 23.1511 36.5947 23.1256 36.7387C23.0467 37.1833 22.9904 37.6245 22.8804 38.0639C22.7783 38.472 22.6489 38.8761 22.4942 39.2712C22.4119 39.0665 22.3048 38.9354 22.1175 38.8841Z"/>
</mask>
<path d="M21.2036 41.5667L19.0711 39.9161L19.0709 39.9163L21.2036 41.5667ZM21.4533 41.8162L19.3209 40.1655L19.32 40.1666L21.4533 41.8162ZM22.5571 39.9944L23.9911 37.7106L21.4112 36.0907L20.1163 38.8481L22.5571 39.9944ZM23.1973 40.0089L22.208 37.5003L22.2064 37.5009L23.1973 40.0089ZM23.9757 39.4682L22.2255 37.4167L22.2255 37.4168L23.9757 39.4682ZM24.4721 39.1329L24.2145 36.4486L24.2108 36.449L24.4721 39.1329ZM24.9676 39.2631L24.5117 41.9209L24.5146 41.9214L24.9676 39.2631ZM26.1779 39.125L25.5316 36.5069L25.5309 36.5071L26.1779 39.125ZM27.1545 38.579L24.8936 37.1092L24.8935 37.1094L27.1545 38.579ZM26.8496 38.4009L29.1105 39.8706L29.1117 39.8689L26.8496 38.4009ZM26.0006 38.8053L25.3541 36.1873L25.3531 36.1876L26.0006 38.8053ZM24.97 38.9072L25.4235 36.2489L25.422 36.2487L24.97 38.9072ZM24.2583 38.8277L23.1609 36.3645L23.1607 36.3646L24.2583 38.8277ZM23.3437 39.5237L21.7739 37.3311L21.7739 37.3311L23.3437 39.5237ZM22.8804 39.7286L22.6725 37.04L22.6724 37.04L22.8804 39.7286ZM22.7053 39.6653L20.229 38.5977L19.4637 40.3728L20.899 41.6676L22.7053 39.6653ZM22.8157 39.4022L20.3144 38.3946L20.3137 38.3962L22.8157 39.4022ZM23.4756 36.7787L20.8205 36.3074L20.8205 36.3075L23.4756 36.7787ZM23.0361 35.5561L23.2166 32.8655L23.2158 32.8655L23.0361 35.5561ZM21.7706 36.7938L24.2565 37.8388L24.2565 37.8388L21.7706 36.7938ZM21.5992 38.066L24.2946 37.9854L24.2946 37.985L21.5992 38.066ZM21.771 38.8714L22.1981 41.534L25.1181 41.0656L24.383 38.2011L21.771 38.8714ZM20.8106 40.0791L18.1455 40.4902L18.1455 40.4903L20.8106 40.0791ZM21.8362 40.1414L20.1617 38.0276L20.1614 38.0279L21.8362 40.1414ZM22.1817 39.4035L24.4873 38.0048L19.5795 29.9147L19.4852 39.3766L22.1817 39.4035ZM22.3212 39.6861L24.7841 40.7841L25.2855 39.6596L24.7641 38.5442L22.3212 39.6861ZM21.8225 39.5679L24.4537 40.1583L24.4541 40.1567L21.8225 39.5679ZM21.2435 40.0522L20.9951 37.3671L20.9942 37.3671L21.2435 40.0522ZM21.2084 39.6702L23.625 40.8668L23.6254 40.866L21.2084 39.6702ZM21.8383 39.2274L24.5226 38.97L24.217 35.7828L21.1282 36.6259L21.8383 39.2274ZM22.1175 38.8841L19.4806 39.4485L19.8238 41.0521L21.4055 41.4851L22.1175 38.8841ZM21.9523 38.0661L24.6394 37.8386L24.6393 37.838L21.9523 38.0661ZM22.2423 36.6264L24.5881 37.9566L24.5882 37.9563L22.2423 36.6264ZM23.0361 35.9093L22.7508 33.2278L22.7492 33.228L23.0361 35.9093ZM23.1256 36.7387L25.7807 37.2099L25.7809 37.2089L23.1256 36.7387ZM22.8804 38.0639L25.4964 38.7186L25.4964 38.7185L22.8804 38.0639ZM22.4942 39.2712L19.992 40.2768L22.5266 46.5838L25.0052 40.2545L22.4942 39.2712ZM19.0709 39.9163C17.9753 41.3321 18.5425 42.9514 19.311 43.7255C19.7154 44.1328 20.3824 44.5506 21.2652 44.5738C22.2585 44.6 23.0855 44.1138 23.5866 43.4657L19.32 40.1666C19.7515 39.6086 20.4953 39.1584 21.4072 39.1824C22.2086 39.2035 22.7962 39.581 23.1383 39.9256C23.7824 40.5744 24.2943 41.9789 23.3362 43.217L19.0709 39.9163ZM23.5857 43.4669C24.1593 42.7258 24.6215 41.9423 24.998 41.1407L20.1163 38.8481C19.8875 39.3352 19.6249 39.7728 19.3209 40.1655L23.5857 43.4669ZM21.1232 42.2781C22.3527 43.0502 23.6098 42.7454 24.1883 42.5168L22.2064 37.5009C22.3527 37.4431 22.5672 37.3826 22.8437 37.3798C23.127 37.3768 23.5545 37.4365 23.9911 37.7106L21.1232 42.2781ZM24.1866 42.5175C24.9919 42.1999 25.6159 41.6136 25.726 41.5197L22.2255 37.4168C22.2086 37.4312 22.192 37.4453 22.1771 37.4581C22.1616 37.4714 22.1481 37.483 22.1345 37.4946C22.1075 37.5177 22.0857 37.5361 22.0662 37.5525C22.0262 37.5859 22.0065 37.6011 21.9984 37.6071C21.9909 37.6127 22.005 37.6016 22.0371 37.5826C22.0698 37.5633 22.1275 37.532 22.208 37.5003L24.1866 42.5175ZM25.7259 41.5197C25.8219 41.4378 25.9203 41.344 25.9284 41.3364C25.963 41.3039 25.9402 41.3267 25.898 41.3608C25.8552 41.3954 25.7408 41.4845 25.5665 41.5742C25.3871 41.6665 25.103 41.7808 24.7335 41.8168L24.2108 36.449C23.3117 36.5365 22.7112 37.002 22.5095 37.165C22.3849 37.2656 22.2831 37.3612 22.2418 37.3999C22.1739 37.4634 22.1995 37.4389 22.2255 37.4167L25.7259 41.5197ZM24.7298 41.8172C24.5433 41.8351 24.3852 41.8287 24.2673 41.8172C24.1493 41.8056 24.0544 41.7872 23.9902 41.7725C23.9254 41.7577 23.8767 41.7432 23.8502 41.7349C23.8235 41.7266 23.8074 41.7207 23.8096 41.7215C23.8147 41.7233 23.8186 41.7248 23.8488 41.736C23.8714 41.7444 23.9154 41.7606 23.9649 41.7778C24.015 41.7952 24.0873 41.8193 24.1727 41.8436C24.2573 41.8676 24.3736 41.8972 24.5117 41.9209L25.4235 36.6053C25.5247 36.6227 25.6023 36.643 25.6471 36.6558C25.6928 36.6687 25.724 36.6795 25.7323 36.6824C25.74 36.685 25.7414 36.6856 25.7209 36.6781C25.7081 36.6733 25.6685 36.6586 25.6302 36.6448C25.558 36.6189 25.3937 36.561 25.1921 36.5149C24.9979 36.4705 24.6461 36.4072 24.2145 36.4486L24.7298 41.8172ZM24.5146 41.9214C25.5632 42.1001 26.6007 41.7982 26.8249 41.7428L25.5309 36.5071C25.4329 36.5313 25.3652 36.548 25.3003 36.5624C25.2378 36.5763 25.1992 36.5833 25.1766 36.5867C25.1535 36.5902 25.1628 36.5874 25.1971 36.5866C25.2308 36.5857 25.3098 36.5859 25.4206 36.6048L24.5146 41.9214ZM26.8242 41.743C27.1175 41.6706 28.5654 41.3565 29.4155 40.0486L24.8935 37.1094C25.1421 36.7269 25.4405 36.5639 25.5306 36.5196C25.6177 36.4768 25.6474 36.4784 25.5316 36.5069L26.8242 41.743ZM29.4154 40.0487C29.8624 39.3612 30.0205 38.4741 29.7428 37.6146C29.4915 36.8366 28.961 36.3121 28.4499 36.0151C27.4541 35.4365 25.6208 35.3409 24.5876 36.9329L29.1117 39.8689C28.202 41.2706 26.5834 41.1682 25.7403 40.6783C25.3055 40.4257 24.8359 39.9695 24.6107 39.2726C24.3592 38.4941 24.5089 37.701 24.8936 37.1092L29.4154 40.0487ZM24.5887 36.9312C24.7872 36.6258 25.0162 36.4363 25.1735 36.3298C25.3271 36.2258 25.4499 36.1754 25.4956 36.1578C25.5443 36.139 25.5661 36.1347 25.5352 36.1429C25.4825 36.1568 25.4799 36.1563 25.3541 36.1873L26.647 41.4233C26.6749 41.4164 27.075 41.3291 27.4359 41.1899C27.7792 41.0575 28.5643 40.711 29.1105 39.8706L24.5887 36.9312ZM25.3531 36.1876C25.2884 36.2036 25.2418 36.2143 25.2041 36.2221C25.1667 36.2299 25.1487 36.2324 25.1453 36.2329C25.1415 36.2333 25.1636 36.2302 25.206 36.2299C25.2484 36.2296 25.3238 36.2319 25.4235 36.2489L24.5165 41.5654C25.4726 41.7285 26.3598 41.4944 26.648 41.4231L25.3531 36.1876ZM25.422 36.2487C25.5495 36.2704 25.6346 36.2997 25.6015 36.2892C25.5944 36.287 25.5874 36.2847 25.5698 36.2791C25.5551 36.2744 25.5318 36.2669 25.5062 36.2589C25.4559 36.2432 25.3745 36.2184 25.2776 36.1939C25.0836 36.1449 24.7702 36.0814 24.3852 36.0896C23.9805 36.0983 23.5647 36.1846 23.1609 36.3645L25.3557 41.291C25.0809 41.4134 24.7872 41.4755 24.5009 41.4817C24.2343 41.4874 24.0356 41.4429 23.956 41.4228C23.9162 41.4127 23.8919 41.4049 23.8989 41.4071C23.902 41.4081 23.9074 41.4098 23.9216 41.4143C23.9329 41.4179 23.9549 41.425 23.977 41.432C24.0605 41.4584 24.265 41.5226 24.5179 41.5656L25.422 36.2487ZM23.1607 36.3646C22.6065 36.6115 22.2057 36.9528 22.0216 37.1121C21.9702 37.1566 21.9217 37.1996 21.8863 37.231C21.847 37.2659 21.822 37.2881 21.7983 37.3087C21.75 37.3507 21.7495 37.3486 21.7739 37.3311L24.9136 41.7163C25.0905 41.5896 25.2375 41.4651 25.3352 41.3802C25.3846 41.3373 25.4323 41.2949 25.4659 41.2651C25.5034 41.2318 25.5279 41.2101 25.5501 41.1909C25.5958 41.1514 25.5964 41.1533 25.5727 41.1702C25.5463 41.1889 25.472 41.2391 25.3559 41.2908L23.1607 36.3646ZM21.7739 37.3311C21.7579 37.3425 21.8286 37.2892 21.9531 37.2291C22.0821 37.1669 22.3313 37.0663 22.6725 37.04L23.0884 42.4172C24.0554 42.3424 24.7353 41.8439 24.9136 41.7162L21.7739 37.3311ZM22.6724 37.04C23.0356 37.0119 23.4043 37.0648 23.7492 37.1969C24.0838 37.3252 24.3358 37.5044 24.5115 37.663L20.899 41.6676C21.3818 42.1031 22.1411 42.4905 23.0885 42.4171L22.6724 37.04ZM25.1816 40.7329C25.2215 40.6403 25.2694 40.5282 25.3176 40.4082L20.3137 38.3962C20.2909 38.4529 20.2642 38.5159 20.229 38.5977L25.1816 40.7329ZM25.317 40.4098C25.7822 39.255 25.9773 38.1144 26.1307 37.25L20.8205 36.3075C20.6542 37.244 20.5379 37.8397 20.3144 38.3946L25.317 40.4098ZM26.1307 37.25C26.147 37.1583 26.3186 36.3752 26.1964 35.5951C26.1255 35.1423 25.925 34.4404 25.3311 33.8264C24.6969 33.1709 23.9035 32.9116 23.2166 32.8655L22.8556 38.2467C22.4966 38.2226 21.9323 38.07 21.4547 37.5763C21.0173 37.1241 20.901 36.6394 20.8681 36.4296C20.8503 36.3157 20.8483 36.2309 20.8486 36.1878C20.8487 36.1645 20.8495 36.1472 20.8501 36.1368C20.8505 36.1315 20.8508 36.1275 20.851 36.125C20.8512 36.1224 20.8514 36.121 20.8514 36.1209C20.8514 36.1209 20.8513 36.1219 20.851 36.124C20.8507 36.1262 20.8503 36.1293 20.8498 36.1336C20.8486 36.1422 20.8468 36.154 20.8443 36.1701C20.8384 36.2064 20.832 36.2426 20.8205 36.3074L26.1307 37.25ZM23.2158 32.8655C21.5735 32.7558 20.5394 33.8513 20.2027 34.2466C19.7566 34.7702 19.4535 35.3473 19.2847 35.7487L24.2565 37.8388C24.2563 37.8394 24.2686 37.8117 24.2903 37.7747C24.3129 37.7362 24.3225 37.7272 24.3083 37.7439C24.3025 37.7507 24.2127 37.8588 24.0202 37.9758C23.8166 38.0995 23.4084 38.2836 22.8564 38.2467L23.2158 32.8655ZM19.2847 35.7487C18.8814 36.7082 18.8892 37.6618 18.9038 38.147L24.2946 37.985C24.2925 37.9131 24.2922 37.8557 24.2933 37.8084C24.2944 37.7611 24.2968 37.7308 24.2986 37.714C24.3005 37.6972 24.301 37.7009 24.2963 37.7206C24.2916 37.7406 24.2803 37.7823 24.2565 37.8388L19.2847 35.7487ZM18.9038 38.1466C18.9161 38.5568 18.9926 38.9037 19.044 39.1119C19.0707 39.22 19.0985 39.3206 19.117 39.3876C19.1386 39.4655 19.1494 39.5045 19.159 39.5418L24.383 38.2011C24.3578 38.1029 24.3307 38.0062 24.3148 37.9486C24.2958 37.8801 24.2865 37.8455 24.2799 37.8189C24.2739 37.7945 24.276 37.7997 24.28 37.8237C24.284 37.8483 24.2922 37.905 24.2946 37.9854L18.9038 38.1466ZM21.3439 36.2088C20.3408 36.3697 19.5133 36.921 18.9646 37.5903C18.4137 38.2624 17.9605 39.2908 18.1455 40.4902L23.4757 39.6681C23.5748 40.3106 23.3238 40.7798 23.1355 41.0095C22.9494 41.2365 22.6451 41.4623 22.1981 41.534L21.3439 36.2088ZM18.1455 40.4903C18.263 41.2516 18.6844 42.1297 19.5983 42.6699C20.396 43.1414 21.1832 43.1205 21.6042 43.0662C22.4092 42.9624 23.0917 42.5871 23.511 42.2548L20.1614 38.0279C20.2908 37.9253 20.3913 37.8726 20.4575 37.8423C20.5207 37.8133 20.6756 37.7481 20.9141 37.7173C21.1212 37.6906 21.7053 37.6503 22.3427 38.0271C23.0964 38.4727 23.4005 39.1807 23.4757 39.6679L18.1455 40.4903ZM23.5107 42.2551C24.5494 41.4322 24.8694 40.3216 24.8782 39.4303L19.4852 39.3766C19.4865 39.2534 19.5068 39.0138 19.6295 38.7299C19.7596 38.4285 19.9565 38.1902 20.1617 38.0276L23.5107 42.2551ZM19.8762 40.8021C19.8639 40.7819 19.8539 40.7645 19.8461 40.7505C19.8382 40.7364 19.8321 40.7249 19.8278 40.7166C19.8234 40.7082 19.8204 40.7022 19.8189 40.6991C19.8174 40.6961 19.817 40.6952 19.8179 40.6971C19.8188 40.699 19.8206 40.7028 19.8236 40.7094C19.8268 40.7162 19.8304 40.7242 19.8356 40.7355C19.8369 40.7383 19.8382 40.7411 19.8396 40.7442C19.8409 40.7472 19.8424 40.7504 19.8439 40.7536C19.8469 40.7602 19.8502 40.7675 19.8537 40.7751C19.8607 40.7903 19.8691 40.8084 19.8783 40.8281L24.7641 38.5442C24.7588 38.533 24.7537 38.5217 24.74 38.4917C24.7286 38.4669 24.7105 38.4274 24.6903 38.3847C24.652 38.3041 24.5829 38.1624 24.4873 38.0048L19.8762 40.8021ZM19.8582 38.5881C19.6415 39.0741 19.3756 39.5226 19.0711 39.9161L23.336 43.2172C23.9217 42.4606 24.404 41.6367 24.7841 40.7841L19.8582 38.5881ZM19.1913 38.9775C19.3442 38.2964 19.7346 37.9316 19.8937 37.8016C20.0631 37.6631 20.4237 37.4199 20.9951 37.3671L21.4919 42.7374C22.2954 42.6631 22.9193 42.2942 23.3072 41.9771C23.6847 41.6685 24.2487 41.0723 24.4537 40.1583L19.1913 38.9775ZM20.9942 37.3671C21.3522 37.3339 21.8784 37.3643 22.4284 37.6492C22.9967 37.9436 23.3613 38.3911 23.5676 38.8036C23.9104 39.4888 23.8347 40.0945 23.825 40.1837C23.7935 40.4768 23.7152 40.6846 23.625 40.8668L18.7918 38.4736C18.6655 38.7287 18.5134 39.136 18.4628 39.6061C18.4437 39.7838 18.3721 40.4724 18.7441 41.2163C18.9651 41.6581 19.3507 42.1289 19.9478 42.4381C20.5265 42.7379 21.0891 42.7748 21.4928 42.7373L20.9942 37.3671ZM23.6254 40.866C23.3996 41.3223 23.0877 41.5565 22.9476 41.6476C22.794 41.7476 22.6588 41.7987 22.5484 41.8288L21.1282 36.6259C20.6276 36.7626 19.4179 37.2082 18.7914 38.4744L23.6254 40.866ZM19.154 39.4848C19.1467 39.409 19.1364 39.2229 19.191 38.979L24.4541 40.1567C24.5587 39.6894 24.5519 39.2756 24.5226 38.97L19.154 39.4848ZM24.7544 38.3198C24.7326 38.2179 24.7101 38.1226 24.693 38.0505C24.6738 37.9697 24.6621 37.9212 24.6508 37.8713C24.6271 37.7663 24.6342 37.7772 24.6394 37.8386L19.2653 38.2936C19.2921 38.6103 19.3517 38.8897 19.3901 39.0598C19.4517 39.3324 19.4467 39.2902 19.4806 39.4485L24.7544 38.3198ZM24.6393 37.838C24.6382 37.8253 24.6401 37.8223 24.6378 37.8341C24.6355 37.8463 24.6252 37.8911 24.5881 37.9566L19.8966 35.2963C19.3396 36.2785 19.1858 37.3568 19.2654 38.2941L24.6393 37.838ZM24.5882 37.9563C24.5854 37.9613 24.569 37.9957 24.5006 38.0656C24.4627 38.1043 24.3663 38.1976 24.205 38.2966C24.0459 38.3943 23.745 38.5455 23.323 38.5906L22.7492 33.228C21.6378 33.3469 20.9206 34.0127 20.6448 34.2947C20.3002 34.647 20.0519 35.0223 19.8964 35.2966L24.5882 37.9563ZM23.3214 38.5908C22.7971 38.6466 22.1357 38.5439 21.5409 38.1119C20.9984 37.7179 20.7547 37.2254 20.6506 36.9457C20.5458 36.6639 20.5206 36.4355 20.5125 36.3332C20.5033 36.2176 20.5069 36.1348 20.5089 36.1011C20.5098 36.085 20.5259 35.9544 20.4703 36.2686L25.7809 37.2089C25.7508 37.3791 25.8695 36.818 25.893 36.4154C25.903 36.2437 25.9345 35.6809 25.7054 35.0652C25.5772 34.7205 25.2993 34.176 24.7103 33.7482C24.0691 33.2824 23.3488 33.1642 22.7508 33.2278L23.3214 38.5908ZM20.4704 36.2675C20.361 36.8843 20.3446 37.089 20.2645 37.4093L25.4964 38.7185C25.6362 38.1599 25.7324 37.4822 25.7807 37.2099L20.4704 36.2675ZM20.2645 37.4092C20.1907 37.7041 20.0966 37.9985 19.9832 38.288L25.0052 40.2545C25.2013 39.7537 25.3659 39.2399 25.4964 38.7186L20.2645 37.4092ZM24.9963 38.2657C24.7493 37.6511 24.1519 36.6452 22.8295 36.2832L21.4055 41.4851C21.0211 41.3799 20.6577 41.1641 20.3743 40.8606C20.1253 40.5939 20.0201 40.3467 19.992 40.2768L24.9963 38.2657Z" fill="#40B453" mask="url(#path-14-inside-6_358_14758)"/>
</g>
<defs>
<clipPath id="clip0_358_14758">
<rect width="29.6629" height="29.6629" fill="white" transform="translate(15 15.6685)"/>
</clipPath>
</defs>
</svg>
