<svg width="24" height="24" viewBox="0 0 24 24" fill="none" xmlns="http://www.w3.org/2000/svg">
<g clip-path="url(#clip0_307_42672)">
<path d="M3.2 20V20.8H4.8V20H3.2ZM11.2 20V20.8H12.8V20H11.2ZM4.8 20V19.2H3.2V20H4.8ZM11.2 19.2V20H12.8V19.2H11.2ZM8 16C8.84869 16 9.66263 16.3372 10.2627 16.9373C10.8629 17.5374 11.2 18.3513 11.2 19.2H12.8C12.8 17.927 12.2943 16.7061 11.3941 15.8059C10.4939 14.9057 9.27304 14.4 8 14.4V16ZM4.8 19.2C4.8 18.3513 5.13714 17.5374 5.73726 16.9373C6.33737 16.3372 7.15131 16 8 16V14.4C6.72696 14.4 5.50606 14.9057 4.60589 15.8059C3.70571 16.7061 3.2 17.927 3.2 19.2H4.8ZM8 6.40001C7.15131 6.40001 6.33737 6.73715 5.73726 7.33727C5.13714 7.93739 4.8 8.75132 4.8 9.60001H6.4C6.4 9.17567 6.56857 8.7687 6.86863 8.46864C7.16869 8.16858 7.57565 8.00001 8 8.00001V6.40001ZM11.2 9.60001C11.2 8.75132 10.8629 7.93739 10.2627 7.33727C9.66263 6.73715 8.84869 6.40001 8 6.40001V8.00001C8.42435 8.00001 8.83131 8.16858 9.13137 8.46864C9.43143 8.7687 9.6 9.17567 9.6 9.60001H11.2ZM8 12.8C8.84869 12.8 9.66263 12.4629 10.2627 11.8628C10.8629 11.2626 11.2 10.4487 11.2 9.60001H9.6C9.6 10.0244 9.43143 10.4313 9.13137 10.7314C8.83131 11.0314 8.42435 11.2 8 11.2V12.8ZM8 11.2C7.57565 11.2 7.16869 11.0314 6.86863 10.7314C6.56857 10.4313 6.4 10.0244 6.4 9.60001H4.8C4.8 10.4487 5.13714 11.2626 5.73726 11.8628C6.33737 12.4629 7.15131 12.8 8 12.8V11.2ZM2.4 4.80001H21.6V3.20001H2.4V4.80001ZM22.4 5.60001V18.4H24V5.60001H22.4ZM21.6 19.2H2.4V20.8H21.6V19.2ZM1.6 18.4V5.60001H0V18.4H1.6ZM2.4 19.2C2.18783 19.2 1.98434 19.1157 1.83431 18.9657C1.68429 18.8157 1.6 18.6122 1.6 18.4H0C0 19.0365 0.252856 19.647 0.702944 20.0971C1.15303 20.5472 1.76348 20.8 2.4 20.8V19.2ZM22.4 18.4C22.4 18.6122 22.3157 18.8157 22.1657 18.9657C22.0157 19.1157 21.8122 19.2 21.6 19.2V20.8C22.2365 20.8 22.847 20.5472 23.2971 20.0971C23.7471 19.647 24 19.0365 24 18.4H22.4ZM21.6 4.80001C21.8122 4.80001 22.0157 4.8843 22.1657 5.03433C22.3157 5.18436 22.4 5.38784 22.4 5.60001H24C24 4.96349 23.7471 4.35304 23.2971 3.90296C22.847 3.45287 22.2365 3.20001 21.6 3.20001V4.80001ZM2.4 3.20001C1.76348 3.20001 1.15303 3.45287 0.702944 3.90296C0.252856 4.35304 0 4.96349 0 5.60001H1.6C1.6 5.38784 1.68429 5.18436 1.83431 5.03433C1.98434 4.8843 2.18783 4.80001 2.4 4.80001V3.20001ZM14.4 9.60001H19.2V8.00001H14.4V9.60001ZM14.4 14.4H19.2V12.8H14.4V14.4Z" fill="#3C50E0" fill-opacity="0.5"/>
</g>
<defs>
<clipPath id="clip0_307_42672">
<rect width="24" height="24" fill="white"/>
</clipPath>
</defs>
</svg>
