<svg width="9" height="14" viewBox="0 0 9 14" fill="none" xmlns="http://www.w3.org/2000/svg">
<path fill-rule="evenodd" clip-rule="evenodd" d="M0.792787 7.70698C0.605316 7.51945 0.5 7.26514 0.5 6.99998C0.5 6.73481 0.605316 6.4805 0.792787 6.29298L6.44979 0.635977C6.54203 0.540467 6.65238 0.464284 6.77438 0.411875C6.89639 0.359466 7.02761 0.33188 7.16039 0.330726C7.29316 0.329572 7.42484 0.354874 7.54774 0.405155C7.67064 0.455436 7.78229 0.529689 7.87618 0.623582C7.97007 0.717475 8.04433 0.829126 8.09461 0.952023C8.14489 1.07492 8.17019 1.2066 8.16904 1.33938C8.16788 1.47216 8.1403 1.60338 8.08789 1.72538C8.03548 1.84739 7.9593 1.95773 7.86379 2.04998L2.91379 6.99998L7.86379 11.95C8.04594 12.1386 8.14674 12.3912 8.14446 12.6534C8.14218 12.9156 8.03701 13.1664 7.85161 13.3518C7.6662 13.5372 7.41538 13.6424 7.15319 13.6447C6.89099 13.6469 6.63839 13.5461 6.44979 13.364L0.792787 7.70698Z" fill="#3C50E0"/>
</svg>
